<svg id="Capa_1" data-name="Capa 1" xmlns="http://www.w3.org/2000/svg" xmlns:xlink="http://www.w3.org/1999/xlink" viewBox="0 0 960 1080"><defs><style>.cls-1,.cls-17,.cls-18{fill:none;}.cls-2{clip-path:url(#clip-path);}.cls-3{fill:url(#Degradado_sin_nombre_12);}.cls-4{opacity:0.5;}.cls-5{fill:#65a5dc;}.cls-6{fill:#70ace0;}.cls-7{fill:#7ab1e2;}.cls-8{opacity:0.6;}.cls-9{fill:#80b5e4;}.cls-10{fill:#77b0e1;}.cls-11{fill:#7db1e2;}.cls-12{fill:#94ba4e;}.cls-13{fill:#84ad3d;}.cls-14{fill:#76a33e;}.cls-15{fill:#666;}.cls-16{fill:#333;}.cls-17,.cls-18{stroke:#fff;}.cls-17,.cls-18,.cls-58{stroke-miterlimit:10;stroke-width:3px;}.cls-18{stroke-dasharray:12.01 12.01;}.cls-19,.cls-58{fill:#b7006a;}.cls-20{fill:#4b83c7;}.cls-21{fill:#7c5d3f;}.cls-22{fill:#866544;}.cls-23{fill:#48753a;}.cls-24{fill:#fff;opacity:0.1;}.cls-25{fill:#7dad3e;}.cls-26{fill:#e6b884;}.cls-26,.cls-27,.cls-28,.cls-29,.cls-30,.cls-31,.cls-32,.cls-33,.cls-34,.cls-35{fill-rule:evenodd;}.cls-27{fill:#c29a6f;}.cls-28{fill:#4774b5;}.cls-29{fill:#434244;}.cls-30{fill:#58584e;}.cls-31{fill:#e4e4e5;}.cls-32{fill:#cd9c67;}.cls-33{fill:#303130;}.cls-34{fill:#353636;}.cls-35{fill:#837581;}.cls-36{fill:#d16b81;}.cls-37{fill:#cc5162;}.cls-38{fill:#eac08b;}.cls-39{fill:#3b3a3a;}.cls-40{fill:#878887;}.cls-41{fill:#252324;}.cls-42{fill:#7abbc4;}.cls-43{fill:#919090;}.cls-44{fill:#797979;}.cls-45{fill:#987b5b;}.cls-46{fill:#ce5d69;}.cls-47{fill:#c5293c;}.cls-48{fill:#616161;}.cls-49{fill:#242626;}.cls-50{fill:#8bc2c0;}.cls-51{fill:#a3cecf;}.cls-52{fill:#303030;}.cls-53{fill:#e4b681;}.cls-54{fill:#4e4e50;}.cls-55{fill:#f1eaea;}.cls-56{fill:#c74759;}.cls-57{fill:#d47888;}.cls-58{stroke:#9b1267;}.cls-59{fill:#f2f2f2;}.cls-60{fill:gray;}</style><clipPath id="clip-path"><rect class="cls-1" width="960" height="1080"/></clipPath><linearGradient id="Degradado_sin_nombre_12" x1="480" y1="1166.88" x2="480" y2="-606.23" gradientUnits="userSpaceOnUse"><stop offset="0" stop-color="#64b4ee"/><stop offset="1" stop-color="#fff"/></linearGradient></defs><title>cuidate</title><g class="cls-2"><rect class="cls-3" width="960" height="1080"/><g id="_Grupo_" data-name="&lt;Grupo&gt;" class="cls-4"><rect id="_Trazado_" data-name="&lt;Trazado&gt;" class="cls-5" x="914.28" y="621.69" width="168.3" height="347.28"/><polygon id="_Trazado_2" data-name="&lt;Trazado&gt;" class="cls-6" points="902.6 516.98 902.6 501.47 827.08 501.47 827.08 535.7 811.72 539.51 811.72 969.08 917.97 969.08 917.97 513.18 902.6 516.98"/><polygon id="_Trazado_3" data-name="&lt;Trazado&gt;" class="cls-7" points="464.77 425.25 445.01 425.25 445.01 406.77 307.92 406.77 307.92 425.25 288.15 425.25 288.15 464.3 302.24 464.3 302.24 921.27 450.68 921.27 450.68 464.3 464.77 464.3 464.77 425.25"/><rect id="_Trazado_4" data-name="&lt;Trazado&gt;" class="cls-5" x="514.78" y="514.31" width="204.29" height="460.63"/><polygon id="_Trazado_5" data-name="&lt;Trazado&gt;" class="cls-5" points="391.98 566.96 221.85 618.4 221.85 974.93 391.98 974.93 391.98 566.96"/><rect id="_Trazado_6" data-name="&lt;Trazado&gt;" class="cls-5" x="339.4" y="552.47" width="6.88" height="44.64"/><rect id="_Trazado_7" data-name="&lt;Trazado&gt;" class="cls-5" x="322.41" y="550.53" width="6.88" height="53.84"/><rect id="_Trazado_8" data-name="&lt;Trazado&gt;" class="cls-6" x="72.65" y="481.72" width="170.13" height="493.21"/><polygon id="_Trazado_9" data-name="&lt;Trazado&gt;" class="cls-6" points="477.86 532.26 407.77 605.4 407.77 961.93 477.86 961.93 547.96 961.93 547.96 605.4 477.86 532.26"/><polygon id="_Trazado_10" data-name="&lt;Trazado&gt;" class="cls-7" points="100.23 682.82 -122.2 682.82 -122.2 721.82 -97.2 721.82 -97.2 972.88 75.24 972.88 75.24 721.82 100.23 721.82 100.23 682.82"/><polygon id="_Trazado_11" data-name="&lt;Trazado&gt;" class="cls-6" points="219.54 497.55 100.38 497.55 100.38 461.39 219.54 442.6 219.54 497.55"/><polygon id="_Trazado_12" data-name="&lt;Trazado&gt;" class="cls-7" points="422.7 687.02 422.7 664.02 351.57 664.02 351.57 687.02 336.81 687.02 336.81 938.78 437.47 938.78 437.47 687.02 422.7 687.02"/><polygon id="_Trazado_13" data-name="&lt;Trazado&gt;" class="cls-7" points="831.65 969.08 679.38 969.08 679.38 639.07 831.65 670.38 831.65 969.08"/><rect id="_Trazado_14" data-name="&lt;Trazado&gt;" class="cls-7" x="732.51" y="630.59" width="77.48" height="58.41"/><g id="_Grupo_2" data-name="&lt;Grupo&gt;" class="cls-8"><rect id="_Trazado_15" data-name="&lt;Trazado&gt;" class="cls-9" x="704.29" y="694.16" width="12.58" height="11.47"/><rect id="_Trazado_16" data-name="&lt;Trazado&gt;" class="cls-9" x="704.29" y="716.86" width="12.58" height="11.47"/><rect id="_Trazado_17" data-name="&lt;Trazado&gt;" class="cls-9" x="725.73" y="694.16" width="12.58" height="11.47"/><rect id="_Trazado_18" data-name="&lt;Trazado&gt;" class="cls-9" x="725.73" y="739.57" width="12.58" height="11.47"/><rect id="_Trazado_19" data-name="&lt;Trazado&gt;" class="cls-9" x="747.42" y="783.32" width="12.58" height="11.47"/><rect id="_Trazado_20" data-name="&lt;Trazado&gt;" class="cls-9" x="768.86" y="783.32" width="12.58" height="11.47"/><rect id="_Trazado_21" data-name="&lt;Trazado&gt;" class="cls-9" x="768.86" y="806.02" width="12.58" height="11.47"/><rect id="_Trazado_22" data-name="&lt;Trazado&gt;" class="cls-9" x="790.3" y="760.61" width="12.58" height="11.47"/><rect id="_Trazado_23" data-name="&lt;Trazado&gt;" class="cls-9" x="825.72" y="555.4" width="9.64" height="5.92"/><rect id="_Trazado_24" data-name="&lt;Trazado&gt;" class="cls-9" x="848.35" y="555.4" width="9.64" height="5.92"/><rect id="_Trazado_25" data-name="&lt;Trazado&gt;" class="cls-9" x="848.35" y="574.49" width="9.64" height="5.92"/><rect id="_Trazado_26" data-name="&lt;Trazado&gt;" class="cls-10" x="556.54" y="556.81" width="15.9" height="8.74"/><rect id="_Trazado_27" data-name="&lt;Trazado&gt;" class="cls-10" x="613.34" y="556.81" width="15.9" height="8.74"/><rect id="_Trazado_28" data-name="&lt;Trazado&gt;" class="cls-10" x="638.02" y="556.81" width="15.9" height="8.74"/><rect id="_Trazado_29" data-name="&lt;Trazado&gt;" class="cls-10" x="587.8" y="592.75" width="15.9" height="8.74"/><rect id="_Trazado_30" data-name="&lt;Trazado&gt;" class="cls-10" x="265.7" y="642" width="15.9" height="8.74"/><rect id="_Trazado_31" data-name="&lt;Trazado&gt;" class="cls-10" x="265.7" y="766.58" width="15.9" height="8.74"/><rect id="_Trazado_32" data-name="&lt;Trazado&gt;" class="cls-10" x="292.84" y="642" width="15.9" height="8.74"/><rect id="_Trazado_33" data-name="&lt;Trazado&gt;" class="cls-10" x="265.7" y="664.02" width="15.9" height="8.74"/><rect id="_Trazado_34" data-name="&lt;Trazado&gt;" class="cls-10" x="292.84" y="664.02" width="15.9" height="8.74"/><rect id="_Trazado_35" data-name="&lt;Trazado&gt;" class="cls-10" x="265.7" y="686.04" width="15.9" height="8.74"/><rect id="_Trazado_36" data-name="&lt;Trazado&gt;" class="cls-10" x="292.84" y="727.52" width="15.9" height="8.74"/><rect id="_Trazado_37" data-name="&lt;Trazado&gt;" class="cls-10" x="292.84" y="747.2" width="15.9" height="8.74"/><rect id="_Trazado_38" data-name="&lt;Trazado&gt;" class="cls-10" x="292.84" y="810.7" width="15.9" height="8.74"/><rect id="_Trazado_39" data-name="&lt;Trazado&gt;" class="cls-10" x="319.99" y="642" width="15.9" height="8.74"/><rect id="_Trazado_40" data-name="&lt;Trazado&gt;" class="cls-10" x="347.13" y="642" width="15.9" height="8.74"/><rect id="_Trazado_41" data-name="&lt;Trazado&gt;" class="cls-10" x="645.97" y="599.99" width="15.9" height="8.74"/><rect id="_Trazado_42" data-name="&lt;Trazado&gt;" class="cls-10" x="579.85" y="659.65" width="15.9" height="8.74"/><rect id="_Trazado_43" data-name="&lt;Trazado&gt;" class="cls-10" x="670.13" y="556.81" width="15.9" height="8.74"/><rect id="_Trazado_44" data-name="&lt;Trazado&gt;" class="cls-10" x="670.13" y="532.26" width="15.9" height="8.74"/><rect id="_Trazado_45" data-name="&lt;Trazado&gt;" class="cls-10" x="645.97" y="532.26" width="15.9" height="8.74"/><rect id="_Trazado_46" data-name="&lt;Trazado&gt;" class="cls-9" x="848.35" y="652.1" width="9.64" height="5.92"/><rect id="_Trazado_47" data-name="&lt;Trazado&gt;" class="cls-9" x="870.97" y="555.4" width="9.64" height="5.92"/><rect id="_Trazado_48" data-name="&lt;Trazado&gt;" class="cls-9" x="868.06" y="630.59" width="9.64" height="5.92"/><rect id="_Trazado_49" data-name="&lt;Trazado&gt;" class="cls-9" x="868.06" y="613.19" width="9.64" height="5.92"/><rect id="_Trazado_50" data-name="&lt;Trazado&gt;" class="cls-9" x="889.74" y="613.19" width="9.64" height="5.92"/><rect id="_Trazado_51" data-name="&lt;Trazado&gt;" class="cls-9" x="747.17" y="716.86" width="12.58" height="11.47"/><rect id="_Trazado_52" data-name="&lt;Trazado&gt;" class="cls-11" x="423.59" y="624.85" width="13.85" height="11.47"/><rect id="_Trazado_53" data-name="&lt;Trazado&gt;" class="cls-11" x="444.14" y="624.85" width="13.86" height="11.47"/><rect id="_Trazado_54" data-name="&lt;Trazado&gt;" class="cls-11" x="444.14" y="646.36" width="13.86" height="11.47"/><rect id="_Trazado_55" data-name="&lt;Trazado&gt;" class="cls-11" x="464.68" y="624.85" width="13.85" height="11.47"/><rect id="_Trazado_56" data-name="&lt;Trazado&gt;" class="cls-11" x="108.38" y="530.89" width="13.85" height="11.47"/><rect id="_Trazado_57" data-name="&lt;Trazado&gt;" class="cls-11" x="99.89" y="603" width="13.85" height="11.47"/><rect id="_Trazado_58" data-name="&lt;Trazado&gt;" class="cls-11" x="141.57" y="530.89" width="13.85" height="11.47"/><rect id="_Trazado_59" data-name="&lt;Trazado&gt;" class="cls-11" x="141.57" y="555.59" width="13.85" height="11.47"/><rect id="_Trazado_60" data-name="&lt;Trazado&gt;" class="cls-11" x="188.28" y="633.33" width="13.85" height="11.47"/><rect id="_Trazado_61" data-name="&lt;Trazado&gt;" class="cls-11" x="141.57" y="580.28" width="13.85" height="11.47"/><rect id="_Trazado_62" data-name="&lt;Trazado&gt;" class="cls-11" x="141.57" y="604.97" width="13.85" height="11.47"/><rect id="_Trazado_63" data-name="&lt;Trazado&gt;" class="cls-11" x="174.77" y="530.89" width="13.85" height="11.47"/><rect id="_Trazado_64" data-name="&lt;Trazado&gt;" class="cls-11" x="174.77" y="568.75" width="13.85" height="11.47"/><rect id="_Trazado_65" data-name="&lt;Trazado&gt;" class="cls-11" x="212.62" y="508.57" width="13.85" height="11.47"/><rect id="_Trazado_66" data-name="&lt;Trazado&gt;" class="cls-11" x="481.09" y="706.94" width="13.86" height="11.47"/><rect id="_Trazado_67" data-name="&lt;Trazado&gt;" class="cls-11" x="501.63" y="685.42" width="13.86" height="11.47"/><rect id="_Trazado_68" data-name="&lt;Trazado&gt;" class="cls-11" x="505.13" y="735.99" width="13.86" height="11.47"/><rect id="_Trazado_69" data-name="&lt;Trazado&gt;" class="cls-9" x="348.89" y="711.13" width="17.48" height="11.47"/><rect id="_Trazado_70" data-name="&lt;Trazado&gt;" class="cls-9" x="43.09" y="713.16" width="15.17" height="7.41"/><rect id="_Trazado_71" data-name="&lt;Trazado&gt;" class="cls-9" x="5.97" y="743.75" width="15.17" height="7.41"/><rect id="_Trazado_72" data-name="&lt;Trazado&gt;" class="cls-9" x="11.76" y="711.06" width="15.17" height="7.41"/><rect id="_Trazado_73" data-name="&lt;Trazado&gt;" class="cls-9" x="388.77" y="711.13" width="17.48" height="11.47"/><rect id="_Trazado_74" data-name="&lt;Trazado&gt;" class="cls-9" x="385.05" y="760.61" width="17.48" height="11.47"/><rect id="_Trazado_75" data-name="&lt;Trazado&gt;" class="cls-9" x="357.63" y="795.67" width="17.48" height="11.47"/><rect id="_Trazado_76" data-name="&lt;Trazado&gt;" class="cls-9" x="385.05" y="789.05" width="17.48" height="11.47"/><rect id="_Trazado_77" data-name="&lt;Trazado&gt;" class="cls-9" x="350.98" y="737.56" width="17.48" height="11.47"/><rect id="_Trazado_78" data-name="&lt;Trazado&gt;" class="cls-9" x="385.05" y="737.56" width="17.48" height="11.47"/><rect id="_Trazado_79" data-name="&lt;Trazado&gt;" class="cls-9" x="320.55" y="436.86" width="26.58" height="11.47"/><rect id="_Trazado_80" data-name="&lt;Trazado&gt;" class="cls-9" x="355.17" y="436.86" width="26.58" height="11.47"/><rect id="_Trazado_81" data-name="&lt;Trazado&gt;" class="cls-9" x="355.17" y="530.89" width="26.58" height="11.47"/><rect id="_Trazado_82" data-name="&lt;Trazado&gt;" class="cls-9" x="355.17" y="485.87" width="26.58" height="11.47"/><rect id="_Trazado_83" data-name="&lt;Trazado&gt;" class="cls-9" x="316" y="485.87" width="26.58" height="11.47"/><rect id="_Trazado_84" data-name="&lt;Trazado&gt;" class="cls-9" x="392.96" y="505.62" width="26.58" height="11.47"/><rect id="_Trazado_85" data-name="&lt;Trazado&gt;" class="cls-9" x="353.17" y="505.62" width="26.58" height="11.47"/><rect id="_Trazado_86" data-name="&lt;Trazado&gt;" class="cls-9" x="392.96" y="436.86" width="26.58" height="11.47"/><rect id="_Trazado_87" data-name="&lt;Trazado&gt;" class="cls-9" x="388.77" y="459.78" width="26.58" height="11.47"/><rect id="_Trazado_88" data-name="&lt;Trazado&gt;" class="cls-9" x="747.17" y="739.57" width="12.58" height="11.47"/></g></g><path id="_Trazado_89" data-name="&lt;Trazado&gt;" class="cls-12" d="M172.37,978h616S640.23,875.28,521.88,875.28,172.37,978,172.37,978Z"/><path id="_Trazado_90" data-name="&lt;Trazado&gt;" class="cls-13" d="M955.45,877.68c-26.17-.53-328.66-4.25-490.59,102.45H1446C1284.11,873.43,981.62,877.15,955.45,877.68Z"/><path id="_Trazado_91" data-name="&lt;Trazado&gt;" class="cls-14" d="M487.94,978.38s-262.81-95-411.65-96.72c-357.55-4.12-380.37,98.48-380.37,98.48l200-1.75h592Z"/><path class="cls-15" d="M35.17,947H926.83A35.17,35.17,0,0,1,962,982.17V1003a0,0,0,0,1,0,0H0a0,0,0,0,1,0,0V982.17A35.17,35.17,0,0,1,35.17,947Z"/><rect class="cls-16" y="1003" width="960" height="77"/><line class="cls-17" x1="960" y1="1041.5" x2="954" y2="1041.5"/><line class="cls-18" x1="941.99" y1="1041.5" x2="-36.99" y2="1041.5"/><g id="_Grupo_3" data-name="&lt;Grupo&gt;"><g id="_Grupo_4" data-name="&lt;Grupo&gt;"><path id="_Trazado_compuesto_" data-name="&lt;Trazado compuesto&gt;" class="cls-19" d="M327.85,152.31a23,23,0,0,0-4.62-5.2,13.46,13.46,0,0,0-4.44-2.2,18.54,18.54,0,0,0-5-.66,15.23,15.23,0,0,0-7.14,1.72,18,18,0,0,0-5.7,4.67,22.64,22.64,0,0,0-3.78,6.87,24.92,24.92,0,0,0-1.37,8.31,25.42,25.42,0,0,0,1.35,8.35,22.24,22.24,0,0,0,3.73,6.84,17.89,17.89,0,0,0,5.68,4.65,15.42,15.42,0,0,0,7.23,1.72,14.49,14.49,0,0,0,5.13-.89,17.19,17.19,0,0,0,4.33-2.36,17.81,17.81,0,0,0,3.41-3.37,16.54,16.54,0,0,0,2.29-4l14.74,4.12a29.29,29.29,0,0,1-4.17,8.31,29,29,0,0,1-6.62,6.62,31.9,31.9,0,0,1-8.7,4.39,32.9,32.9,0,0,1-10.41,1.6,31.46,31.46,0,0,1-9-1.28,32.63,32.63,0,0,1-8-3.62,33.06,33.06,0,0,1-6.78-5.63,35.35,35.35,0,0,1-5.2-7.3,38.37,38.37,0,0,1-4.53-18.2,37.31,37.31,0,0,1,2.61-14,36.43,36.43,0,0,1,7.14-11.4,33.55,33.55,0,0,1,10.64-7.69,31.07,31.07,0,0,1,13.16-2.81,28,28,0,0,1,9.48,1.4,27.46,27.46,0,0,1,8.47,5.52H342v15.47Z"/><path id="_Trazado_compuesto_2" data-name="&lt;Trazado compuesto&gt;" class="cls-19" d="M381.45,153.18h22.43v34.88h5.72v12.54h-20.1v-4a17.13,17.13,0,0,1-5.68,3.39,23.55,23.55,0,0,1-14.92,0,16.64,16.64,0,0,1-6.07-3.73,17.46,17.46,0,0,1-4.07-6.25,23.9,23.9,0,0,1-1.49-8.84V165.72H351.1V153.18h21V181.1q0,4.76,2.43,7.12a8.68,8.68,0,0,0,6.32,2.36,8.08,8.08,0,0,0,5-1.69,9.5,9.5,0,0,0,3.25-4.58V165.72h-7.6Z"/><path id="_Trazado_compuesto_3" data-name="&lt;Trazado compuesto&gt;" class="cls-19" d="M416.57,153.18h21.29v34.88h6.59v12.54H416.57V188.06h7.14V165.72h-7.14Zm20.52-20.77H452v1.15l-14,13.1H427.24Z"/><path id="_Trazado_compuesto_4" data-name="&lt;Trazado compuesto&gt;" class="cls-19" d="M478.46,129.37H499.2v58.69h9.25v12.54H485.1v-1.83a26.89,26.89,0,0,1-5.06,2,19.2,19.2,0,0,1-5.24.73,25.21,25.21,0,0,1-10-1.95,23.67,23.67,0,0,1-7.83-5.33,24.37,24.37,0,0,1-5.1-7.94,27,27,0,0,1,0-19.5,24.07,24.07,0,0,1,5-7.85,23.33,23.33,0,0,1,7.74-5.26,25,25,0,0,1,9.91-1.92A25.54,25.54,0,0,1,485.1,154v-12h-6.64Zm-2.88,59.51a11.13,11.13,0,0,0,5.47-1.56,12.66,12.66,0,0,0,4.05-3.85v-14a11.2,11.2,0,0,0-4.14-3.78,12.07,12.07,0,0,0-9.84-.48,11.11,11.11,0,0,0-3.66,2.47,11.69,11.69,0,0,0-2.49,3.85,14.49,14.49,0,0,0,0,10.14,11.39,11.39,0,0,0,2.49,3.85,10.68,10.68,0,0,0,3.66,2.4A13.43,13.43,0,0,0,475.58,188.89Z"/><path id="_Trazado_compuesto_5" data-name="&lt;Trazado compuesto&gt;" class="cls-19" d="M543.65,198q-1.6,1-2.93,1.72a16.09,16.09,0,0,1-5.4,1.79,21.75,21.75,0,0,1-3.11.21,23.18,23.18,0,0,1-7.62-1.17,16.79,16.79,0,0,1-5.68-3.2,13.85,13.85,0,0,1-3.55-4.81,15.31,15.31,0,0,1,0-12.11,13.27,13.27,0,0,1,3.64-4.78,17.32,17.32,0,0,1,5.84-3.11,25.58,25.58,0,0,1,7.9-1.12,46.87,46.87,0,0,1,5.93.34q2.68.34,5,.85v-1.46a6.55,6.55,0,0,0-.69-3.09,5.92,5.92,0,0,0-1.92-2.15,8.52,8.52,0,0,0-3-1.24,17.49,17.49,0,0,0-3.8-.39,30.43,30.43,0,0,0-7.58.85,28.87,28.87,0,0,0-6.29,2.45L516,158.72a38.85,38.85,0,0,1,9.77-4.9,34.13,34.13,0,0,1,10.83-1.69,32.55,32.55,0,0,1,8.22,1,16.69,16.69,0,0,1,6.48,3.2,15,15,0,0,1,4.23,5.79,22,22,0,0,1,1.53,8.7v17.26h6.36v12.54H543.65Zm-10.44-7.1a15.91,15.91,0,0,0,5.91-1.05,17.4,17.4,0,0,0,4.53-2.56v-6h-11a6.73,6.73,0,0,0-2.06.32,6.11,6.11,0,0,0-1.81.92,4.53,4.53,0,0,0-1.28,1.46,4.1,4.1,0,0,0-.48,2,4.61,4.61,0,0,0,1.53,3.53A6.64,6.64,0,0,0,533.21,190.95Z"/><path id="_Trazado_compuesto_6" data-name="&lt;Trazado compuesto&gt;" class="cls-19" d="M620.84,179.87l.14,1.42a9.44,9.44,0,0,0,1.72,3.62,11.33,11.33,0,0,0,2.86,2.61,12.71,12.71,0,0,0,3.66,1.58,16,16,0,0,0,4.07.53,29,29,0,0,0,3.91-.25,32.69,32.69,0,0,0,3.59-.69q1.74-.43,3.39-1t3.34-1.21l5,9.38q-2.61,1.6-4.78,2.72a30.72,30.72,0,0,1-4.37,1.85,26.19,26.19,0,0,1-4.67,1.07,42.45,42.45,0,0,1-5.77.34,27.92,27.92,0,0,1-11-2,23.06,23.06,0,0,1-13.07-13.66,28.43,28.43,0,0,1-1.72-9.89,26.42,26.42,0,0,1,1.81-9.8,23.75,23.75,0,0,1,13-13.37,25.46,25.46,0,0,1,10.16-2,25,25,0,0,1,9.91,1.85,20.8,20.8,0,0,1,7.3,5.13,22.93,22.93,0,0,1,4.58,7.69,30.09,30.09,0,0,1,1.74,9.5q.14,1.15.16,2.27t-.07,2.31Zm10.94-17.3a13.6,13.6,0,0,0-4.37.62,9,9,0,0,0-3,1.69,8.61,8.61,0,0,0-2,2.45,13.82,13.82,0,0,0-1.14,2.88h19.82a15,15,0,0,0-.92-2.93,7.78,7.78,0,0,0-1.65-2.43,7.5,7.5,0,0,0-2.68-1.67A11.49,11.49,0,0,0,631.78,162.56Z"/><path id="_Trazado_compuesto_7" data-name="&lt;Trazado compuesto&gt;" class="cls-19" d="M668.54,187.65l14,4.9-13,24.77-9.38-3.57Z"/><path id="_Trazado_92" data-name="&lt;Trazado&gt;" class="cls-19" d="M580.54,103.5s1-6.21,3.94-7.58c0,0,4.85-3.41,8.95,1.91a7.39,7.39,0,0,1,1.61,5.5c0,.18-.44,1.67-.27,1.62,1.75-.47.59,2.07.17,2.53-.84.91-.84.91-1.41.72a21,21,0,0,0-2.52,4.2c-.48,1.58.32,2.1.32,2.1a6.37,6.37,0,0,1,3.53.89c1.47,1,7.56-.76,10.47,1s15.63.89,16.77.89,9-5.59,9-5.59,5.92-3.53,6.93-4.6c.8-.85,14.12-7.09,13.11-4.7,0,0-4.61,2.34-5.12,2.47-.15,0,.89.32.84,1,0,.45-1.15.64-.69.94,1.7,1.1,0,1.43.36,1.72,1.63,1.32-.83,2-.83,2a13,13,0,0,1-2.3.51,13.79,13.79,0,0,0-1.9.25,10.58,10.58,0,0,1-1.27.51c-.76.25-1.78.51-1.78.51s-.13,0-.76.63-3.39,3.71-4.31,4.6-5.68,4.05-5.68,4.05-1.73,1-2.77,1.78c-.31.22-.29.87-3.59.4a40.81,40.81,0,0,0-4.4.18,18,18,0,0,1-13.61-.58s-2.16-.29-2.28,1.1-.76,2.91-1.14,4.69.76,5.07.76,5.07-4.06,15-4.18,16,3.55,4.06,3.68,4.95.38,7.61.38,7.61-1.14,5.33-.25,6.21c0,0,.63.38-.63,1.39s-1.14,1.52-1.14,1.52.13,7.86-.38,10.52-1.39,14.45-4.31,15.09a3.77,3.77,0,0,1-3.8-1.78s-1.65-1.27-1.52-2.16l.13-.89s-1.52-2.92-1-4.31l-.25-3.93a4.57,4.57,0,0,1-1.14-1.14,10,10,0,0,1-.51-1.52s-1.65,6.59-1.33,7.86a18.66,18.66,0,0,1,0,4.31s.7,2.25,0,3.6a9.75,9.75,0,0,0-.82,3.25s1.27,3.42.82,5.33-1.59,9.76-1.59,9.76-.38,10.65,0,11.41,2.54,2.92,2.28,3.93.51,1.65.89,2.54a5,5,0,0,1-.25,2.66s1.39,1.77.76,2-5.32,1.78-6,2.28-2.54-.38-2.79-1.14.25-1.9,0-2.41l-.76-1.52-.75-1.9v-1.9s1.23-.76.66-1.52.33-1.77.33-1.77l.61-.76s-2.71-19.65-2.58-21.43.29-6.59.93-6.59.65-5.45.53-6.59-.68-1.73-1.18-3-3.77-10.84-3-18.56c.31-3.11-.12,2.22-2.66-.84-.84-1-2.12-.16-2.12-.16s-4.4.86-.86-3.93c1.14-1.55,1.41-5,1.4-5.4,0-.75.82-.57.82-.57s2.95-7.1,3.71-7.1,1.51-1.27,1.51-1.27l-.45-1.39s-1.39-1.78-2.27-2.66-1-9.26-1-9.26V131.5s.75-3.93.75-4.44-2.57-5.45-3.33-6-10-.74-16.34-6.67c0,0-.87-.33-2.72-1.07-.38-.15-1.3-1.79-1.73-2-4.39-2.62-10-9.11-11.81-15,0,0-1-1.83-1.43-1.83a29,29,0,0,1-4.42-1.95c-2-1.18-3.66-3.24-2.6-4,.33-.23-.38-1.05,0-1.77.15-.31.34-.3.53-.58s0-1.25.19-1.56c.3-.56,1.1-.39,1.11-.22l-3-3.68s.36-1.47,2.64.83a55.13,55.13,0,0,1,5.21,5,51,51,0,0,1,4.55,6.68s4.3,3.56,7.51,6.8c3.93,4,7,7.81,7.33,8.14,1,.9,3.58.68,13.06,4.68.78.33,3.13-1.15,10.52,2.4,0,0,2-1.09,3.93-1.9,1.19-.5.38-2.41.38-2.41s-.4-2.8-.76-2.92c-.19-.06-.76-.89-.76-.89s-.57-2.84-.13-3.17,1.14.13,1.14.13Z"/></g><g id="_Grupo_5" data-name="&lt;Grupo&gt;"><path id="_Trazado_compuesto_8" data-name="&lt;Trazado compuesto&gt;" class="cls-20" d="M296.21,231.33a7.45,7.45,0,0,0-3.4-.67,9.13,9.13,0,0,0-1.65.14,4.74,4.74,0,0,0-1.36.45,2.61,2.61,0,0,0-.91.77,1.78,1.78,0,0,0-.34,1.07,1.63,1.63,0,0,0,.4,1,2.63,2.63,0,0,0,1.52.77l5.26,1.12a14.87,14.87,0,0,1,4.2,1.54,10.54,10.54,0,0,1,2.82,2.28,8.41,8.41,0,0,1,1.59,2.74,9,9,0,0,1,.5,2.9,11,11,0,0,1-1.35,5.62,11.38,11.38,0,0,1-3.54,3.8,15.57,15.57,0,0,1-5,2.16,22.92,22.92,0,0,1-5.58.69,18.22,18.22,0,0,1-7.5-1.28,8.53,8.53,0,0,1-2.56-1.83h-5.29l2-8.78h9.58a5.1,5.1,0,0,0,0,2,2.38,2.38,0,0,0,.72,1.12,3.56,3.56,0,0,0,1.38.75,6.41,6.41,0,0,0,1.89.26,6.64,6.64,0,0,0,3.51-.8,2.43,2.43,0,0,0,1.3-2.15,1.88,1.88,0,0,0-.58-1.38,4.86,4.86,0,0,0-2.12-1l-4.2-1.06a14.5,14.5,0,0,1-4-1.62,11.8,11.8,0,0,1-2.87-2.39,9.71,9.71,0,0,1-1.75-2.93,9.57,9.57,0,0,1,.61-8,10.34,10.34,0,0,1,3.25-3.41,15.45,15.45,0,0,1,4.71-2.05,22.28,22.28,0,0,1,5.61-.69,19.24,19.24,0,0,1,3.89.37,14.44,14.44,0,0,1,3.16,1,13.07,13.07,0,0,1,1.44.74h6.73l-2.05,8.78h-8.65A2.45,2.45,0,0,0,296.21,231.33Z"/><path id="_Trazado_compuesto_9" data-name="&lt;Trazado compuesto&gt;" class="cls-20" d="M319.41,242.61a8.16,8.16,0,0,0,.26,1.47,5.5,5.5,0,0,0,1.07,2.13,5.16,5.16,0,0,0,2,1.44,7.38,7.38,0,0,0,2.95.53,10.13,10.13,0,0,0,2.36-.26,10,10,0,0,0,2-.72,12,12,0,0,0,1.84-1.11q.88-.64,1.75-1.41l7.05,6.18a19.84,19.84,0,0,1-7.47,5.08,25.26,25.26,0,0,1-9.1,1.62,16.78,16.78,0,0,1-5.9-1,14.28,14.28,0,0,1-4.81-2.93,13.88,13.88,0,0,1-3.25-4.63,15,15,0,0,1-1.2-6.12,20.45,20.45,0,0,1,1.65-8.33A19.63,19.63,0,0,1,321.51,224a20.77,20.77,0,0,1,7.74-1.46,15.32,15.32,0,0,1,6,1.14,15,15,0,0,1,4.69,3A13.9,13.9,0,0,1,343,231.1a12.7,12.7,0,0,1,1.11,5.19q0,.64-.06,1.44t-.19,1.65q-.13.85-.32,1.68t-.42,1.54Zm1.38-7.69a4.42,4.42,0,0,0-.22.45h13.88a3.75,3.75,0,0,0-.56-1.68,5.46,5.46,0,0,0-1.31-1.46,6.91,6.91,0,0,0-1.92-1,7.16,7.16,0,0,0-2.45-.4,9.71,9.71,0,0,0-3.06.48,7.83,7.83,0,0,0-2.56,1.39A6.88,6.88,0,0,0,320.78,234.92ZM331.36,209h10.45v.8L332,219h-7.53Z"/><path id="_Trazado_compuesto_10" data-name="&lt;Trazado compuesto&gt;" class="cls-20" d="M367.54,228h9.25l1.83-7.78a24,24,0,0,1,3.07-7.67,20,20,0,0,1,4.88-5.33,19.1,19.1,0,0,1,6.29-3.09,26.79,26.79,0,0,1,7.32-1,24.37,24.37,0,0,1,4.81.44,21.18,21.18,0,0,1,3.73,1.08,12.17,12.17,0,0,1,2.61,1.4,5,5,0,0,1,1.4,1.4L404.3,218.1a5.62,5.62,0,0,0-1.72-1.19,6.88,6.88,0,0,0-2.68-.41,6.19,6.19,0,0,0-3.85,1.37,7,7,0,0,0-2.43,4.07L392.21,228h10.12l-3.11,13.41H389.06L376.1,297H360.63l13-55.58h-9.16Z"/><path id="_Trazado_compuesto_11" data-name="&lt;Trazado compuesto&gt;" class="cls-20" d="M415.47,255.32a11.65,11.65,0,0,0,.37,2.11,7.85,7.85,0,0,0,1.53,3,7.37,7.37,0,0,0,2.82,2.06,10.55,10.55,0,0,0,4.21.76,14.46,14.46,0,0,0,3.36-.37,14.25,14.25,0,0,0,2.91-1,17.12,17.12,0,0,0,2.63-1.58q1.26-.92,2.5-2l10.07,8.84a28.34,28.34,0,0,1-10.67,7.26,36.09,36.09,0,0,1-13,2.31,24,24,0,0,1-8.42-1.46,20.41,20.41,0,0,1-6.87-4.19,19.83,19.83,0,0,1-4.65-6.62,21.44,21.44,0,0,1-1.72-8.74,29.22,29.22,0,0,1,2.36-11.9,28,28,0,0,1,15.56-15.08,29.67,29.67,0,0,1,11.06-2.08,21.88,21.88,0,0,1,8.51,1.63,21.39,21.39,0,0,1,6.71,4.35,19.86,19.86,0,0,1,4.39,6.29,18.15,18.15,0,0,1,1.58,7.42q0,.92-.09,2.06t-.27,2.36q-.18,1.21-.46,2.4t-.6,2.2Zm2-11a6.35,6.35,0,0,0-.32.64h19.82a5.36,5.36,0,0,0-.8-2.4,7.8,7.8,0,0,0-1.88-2.08,9.87,9.87,0,0,0-2.75-1.49,10.22,10.22,0,0,0-3.5-.57,13.87,13.87,0,0,0-4.37.69,11.18,11.18,0,0,0-3.66,2A9.83,9.83,0,0,0,417.44,244.33Z"/><path id="_Trazado_compuesto_12" data-name="&lt;Trazado compuesto&gt;" class="cls-20" d="M461.8,204.23h24.68l-13.55,58.69h8.65l-2.88,12.54H454.47L468,216.77h-9.11Z"/><path id="_Trazado_compuesto_13" data-name="&lt;Trazado compuesto&gt;" class="cls-20" d="M492.65,228H517L509,262.91h8.74l-2.93,12.54H490.41l8.06-34.88h-8.74ZM503,212.74a8.22,8.22,0,0,1,.62-3.18,7.91,7.91,0,0,1,1.72-2.59,8.22,8.22,0,0,1,2.59-1.74,8.07,8.07,0,0,1,3.23-.64,7.69,7.69,0,0,1,3.11.64,8.17,8.17,0,0,1,4.3,4.33,8.22,8.22,0,0,1,0,6.36,8.17,8.17,0,0,1-4.3,4.33,7.67,7.67,0,0,1-3.11.64,8.06,8.06,0,0,1-3.23-.64,8.2,8.2,0,0,1-2.59-1.74,7.9,7.9,0,0,1-1.72-2.59A8.21,8.21,0,0,1,503,212.74Z"/><path id="_Trazado_compuesto_14" data-name="&lt;Trazado compuesto&gt;" class="cls-20" d="M521.63,268l26.28-27.74h-9.43l-1.65,7.14h-11.9L529.32,228h41.52L569,236.27l-26.46,26.92h10.16l2-8.38h11.9l-4.72,20.65H519.94Z"/></g></g><g id="_Grupo_6" data-name="&lt;Grupo&gt;"><g id="_Grupo_7" data-name="&lt;Grupo&gt;"><rect id="_Trazado_93" data-name="&lt;Trazado&gt;" class="cls-21" x="70.83" y="840.3" width="10.31" height="50.61"/><rect id="_Trazado_94" data-name="&lt;Trazado&gt;" class="cls-22" x="70.83" y="840.3" width="5.15" height="50.61"/></g><path id="_Trazado_95" data-name="&lt;Trazado&gt;" class="cls-23" d="M76,681.32S34.25,774,36.31,808.83,76,848.33,76,848.33s37.61-4.66,39.67-39.5S76,681.32,76,681.32Z"/><path id="_Trazado_96" data-name="&lt;Trazado&gt;" class="cls-24" d="M36.31,808.83a39.85,39.85,0,0,0,5.13,17.82,43.6,43.6,0,0,0,11.21,4s37.61-6.23,39.67-52.8c1-21.7-7.59-60.18-17-95.09C70.07,694.68,34.4,776.56,36.31,808.83Z"/></g><g id="_Grupo_8" data-name="&lt;Grupo&gt;"><g id="_Grupo_9" data-name="&lt;Grupo&gt;"><rect id="_Trazado_97" data-name="&lt;Trazado&gt;" class="cls-21" x="200.3" y="877.27" width="9.41" height="46.22"/><rect id="_Trazado_98" data-name="&lt;Trazado&gt;" class="cls-22" x="200.3" y="877.27" width="4.71" height="46.22"/></g><path id="_Trazado_99" data-name="&lt;Trazado&gt;" class="cls-25" d="M205,732.08s-38.12,84.63-36.23,116.45S205,884.61,205,884.61s34.35-4.26,36.23-36.08S205,732.08,205,732.08Z"/><path id="_Trazado_100" data-name="&lt;Trazado&gt;" class="cls-24" d="M168.77,848.53a36.4,36.4,0,0,0,4.69,16.27,39.84,39.84,0,0,0,10.24,3.67s34.35-5.69,36.23-48.22c.88-19.82-6.93-55-15.52-86.85C199.6,744.28,167,819.06,168.77,848.53Z"/></g><g id="_Grupo_10" data-name="&lt;Grupo&gt;"><g id="_Grupo_11" data-name="&lt;Grupo&gt;"><rect id="_Trazado_101" data-name="&lt;Trazado&gt;" class="cls-21" x="137.4" y="880.93" width="5.34" height="30.45"/><rect id="_Trazado_102" data-name="&lt;Trazado&gt;" class="cls-22" x="137.4" y="880.93" width="2.67" height="30.45"/></g><path id="_Trazado_103" data-name="&lt;Trazado&gt;" class="cls-23" d="M140.07,798.64s-21.6,48-20.54,66,20.54,20.45,20.54,20.45,19.47-2.41,20.54-20.45S140.07,798.64,140.07,798.64Z"/><path id="_Trazado_104" data-name="&lt;Trazado&gt;" class="cls-24" d="M119.53,864.65a20.63,20.63,0,0,0,2.66,9.22A22.64,22.64,0,0,0,128,876s19.47-3.23,20.54-27.33c.5-11.23-3.93-31.15-8.8-49.22C137,805.55,118.54,847.94,119.53,864.65Z"/></g><g id="_Grupo_12" data-name="&lt;Grupo&gt;"><g id="_Grupo_13" data-name="&lt;Grupo&gt;"><rect id="_Trazado_105" data-name="&lt;Trazado&gt;" class="cls-21" x="679.92" y="867.37" width="9.13" height="44.81"/><rect id="_Trazado_106" data-name="&lt;Trazado&gt;" class="cls-22" x="679.92" y="867.37" width="4.56" height="44.81"/></g><path id="_Trazado_107" data-name="&lt;Trazado&gt;" class="cls-23" d="M684.48,726.63s-36.94,82-35.12,112.88,35.12,35,35.12,35,33.3-4.13,35.12-35S684.48,726.63,684.48,726.63Z"/><path id="_Trazado_108" data-name="&lt;Trazado&gt;" class="cls-24" d="M649.36,839.51a35.26,35.26,0,0,0,4.54,15.78,38.58,38.58,0,0,0,9.93,3.56s33.3-5.51,35.12-46.74c.85-19.21-6.72-53.28-15-84.18C679.24,738.45,647.67,810.94,649.36,839.51Z"/></g><g id="_Grupo_14" data-name="&lt;Grupo&gt;"><g id="_Grupo_15" data-name="&lt;Grupo&gt;"><rect id="_Trazado_109" data-name="&lt;Trazado&gt;" class="cls-21" x="928.92" y="841.42" width="11.57" height="56.81"/><rect id="_Trazado_110" data-name="&lt;Trazado&gt;" class="cls-22" x="928.92" y="841.42" width="5.78" height="56.81"/></g><path id="_Trazado_111" data-name="&lt;Trazado&gt;" class="cls-23" d="M934.71,663s-46.84,104-44.53,143.12,44.53,44.34,44.53,44.34,42.22-5.23,44.53-44.34S934.71,663,934.71,663Z"/><path id="_Trazado_112" data-name="&lt;Trazado&gt;" class="cls-24" d="M890.18,806.09a44.73,44.73,0,0,0,5.76,20,48.93,48.93,0,0,0,12.58,4.51s42.22-7,44.53-59.26C954.13,747,944.53,703.8,934,664.62,928.06,678,888,769.87,890.18,806.09Z"/></g><g id="_Grupo_16" data-name="&lt;Grupo&gt;"><g id="_Grupo_17" data-name="&lt;Grupo&gt;"><rect id="_Trazado_113" data-name="&lt;Trazado&gt;" class="cls-21" x="389.65" y="875.05" width="9.76" height="55.76"/><rect id="_Trazado_114" data-name="&lt;Trazado&gt;" class="cls-22" x="389.65" y="875.05" width="4.88" height="55.76"/></g><path id="_Trazado_115" data-name="&lt;Trazado&gt;" class="cls-25" d="M394.53,724.55S355,812.28,357,845.26s37.56,37.39,37.56,37.39,35.6-4.41,37.56-37.39S394.53,724.55,394.53,724.55Z"/><path id="_Trazado_116" data-name="&lt;Trazado&gt;" class="cls-24" d="M357,845.26a37.71,37.71,0,0,0,4.86,16.87,41.28,41.28,0,0,0,10.61,3.81S408,860,410,816c.91-20.54-7.18-57-16.09-90C388.92,737.2,355.16,814.71,357,845.26Z"/></g><g id="_Grupo_18" data-name="&lt;Grupo&gt;"><g id="_Grupo_19" data-name="&lt;Grupo&gt;"><rect id="_Trazado_117" data-name="&lt;Trazado&gt;" class="cls-21" x="836.65" y="861.05" width="9.76" height="55.76"/><rect id="_Trazado_118" data-name="&lt;Trazado&gt;" class="cls-22" x="836.65" y="861.05" width="4.88" height="55.76"/></g><path id="_Trazado_119" data-name="&lt;Trazado&gt;" class="cls-25" d="M841.53,710.55S802,798.28,804,831.26s37.56,37.39,37.56,37.39,35.6-4.41,37.56-37.39S841.53,710.55,841.53,710.55Z"/><path id="_Trazado_120" data-name="&lt;Trazado&gt;" class="cls-24" d="M804,831.26a37.71,37.71,0,0,0,4.86,16.87,41.28,41.28,0,0,0,10.61,3.81S855,846,857,802c.91-20.54-7.18-57-16.09-90C835.92,723.2,802.16,800.71,804,831.26Z"/></g><g id="_Grupo_20" data-name="&lt;Grupo&gt;"><g id="_Grupo_21" data-name="&lt;Grupo&gt;"><rect id="_Trazado_121" data-name="&lt;Trazado&gt;" class="cls-21" x="578.73" y="877.49" width="5.46" height="31.13"/><rect id="_Trazado_122" data-name="&lt;Trazado&gt;" class="cls-22" x="578.73" y="877.49" width="2.73" height="31.13"/></g><path id="_Trazado_123" data-name="&lt;Trazado&gt;" class="cls-23" d="M581.46,793.36s-22.09,49-21,67.48,21,20.91,21,20.91,19.9-2.47,21-20.91S581.46,793.36,581.46,793.36Z"/><path id="_Trazado_124" data-name="&lt;Trazado&gt;" class="cls-24" d="M560.46,860.84a21.08,21.08,0,0,0,2.72,9.43,23.1,23.1,0,0,0,5.93,2.13s19.9-3.3,21-27.94c.51-11.48-4-31.85-9-50.32C578.32,800.43,559.45,843.76,560.46,860.84Z"/></g><g id="_Grupo_22" data-name="&lt;Grupo&gt;"><g id="_Grupo_23" data-name="&lt;Grupo&gt;"><rect id="_Trazado_125" data-name="&lt;Trazado&gt;" class="cls-21" x="479.92" y="867.42" width="11.57" height="56.81"/><rect id="_Trazado_126" data-name="&lt;Trazado&gt;" class="cls-22" x="479.92" y="867.42" width="5.78" height="56.81"/></g><path id="_Trazado_127" data-name="&lt;Trazado&gt;" class="cls-23" d="M485.71,689s-46.84,104-44.53,143.12,44.53,44.34,44.53,44.34,42.22-5.23,44.53-44.34S485.71,689,485.71,689Z"/><path id="_Trazado_128" data-name="&lt;Trazado&gt;" class="cls-24" d="M441.18,832.09a44.73,44.73,0,0,0,5.76,20,48.93,48.93,0,0,0,12.58,4.51s42.22-7,44.53-59.26C505.13,773,495.53,729.8,485,690.62,479.06,704,439,795.87,441.18,832.09Z"/></g><g id="_Grupo_24" data-name="&lt;Grupo&gt;"><path id="_Trazado_129" data-name="&lt;Trazado&gt;" class="cls-26" d="M348.5,820.76a4.28,4.28,0,0,1,2,2.68c.17,1.55-1,2.85-2.86,3.15a2.47,2.47,0,0,1,2,2.23c.08,1-1,2.41-2.51,3a1.74,1.74,0,0,1,1.27,2.13c-.09.64-.26,1.19-1.87,1.74l-.71.22a36.4,36.4,0,0,1-17.28.49c-3.56-.92-29.23,10.28-56.85,7.13-8.83-1-15.73-19.89-20.16-26.85-2.95-4.63-12-21.18-13.49-24.44s-10.14-14-11.15-17c-6.53-19.38,11.1-39.41,28.42-8.45,6.82,10.75,18.89,47.79,22.06,55.54.66,1.64,1.78,2.17,4.55,2.12,17.46.38,24.49,1.75,37.26-.82,8.17-2.86,12.64-9,13.69-9.26,2.51-1.22,3.77-2.72,6-2.48,3.65.86,4.09,2.65,3.89,3.19s1.68.13,2.87-.14C349.63,814.59,350.8,820.45,348.5,820.76Z"/><path id="_Trazado_130" data-name="&lt;Trazado&gt;" class="cls-26" d="M256.34,743.93c-2.77-2-5.68-5-6.06-13.18-1.44,1.81-2.58,1-3.69-.43-1.36,12-12.71,16.84-21.77,26.18,15.19-3.49,17.92-4.25,30,12.23A35.49,35.49,0,0,1,258.56,758c2.44-4.5,5.1-7.14,7.87-8.77A87.66,87.66,0,0,1,256.34,743.93Z"/><path id="_Trazado_131" data-name="&lt;Trazado&gt;" class="cls-27" d="M250.28,730.75c-1.13.59-1.34.82-3.69-.43.69,2,1.43,1.95,2.92,2.34.38,8.22,3.89,10.4,6.66,12.38,1.34,1,9.12,4.89,10.26,4.21a87.66,87.66,0,0,1-10.09-5.31C253.57,742,250.66,739,250.28,730.75Z"/><path id="_Trazado_132" data-name="&lt;Trazado&gt;" class="cls-26" d="M282.09,723.74c-.95-2.64,1.62-4,1.34-8.3-4.18,5.28-12.32,5.23-16.51,6.61.91-.81,2.21-3.32,3.32-6.12-.72,1.1-7.22,8.69-13,8.88,1.51-1.65,2.24-1.66,5.6-8-1.43,2.2-6.62,6.25-10.24,6a2.68,2.68,0,0,1-1.85-.77,9.47,9.47,0,0,0-4.5-5.22,4.2,4.2,0,0,0-4.9,1.37c-3.29,4,6.24,16,8.93,12.6.38,8.22,3.29,11.21,6.06,13.18s11.56,6,13.75,7c1.92.83,6,1.19,8.07-.27,2.76-1.91,1.44-4.76,1.14-5.37s1.09-1.06,1.83-1.58c.95-.66-1.66-2.26-2.43-3.16.83,0,3.64-.37,4.06-1.25a10.55,10.55,0,0,1-.68-3.71c1-.11,5.07-.48,4.63-2C286,732,283,726.41,282.09,723.74Z"/><path id="_Trazado_133" data-name="&lt;Trazado&gt;" class="cls-26" d="M261.94,812.08c-3.79-4-3.62-19.17-5.72-22.07s-.19-21.77-1.75-24.51c-1.11-1.93.64-6.52-6.38-15.46-.22,0-6.36-5.41-6.58-5.44-3.54-.4-14.22,5.16-16.84,6.42l0,0a43.07,43.07,0,0,0-6.24,10.47c-2.16,5.81-7.68,24.9-11,41.85s-4.62,32.49-10.77,41.83-11.93,14.14-15.45,19.45c2.91,5.92,34.19,5.8,43.72,7.84,3.14.67,7.1,1.18,8.79,1.37,2.53-8,9.1-38.53,12.44-43.41,2.56-3.74,4.26-5.69,8.47-7.62,3.4-1.55,8-3.35,9.79-8.1C263.43,813.68,262.6,812.78,261.94,812.08Z"/><path id="_Trazado_134" data-name="&lt;Trazado&gt;" class="cls-28" d="M256,762.53c-10.91-12.85-16.28-12.58-21.1-13.12a20.36,20.36,0,0,0-10.27,1.7,35.13,35.13,0,0,1,4-4.41c3.57-.83,7.63-1.21,10.85,0a41.25,41.25,0,0,1,6.87,3.6A25.14,25.14,0,0,1,256,762.53Z"/><path id="_Trazado_135" data-name="&lt;Trazado&gt;" class="cls-29" d="M269,688.64c-8.84-4.13-21.23-3.57-27.89,4-7.34,3.58-11.11,12.12-10.55,22.33.36,6.58,6.86,20.75,13.48,23,.49.17,1.93-.7,2.58-7.64-2.44-3.08-7.52-7.91-4.38-11.75,2.81-3.43,7.44.62,8.55,3.44a2.68,2.68,0,0,0,1.85.77,9.72,9.72,0,0,0,5.22-1.63,22.75,22.75,0,0,1-3.16,6.25s.86.16,4.73-.8a16.27,16.27,0,0,0,6-2.72s-1.68,2.69-1.9,2.83,9.93-4.06,10.67-4.64-3.06,5.63-3.06,5.63a24.57,24.57,0,0,0,7.69-5.46,47.44,47.44,0,0,0,5.24-6.31s-1.06,5.64-1.3,6.07,4-3.41,5.37-9.14-.28-12-4.45-17.16C281.17,692.59,274.53,690.09,269,688.64Z"/><path id="_Trazado_136" data-name="&lt;Trazado&gt;" class="cls-28" d="M207,805.36c6,5.13,12.67,8.58,18.32,11.33,6.39,3.11,18.59,8.65,24,9.69,20.36-10.47,22.91-15.88,14.67-40.32-.15-.43-.32-.89-.5-1.38-1-2.54-2.5-5.77-3.47-8.32-1.35-3.57-1.51-9.87-3.2-14-3.18-7.86-10.7-12.76-11.74-12.56s4.35,5.82,4.37,5.85c7.25,19.44,6.2,44.34-19.1,39.3-15.48-2.83-16.1-12.44-17.73-25.17C209.64,771.24,208.15,786.18,207,805.36Z"/><path id="_Trazado_137" data-name="&lt;Trazado&gt;" class="cls-30" d="M225.31,816.68c-5.65-2.75-12.27-6.2-18.32-11.32-.46,2.39-.88,4.76-1.29,7.07a92.56,92.56,0,0,0,17.23,10.36c5.74,2.8,16.06,7.5,22.25,9.34a11.15,11.15,0,0,1,.92-1.7,29.17,29.17,0,0,1,3.2-4.06h0C243.89,825.34,231.7,819.8,225.31,816.68Z"/><path id="_Trazado_138" data-name="&lt;Trazado&gt;" class="cls-29" d="M232.44,719.75c-2,3-2.69,3-10.47,10.56-12.57,12.22-8.07,47.66-7.34,46.13,8.72-18.15,16.44-16.08,15.42-37.11-.44-9.1,6.77-15.17,6.77-15.17Z"/><path id="_Trazado_139" data-name="&lt;Trazado&gt;" class="cls-29" d="M213.26,763.53c.11,7.8,1.06,13.54,1.37,12.91,8.62-17.93,16.26-16.13,15.45-36.36-.86,2.61-2,5.76-3.22,8.52a77.21,77.21,0,0,1-4,8.46,36.33,36.33,0,0,1,.06-6.58c.34-4.32,4.33-20.62,4.87-21.09s-2.05,2.16-6.09,15.37-3.46,15.59-3.64,16.33-.13-1.91-.17-6.15,1.12-15.69,1.51-16.34a71.28,71.28,0,0,0-3.07,11.58c-1.86,9.37-1.29,19.45-1.33,20S214.76,769.24,213.26,763.53Z"/><path id="_Trazado_140" data-name="&lt;Trazado&gt;" class="cls-31" d="M231.77,720.72c-2.55.15-4.64,1.29-3.81,3.92s4.59,6,6.45,4.08S232.73,722.61,231.77,720.72Z"/><path id="_Trazado_141" data-name="&lt;Trazado&gt;" class="cls-32" d="M243.07,721.67c.16,1.42,3.18,6.1,4.55,6.82s2.32-1.66,2-2.92-2.2-.79-2.14-2,1-.78.71-2C247.24,717.11,242.82,719.48,243.07,721.67Z"/><path id="_Trazado_142" data-name="&lt;Trazado&gt;" class="cls-29" d="M257.34,718.56c-.83.75-3.47,1.11-3.49,8.4s1.09,13.14.39,10.24c-.51-2.08-6.5-19.25-1.55-18.19Z"/><path id="_Trazado_143" data-name="&lt;Trazado&gt;" class="cls-26" d="M169.05,947.51c-1,4.15-4.12,14.15-4.12,14.15-25.11-10.27-32.06-5.41-55.5.2-5.21,1.24-12,3.92-17.56,4.88-5.2.47-10.28.87-11.11,1.12-2.34.7-2.69,4-3.87,7.63S77,984,78.18,986.61a10.9,10.9,0,0,1,5.15,1,126.18,126.18,0,0,1,35.64-5c18.91.18,35.56-.25,40.48.65,7.81,1.43,18.72,4.2,26-3.06,5.91-5.85,12.7-12.89,15.81-19.32A119.87,119.87,0,0,1,169.05,947.51Z"/><path id="_Trazado_144" data-name="&lt;Trazado&gt;" class="cls-33" d="M185.49,890.33c-3.34,8.85-13.14,40.51-17.17,60.71,4,3.7,12.13,10.66,30.22,14.48,1.56-1.53,18.91-32.36,23.24-40.63C213.15,919.93,188.86,898.3,185.49,890.33Z"/><path id="_Trazado_145" data-name="&lt;Trazado&gt;" class="cls-34" d="M245.24,891.25c-4.76-5.48-10.74-14-10.46-21.37-7.33.14-36.22,0-52.69-7.17-19,22.47-2.77,53.11,20,65.61,16.48,9,44.67,27.28,51.9,30.18a55.85,55.85,0,0,0,25.49-26.81C275.31,925.95,252.45,899.54,245.24,891.25Z"/><path id="_Trazado_146" data-name="&lt;Trazado&gt;" class="cls-26" d="M328.27,1046.43c-12.32-7.79-31.18-64.17-31.3-77.72-.09-10.51-3-16.54-5.1-19.41-1.91-2.61-8.83-12.49-12.38-17.62-3.55,6.67-13.26,19.45-25.49,26.81,5.69,4,13.89,8.49,15.77,11.17,2.57,3.64,4,8.45,4.24,21.56s9.92,23.84,15.21,30.5,10,17.55,12.3,21.79c.92,1.69,3.89,11.79,3.92,11.81,2.22,2,8,3.81,12.6,2.78s9-5.52,11-8.4C328.51,1049.08,328.64,1048.53,328.27,1046.43Z"/><path id="_Trazado_147" data-name="&lt;Trazado&gt;" class="cls-28" d="M183.43,860.78a27.94,27.94,0,0,0-2.81,4c2.29,4.65,44.42,6.51,54.19,7.65a14.24,14.24,0,0,0,.66-5.16C229.47,867.6,184.2,861.24,183.43,860.78Z"/><path id="_Trazado_148" data-name="&lt;Trazado&gt;" class="cls-26" d="M161.93,862.61c-1.18-.2-2.56-.21-2.36-1.95a3.5,3.5,0,0,1-2.76,1.25,2.54,2.54,0,0,1-2.47-2.94,2.57,2.57,0,0,1-2.83,1.11c-1-.17-1.9-1.27-2.11-2.92a1.74,1.74,0,0,1-2.37.71c-.6-.24-1.09-.54-1.23-2.24,0-.22,0-.46,0-.74-.06-2.35,1.43-8.24,1.88-9.53.94-2.69,5.32-7.47,5.93-8.6,1.76-3.23-3.56-36.43,6.23-62.44,3.12-8.32,23.12-10.41,31-13,5.21-1.73,23.47-6.48,27-7.13s16-6.43,19.17-6.68c5.86-.46,14.44,1.45,17.59,5.82,4.33,6.05,4.87,14-2.62,19-3.1,2.08-5.81,2.67-13.71,4.8-2.45-.06-13.41.9-18.07,1.42-13,1.45-27.73,4.51-41.16,6.44-1.75.24-2.54,1.2-3.17,3.9-4.62,16.84-8.18,28.66-8.8,41.67.78,8.62,3.07,12.34,3.82,15.93.57,2.73,1.15,5.65.82,7-1.27,1.69-2.15,2.54-4.05,2-.58-.17-2.3,5.27-2.88,6.17A2.72,2.72,0,0,1,161.93,862.61Z"/><path id="_Trazado_149" data-name="&lt;Trazado&gt;" class="cls-28" d="M318.54,1054.23c-5.85,1.36-11.32-1.47-14.21-3-1.23-.65-1.66.52-1.53,1.9a31.34,31.34,0,0,0,3.58,10.82c1,1.65-1.4,4.89.71,5.48,9,2.51,68.18-11.27,59.06-22.44-6.22-3.12-27.86-3-38.22-6.39C325.16,1039.71,326.24,1052.44,318.54,1054.23Z"/><path id="_Trazado_150" data-name="&lt;Trazado&gt;" class="cls-35" d="M306.56,1064.39c.43,1.73-1.4,4.51.54,5,9,2.51,68.18-11.27,59.06-22.44l-.07,0a98,98,0,0,1-33.52,15.25C324,1064.4,307.68,1064.61,306.56,1064.39Z"/><path id="_Trazado_151" data-name="&lt;Trazado&gt;" class="cls-31" d="M318.54,1054.23c-5.85,1.36-11.32-1.47-14.21-3-1.23-.65-1.66.52-1.53,1.9,0,.23.05.48.09.75,3.14,1.49,8.65,3.72,11.87,3.81,4.59.14,10-1,12.14-5.71,1.86-4.12,3.47-8.78,3.52-10.69-.89-.21-1.72-.44-2.49-.69C325.16,1039.71,326.24,1052.44,318.54,1054.23Z"/><path id="_Trazado_152" data-name="&lt;Trazado&gt;" class="cls-28" d="M78.21,977.94c.77-5.11,4.75-8.59,6.89-10.42.91-.77.11-1.49-1-1.82a27,27,0,0,0-9.79-.56c-1.63.25-3.47-2.66-4.61-1.17-4.84,6.37-12.55,58.11-.73,54.34,4.47-4,11.25-21.33,17.2-28.55C87.73,987.83,77.2,984.66,78.21,977.94Z"/><path id="_Trazado_153" data-name="&lt;Trazado&gt;" class="cls-35" d="M73.87,965.15c-1.52-.2-3.16-2.54-4.21-1.17-4.84,6.37-12.55,58.11-.73,54.34l0,0a84.28,84.28,0,0,1-1.6-31.64C68.34,979.11,73.34,966,73.87,965.15Z"/><path id="_Trazado_154" data-name="&lt;Trazado&gt;" class="cls-31" d="M78.21,977.94c.77-5.11,4.75-8.59,6.89-10.42.91-.77.11-1.49-1-1.82l-.63-.16c-2.19,2-5.71,5.75-6.8,8.29-1.56,3.63-2.36,8.34.72,11.52,2.71,2.79,5.93,5.55,7.44,6.2.45-.64.9-1.24,1.34-1.77C87.73,987.83,77.2,984.66,78.21,977.94Z"/></g><g id="_Grupo_25" data-name="&lt;Grupo&gt;"><g id="_Grupo_26" data-name="&lt;Grupo&gt;"><g id="_Grupo_27" data-name="&lt;Grupo&gt;"><g id="_Grupo_28" data-name="&lt;Grupo&gt;"><path id="_Trazado_155" data-name="&lt;Trazado&gt;" class="cls-36" d="M872.74,749.1s25.07-62.31,18.8-70.87-26.05-9.13-29.29,16a322.51,322.51,0,0,1-10.49,48.62c-.62,2.28-51,48.35-51,48.35l6.58,4.27S871.26,755.45,872.74,749.1Z"/></g><path id="_Trazado_156" data-name="&lt;Trazado&gt;" class="cls-37" d="M802.58,792.38l57.85-44.75c1.39-4.36,14.28-45,16.14-59.58,1.49-11.68-.83-13.88-1.41-14.24a15.06,15.06,0,0,1,2.79-.72c1.72,2.67,2.12,7.8,1.17,15.29-2,15.63-15.78,58.6-16.36,60.42l-.12.38-57.77,44.69Z"/><path id="_Trazado_157" data-name="&lt;Trazado&gt;" class="cls-37" d="M868.52,746.77c1.19-3.71,10.72-33.42,15.38-50.89,3.16-11.87,2.22-18.83,1.22-22.17a14.28,14.28,0,0,1,3,1.41c.81,4.21,1,11.09-1.73,21.43-5,18.63-15.43,51.07-15.54,51.4l-.12.38-54.3,41.35c-5.51,3.52-9.11,5.77-9.11,5.77l-1.46-.95Z"/></g><g id="_Grupo_29" data-name="&lt;Grupo&gt;"><path id="_Trazado_158" data-name="&lt;Trazado&gt;" class="cls-38" d="M800.72,791.18s-9.94,4.47-10.88,6.85-3.22,11-1.79,12.5,10.84,3.35,13.84,1.93.32-10.48.69-10.84,4.72-6.16,4.72-6.16Z"/><path id="_Trazado_159" data-name="&lt;Trazado&gt;" class="cls-39" d="M804.31,799.41s-6.66-2.46-8.43-5.84c0,0-5.55,2-6.33,4.18s-3.92,11.91-1.43,13.69,13.05,3.14,14.9.43-.21-9.21-.14-9.81A13.51,13.51,0,0,1,804.31,799.41Z"/></g></g><g id="_Grupo_30" data-name="&lt;Grupo&gt;"><g id="_Grupo_31" data-name="&lt;Grupo&gt;"><rect id="_Trazado_160" data-name="&lt;Trazado&gt;" class="cls-40" x="930.67" y="897.74" width="6.66" height="41.66" transform="translate(-94.55 107.27) rotate(-6.26)"/><path id="_Trazado_161" data-name="&lt;Trazado&gt;" class="cls-41" d="M951.15,891.77a6.23,6.23,0,0,0-7-5.33l-26.87,3a6.06,6.06,0,1,0,1.32,12l26.87-2.95A6.23,6.23,0,0,0,951.15,891.77Z"/></g><g id="_Grupo_32" data-name="&lt;Grupo&gt;"><g id="_Grupo_33" data-name="&lt;Grupo&gt;"><g id="_Grupo_34" data-name="&lt;Grupo&gt;"><g id="_Grupo_35" data-name="&lt;Grupo&gt;"><rect id="_Trazado_162" data-name="&lt;Trazado&gt;" class="cls-42" x="808.27" y="825.13" width="165.15" height="8.78"/><polygon id="_Trazado_163" data-name="&lt;Trazado&gt;" class="cls-42" points="935.39 942.86 801.43 845.78 805.68 838.1 939.64 935.18 935.39 942.86"/></g><g id="_Grupo_36" data-name="&lt;Grupo&gt;"><polygon id="_Trazado_164" data-name="&lt;Trazado&gt;" class="cls-42" points="931.39 942.7 939.39 945.42 990.36 787.59 980.66 787.59 931.39 942.7"/><g id="_Grupo_37" data-name="&lt;Grupo&gt;"><path id="_Trazado_165" data-name="&lt;Trazado&gt;" class="cls-42" d="M1010,787.14s1.26-.88.48-2.94-2.92-6.25-10.66-6.5-18.93.94-26.9-.31-19.32-2-24.85-.88-7.34,3.88-4.89,5,9.46,1.9,17.51,2.65a53.12,53.12,0,0,1,16.81,4.37c4,1.63,4.66,2.63,8.21,2.44s9-3.18,13.73-3.68S1009.52,787.71,1010,787.14Z"/><path id="_Trazado_166" data-name="&lt;Trazado&gt;" class="cls-41" d="M943.17,781.55c2.45,1.15,9.46,1.9,17.51,2.65a53.12,53.12,0,0,1,16.81,4.37c4,1.63,4.66,2.63,8.21,2.44s9-3.18,13.73-3.68,10.1.39,10.57-.19a1.75,1.75,0,0,0,.38-.43l.09.22c.79,2.06-.48,2.93-.48,2.93-.47.58-5.83-.31-10.57.19s-10.18,3.5-13.73,3.69-4.18-.81-8.21-2.44a53.09,53.09,0,0,0-16.81-4.37c-8-.75-15.06-1.5-17.51-2.65-1.36-.64-1.4-1.78-.22-2.85Z"/></g></g></g><g id="_Grupo_38" data-name="&lt;Grupo&gt;"><path id="_Trazado_167" data-name="&lt;Trazado&gt;" class="cls-42" d="M764,939.69l51.48-148.85H780.1v0a8.45,8.45,0,0,0,0,16.9h0a4.93,4.93,0,1,1,0,9.86,18.31,18.31,0,0,1,0-36.61h36.47s4.19,0,6.63,2.55a7.22,7.22,0,0,1,2,7.27L772.66,941.7a4.45,4.45,0,1,1-8.64-2Z"/><path id="_Trazado_168" data-name="&lt;Trazado&gt;" class="cls-42" d="M761.79,799.32A18.33,18.33,0,0,1,780.1,781h13.53v9.82H780.1v0A8.44,8.44,0,0,0,779,807.69h14.65a5,5,0,0,1,0,9.94H778.88v-.06A18.32,18.32,0,0,1,761.79,799.32Z"/><path id="_Trazado_169" data-name="&lt;Trazado&gt;" class="cls-41" d="M793.63,790.84V781h22.93s4.19,0,6.63,2.55a7.22,7.22,0,0,1,2,7.27l-10.57,30.53h-9.54l10.41-30.53Z"/></g></g><g id="_Grupo_39" data-name="&lt;Grupo&gt;"><g id="_Grupo_40" data-name="&lt;Grupo&gt;"><g id="_Grupo_41" data-name="&lt;Grupo&gt;"><g id="_Grupo_42" data-name="&lt;Grupo&gt;"><g id="_Grupo_43" data-name="&lt;Grupo&gt;"><rect id="_Trazado_170" data-name="&lt;Trazado&gt;" class="cls-43" x="767.78" y="855.19" width="1" height="171.5"/></g><g id="_Grupo_44" data-name="&lt;Grupo&gt;"><polygon id="_Trazado_171" data-name="&lt;Trazado&gt;" class="cls-43" points="828.57 1001.93 707.29 880.66 708 879.95 829.27 1001.23 828.57 1001.93"/></g><g id="_Grupo_45" data-name="&lt;Grupo&gt;"><rect id="_Trazado_172" data-name="&lt;Trazado&gt;" class="cls-43" x="682.53" y="940.44" width="171.51" height="1"/></g><g id="_Grupo_46" data-name="&lt;Grupo&gt;"><polygon id="_Trazado_173" data-name="&lt;Trazado&gt;" class="cls-43" points="708 1001.93 707.29 1001.23 828.57 879.95 829.27 880.66 708 1001.93"/></g></g><g id="_Grupo_47" data-name="&lt;Grupo&gt;"><g id="_Grupo_48" data-name="&lt;Grupo&gt;"><rect id="_Trazado_174" data-name="&lt;Trazado&gt;" class="cls-43" x="682.53" y="940.44" width="171.5" height="1" transform="translate(-396.31 1286.43) rotate(-67.29)"/></g><g id="_Grupo_49" data-name="&lt;Grupo&gt;"><rect id="_Trazado_175" data-name="&lt;Trazado&gt;" class="cls-43" x="767.78" y="855.19" width="0.99" height="171.51" transform="translate(-299.07 360.94) rotate(-22.25)"/></g><g id="_Grupo_50" data-name="&lt;Grupo&gt;"><rect id="_Trazado_176" data-name="&lt;Trazado&gt;" class="cls-43" x="767.78" y="855.19" width="0.99" height="171.5" transform="translate(-396.57 1285.54) rotate(-67.25)"/></g><g id="_Grupo_51" data-name="&lt;Grupo&gt;"><rect id="_Trazado_177" data-name="&lt;Trazado&gt;" class="cls-43" x="682.53" y="940.44" width="171.5" height="0.99" transform="translate(-299.42 361.6) rotate(-22.28)"/></g></g></g><g id="_Grupo_52" data-name="&lt;Grupo&gt;"><path id="_Trazado_compuesto_15" data-name="&lt;Trazado compuesto&gt;" class="cls-42" d="M768.28,1027.37a86.43,86.43,0,1,1,86.43-86.43A86.53,86.53,0,0,1,768.28,1027.37Zm0-158.11A71.68,71.68,0,1,0,840,940.94,71.76,71.76,0,0,0,768.28,869.27Z"/></g><circle id="_Trazado_178" data-name="&lt;Trazado&gt;" class="cls-41" cx="768.28" cy="940.94" r="9.28"/><g id="_Grupo_53" data-name="&lt;Grupo&gt;"><path id="_Trazado_compuesto_16" data-name="&lt;Trazado compuesto&gt;" class="cls-41" d="M768.28,1032.66A91.72,91.72,0,1,1,860,940.94,91.83,91.83,0,0,1,768.28,1032.66Zm0-176.41A84.69,84.69,0,1,0,853,940.94,84.79,84.79,0,0,0,768.28,856.25Z"/></g></g><g id="_Grupo_54" data-name="&lt;Grupo&gt;"><g id="_Grupo_55" data-name="&lt;Grupo&gt;"><polygon id="_Trazado_179" data-name="&lt;Trazado&gt;" class="cls-41" points="942.47 965.28 942.22 963.31 1055.06 948.25 1055.32 950.23 942.47 965.28"/><rect id="_Trazado_180" data-name="&lt;Trazado&gt;" class="cls-41" x="996.02" y="867.16" width="2.98" height="115" transform="translate(-88.96 1742.94) rotate(-79.82)"/><g id="_Grupo_56" data-name="&lt;Grupo&gt;"><g id="_Grupo_57" data-name="&lt;Grupo&gt;"><path id="_Trazado_181" data-name="&lt;Trazado&gt;" class="cls-44" d="M912.36,933.93s7.79,2.77,13.95,1.21c-3.25-5.45-10.73-9-10.73-9l2.26-4.78h0l4.77-2.27s3.55,7.49,9,10.73c1.57-6.16-1.22-14-1.22-14l5-1.78h0l5,1.78s-2.78,7.79-1.22,13.94c5.45-3.26,9-10.72,9-10.72l4.78,2.26h0l2.27,4.77s-7.44,3.57-10.7,9c6.15,1.55,13.94-1.22,13.94-1.22l1.78,5h0l-1.78,5s-7.77-2.73-13.92-1.21c3.28,5.42,10.7,9,10.7,9l-2.26,4.77h0l-4.77,2.27s-3.58-7.42-9-10.69c-1.52,6.15,1.2,13.92,1.2,13.92l-5,1.78h0l-5-1.78s2.72-7.77,1.2-13.92c-5.42,3.27-9,10.7-9,10.7l-4.78-2.26h0l-2.27-4.78s7.46-3.55,10.71-9c-6.15-1.54-13.94,1.2-13.94,1.2l-1.78-5h0Z"/><g id="_Grupo_58" data-name="&lt;Grupo&gt;"><path id="_Trazado_compuesto_17" data-name="&lt;Trazado compuesto&gt;" class="cls-41" d="M935.39,966.21A27.19,27.19,0,1,1,962.58,939,27.22,27.22,0,0,1,935.39,966.21Zm0-50.41A23.21,23.21,0,1,0,958.6,939,23.24,23.24,0,0,0,935.39,915.81Z"/></g></g><g id="_Grupo_59" data-name="&lt;Grupo&gt;"><g id="_Grupo_60" data-name="&lt;Grupo&gt;"><polygon id="_Trazado_182" data-name="&lt;Trazado&gt;" class="cls-40" points="945.52 973.03 951.33 969.78 938.12 937.3 932.31 940.55 945.52 973.03"/><path id="_Trazado_183" data-name="&lt;Trazado&gt;" class="cls-41" d="M931.08,979.49a6.23,6.23,0,0,0,8.51,2.18l23.59-13.2a6.07,6.07,0,1,0-5.92-10.57l-23.59,13.2A6.23,6.23,0,0,0,931.08,979.49Z"/></g><circle id="_Trazado_184" data-name="&lt;Trazado&gt;" class="cls-41" cx="935.39" cy="939.02" r="5.09"/></g></g></g></g></g></g></g><g id="_Grupo_61" data-name="&lt;Grupo&gt;"><g id="_Grupo_62" data-name="&lt;Grupo&gt;"><g id="_Grupo_63" data-name="&lt;Grupo&gt;"><path id="_Trazado_185" data-name="&lt;Trazado&gt;" class="cls-38" d="M801.9,645.63s-.91,7.62,2,12.35c0,0-3.32,10.57-2.12,12.07s6.09,0,6.09,0,.15,3.79,1.22,4.71,3.81,0,3.81,0-2.9,3.51-1.22,4.73,2.29,1.42,2.59,5.14,11.93-5.48,15.9-3.8,14.46,5.63,14.46,5.63l8.09-21.76s-13-8.24-16.48-13.42-17.85-5.79-21.05-5.64S801.9,645.63,801.9,645.63Z"/><path id="_Trazado_186" data-name="&lt;Trazado&gt;" class="cls-45" d="M836.22,651.27c-3.51-5.19-17.85-5.79-21.05-5.64s-13.27,0-13.27,0c1.37-8.85,18.61-19.84,31.58-16.78s18.15,15.26,18.15,15.26c5,7.78,1.07,20.59,1.07,20.59S839.73,656.46,836.22,651.27Z"/><path id="_Trazado_187" data-name="&lt;Trazado&gt;" class="cls-38" d="M835.06,653.27s.67-6.64,4.69-6.48,7.54,6.16,2.23,12.27Z"/></g><g id="_Grupo_64" data-name="&lt;Grupo&gt;"><g id="_Grupo_65" data-name="&lt;Grupo&gt;"><g id="_Grupo_66" data-name="&lt;Grupo&gt;"><g id="_Grupo_67" data-name="&lt;Grupo&gt;"><path id="_Trazado_188" data-name="&lt;Trazado&gt;" class="cls-46" d="M860.84,620.75s-11.76,15.47-25.14,20.95a96.37,96.37,0,0,1-43.34,7.42s-1.61-8.35,3.87-18.28S821.36,604.15,860.84,620.75Z"/><path id="_Trazado_189" data-name="&lt;Trazado&gt;" class="cls-39" d="M858,624.19a6,6,0,0,1,2.86,6.07c-.48,4.35,4.51,8.06,3.38,12.41s-5,6-10.87,5.52a30.57,30.57,0,0,0-8.89-11.49S853.59,629.69,858,624.19Z"/><path id="_Trazado_190" data-name="&lt;Trazado&gt;" class="cls-47" d="M848.51,623.25S837,644,799.2,642.26c0,0,36.05-16.81,47.62-19.66Z"/><path id="_Trazado_191" data-name="&lt;Trazado&gt;" class="cls-47" d="M841.82,619.7s-26.26.24-43.43,19.82c0,0,25.53-15.15,46.93-18.21Z"/><path id="_Trazado_192" data-name="&lt;Trazado&gt;" class="cls-47" d="M838.12,616.08s-13.54,1.21-22.32,6.53S795.32,639,795.32,639,799.85,612.21,838.12,616.08Z"/><path id="_Trazado_193" data-name="&lt;Trazado&gt;" class="cls-47" d="M860.84,620.75s-1.62,2.13-4.33,5.08c-.28-.47-3.48-5.77-5.18-6.77s-12.54-4.62-12.89-4.73A89.37,89.37,0,0,1,860.84,620.75Z"/></g><path id="_Trazado_194" data-name="&lt;Trazado&gt;" class="cls-48" d="M860.56,627.37a6.6,6.6,0,0,1,.28,2.89c-.31,2.82,1.66,5.36,2.8,8-.44.69-2.26,3.22-5.05,2.24C855.36,639.36,855.69,631.41,860.56,627.37Z"/></g><g id="_Grupo_68" data-name="&lt;Grupo&gt;"><path id="_Trazado_compuesto_18" data-name="&lt;Trazado compuesto&gt;" class="cls-39" d="M838.12,666c-.73,4.81-8,14.79-8,14.79l3,1.21s7.15-13.37,8-14.94,12.25-18.91,12.25-18.91l-2.23-5.12H832.21l-5.12,1.76S838.84,661.22,838.12,666Zm-4.64-20.39L850,647.76c-1.76,3.14-6.4,11.15-8,11.31S835.76,650.2,833.48,645.64Z"/></g></g><g id="_Grupo_69" data-name="&lt;Grupo&gt;"><path id="_Trazado_compuesto_19" data-name="&lt;Trazado compuesto&gt;" class="cls-49" d="M802.58,655s2.22,7.87,6.75,10.4c0,0,8.54-8.34,10.37-10.61l16.12-4.2,1-2.26S818.75,650,816,650.36,802.89,654.06,802.58,655Zm16.21-3.42a17.54,17.54,0,0,1,3.53-.33c.46.2-2.94,2.22-2.94,2.22S820,651.87,818.79,651.54Z"/><g id="_Grupo_70" data-name="&lt;Grupo&gt;"><path id="_Trazado_195" data-name="&lt;Trazado&gt;" class="cls-50" d="M816.83,652.54s-11.5,2.7-12,3.66,2.44,6.54,3.48,6.71S819.36,652.8,816.83,652.54Z"/><g id="_Grupo_71" data-name="&lt;Grupo&gt;"><path id="_Trazado_196" data-name="&lt;Trazado&gt;" class="cls-51" d="M814.87,656.77,811,654c1-.28,2.08-.55,3-.78l2.36,1.66C815.92,655.48,815.43,656.11,814.87,656.77Z"/><path id="_Trazado_197" data-name="&lt;Trazado&gt;" class="cls-51" d="M807.89,654.91l5.32,3.74c-.56.6-1.12,1.17-1.67,1.7l-6.33-4.45A18.39,18.39,0,0,1,807.89,654.91Z"/><path id="_Trazado_198" data-name="&lt;Trazado&gt;" class="cls-51" d="M809.22,662.41c-.45.34-.78.53-.93.5-.47-.08-1.34-1.27-2.1-2.63Z"/></g></g></g></g></g><g id="_Grupo_72" data-name="&lt;Grupo&gt;"><g id="_Grupo_73" data-name="&lt;Grupo&gt;"><g id="_Grupo_74" data-name="&lt;Grupo&gt;"><g id="_Grupo_75" data-name="&lt;Grupo&gt;"><path id="_Trazado_199" data-name="&lt;Trazado&gt;" class="cls-52" d="M943.09,746.5l27.68,3.92c-4.26,16.51-61,43.8-68.54,47.35-5.25-1.56-24-7.47-33.7-14.92C877.56,772.34,943.09,746.5,943.09,746.5Z"/><g id="_Grupo_76" data-name="&lt;Grupo&gt;"><path id="_Trazado_200" data-name="&lt;Trazado&gt;" class="cls-53" d="M868.34,783.5a7,7,0,0,1,.5-.65c9.68,7.45,28.45,13.36,33.7,14.92l-.83.39c12.81,22.26,38.76,72.2,38.76,72.2l-13.16,4.3s-53.28-59.46-57.91-68C865.54,799.57,861.63,793.53,868.34,783.5Z"/></g></g><g id="_Grupo_77" data-name="&lt;Grupo&gt;"><g id="_Grupo_78" data-name="&lt;Grupo&gt;"><path id="_Trazado_201" data-name="&lt;Trazado&gt;" class="cls-46" d="M939.4,866.26a12.54,12.54,0,0,1,4.58,6c1.54,4.12,2.14,6.1,2.56,6.81,0,0,.24,1.18-5.69,2.83a113,113,0,0,0-20.12,8.23c-6.3,3.32-22.84,6.73-25.5-1,0,0-.1-2.36,3.52-3.66s9.42-2,15.42-7.88,7.06-10.61,9.22-10.11,1.4,4.78,9.42,4.1A7.7,7.7,0,0,0,939.4,866.26Z"/><path id="_Trazado_202" data-name="&lt;Trazado&gt;" class="cls-41" d="M895.22,889.07c2.66,7.77,19.2,4.37,25.5,1a113,113,0,0,1,20.12-8.23c5.92-1.66,5.69-2.83,5.69-2.83s1.18,2.33,1.32,2.87-.67,3.39-7.27,5.31-9.55,1.8-15.17,4-16.26,6.8-23.79,4.83C895.44,894.5,895.17,891.46,895.22,889.07Z"/><path id="_Trazado_203" data-name="&lt;Trazado&gt;" class="cls-54" d="M905.52,883.21h0a26,26,0,0,0,8.65-5.68c6-5.88,7.06-10.61,9.22-10.11.87.2,1.41,1.22,2.26,2.29h0l-2.07,3.56c-2.22,3-4.72,8.27-10.91,10.32S905.52,883.21,905.52,883.21Z"/><ellipse id="_Trazado_204" data-name="&lt;Trazado&gt;" class="cls-41" cx="922.87" cy="872.78" rx="0.82" ry="0.9" transform="translate(-193.38 266.63) rotate(-14.9)"/><path id="_Trazado_205" data-name="&lt;Trazado&gt;" class="cls-55" d="M923.21,872.34s-2.59-.84-3.2-2c0,0-.62-.23-.58.84a4.56,4.56,0,0,0,3.52,2.23S923.65,873.3,923.21,872.34Z"/><ellipse id="_Trazado_206" data-name="&lt;Trazado&gt;" class="cls-41" cx="919.53" cy="877.07" rx="0.82" ry="0.9" transform="translate(-194.55 265.84) rotate(-14.9)"/><path id="_Trazado_207" data-name="&lt;Trazado&gt;" class="cls-55" d="M919.87,876.64s-2.6-.84-3.2-2c0,0-.63-.23-.58.84a4.58,4.58,0,0,0,3.52,2.22S920.31,877.59,919.87,876.64Z"/><path id="_Trazado_208" data-name="&lt;Trazado&gt;" class="cls-41" d="M914.85,881.25a.91.91,0,0,0,.87.9.82.82,0,0,0,.79-.9.92.92,0,0,0-.87-.9A.83.83,0,0,0,914.85,881.25Z"/><path id="_Trazado_209" data-name="&lt;Trazado&gt;" class="cls-55" d="M916.11,880.92s-2.37-1.46-2.73-2.7c0,0-.57-.38-.75.66a4.84,4.84,0,0,0,3,3S916.34,881.95,916.11,880.92Z"/></g></g></g><g id="_Grupo_79" data-name="&lt;Grupo&gt;"><g id="_Grupo_80" data-name="&lt;Grupo&gt;"><path id="_Trazado_210" data-name="&lt;Trazado&gt;" class="cls-38" d="M919.32,837.14c-2,3.28-2.8,5.83-1.94,7.25,13.7,22.7,13.76,39.17,17,52.15s17,48.86,17,48.86l-13,6.88S895.22,868.81,882.6,842c-1.55-3.29,1-9.09,3.68-15.62C896,833.29,911,836.08,919.32,837.14Z"/><g id="_Grupo_81" data-name="&lt;Grupo&gt;"><path id="_Trazado_211" data-name="&lt;Trazado&gt;" class="cls-39" d="M919.32,837.14c-8.32-1.06-23.34-3.84-33-10.74,11.6-28.59,60-74.75,60-74.75,15,3.46,52.2-15.15,52.2-15.15,7.16,8,14.11,28.77-2.45,42-4.07,3.26-13.21,6.37-21,10.84C951.22,803.11,926.77,825.11,919.32,837.14Z"/></g></g><g id="_Grupo_82" data-name="&lt;Grupo&gt;"><g id="_Grupo_83" data-name="&lt;Grupo&gt;"><path id="_Trazado_212" data-name="&lt;Trazado&gt;" class="cls-46" d="M950.16,941.53a13.63,13.63,0,0,1,6.18,5.36c2.54,4,3.62,6,4.22,6.69,0,0,.51,1.2-5.43,4.26A122.64,122.64,0,0,0,935.52,971c-6,4.91-22.83,12.16-27.37,4.47,0,0-.63-2.49,2.94-4.66s9.59-4.2,14.68-11.77,5.19-12.83,7.59-12.78,2.54,4.78,10.92,2.3A8.36,8.36,0,0,0,950.16,941.53Z"/><path id="_Trazado_213" data-name="&lt;Trazado&gt;" class="cls-41" d="M908.15,975.48c4.54,7.69,21.39.44,27.37-4.47a122.64,122.64,0,0,1,19.61-13.17c5.94-3.06,5.43-4.26,5.43-4.26s1.77,2.22,2,2.76,0,3.76-6.57,7.25-9.77,4-15.26,7.61S924.95,982,916.5,981.56C909.58,981.21,908.62,978,908.15,975.48Z"/><path id="_Trazado_214" data-name="&lt;Trazado&gt;" class="cls-54" d="M917.82,967h0a28.19,28.19,0,0,0,8-7.94c5.09-7.57,5.19-12.83,7.59-12.78,1,0,1.76,1,2.91,1.94h0l-1.42,4.25c-1.72,3.64-3.21,9.84-9.35,13.37S917.82,967,917.82,967Z"/><ellipse id="_Trazado_215" data-name="&lt;Trazado&gt;" class="cls-41" cx="934" cy="952.09" rx="0.89" ry="0.98" transform="translate(-327.03 517.78) rotate(-26.55)"/><path id="_Trazado_216" data-name="&lt;Trazado&gt;" class="cls-55" d="M934.27,951.55s-2.94-.32-3.84-1.39c0,0-.72-.11-.43,1a5,5,0,0,0,4.23,1.6S934.95,952.47,934.27,951.55Z"/><ellipse id="_Trazado_217" data-name="&lt;Trazado&gt;" class="cls-41" cx="931.39" cy="957.39" rx="0.89" ry="0.98" transform="translate(-329.05 515.38) rotate(-26.46)"/><path id="_Trazado_218" data-name="&lt;Trazado&gt;" class="cls-55" d="M931.66,956.85s-2.95-.32-3.84-1.38c0,0-.72-.11-.44,1a5,5,0,0,0,4.23,1.6S932.34,957.77,931.66,956.85Z"/><path id="_Trazado_219" data-name="&lt;Trazado&gt;" class="cls-41" d="M927.32,962.86a1,1,0,0,0,1.12.77.9.9,0,0,0,.64-1.13,1,1,0,0,0-1.12-.76A.9.9,0,0,0,927.32,962.86Z"/><path id="_Trazado_220" data-name="&lt;Trazado&gt;" class="cls-55" d="M928.59,962.23s-2.84-1-3.5-2.27c0,0-.68-.28-.66.86a5.26,5.26,0,0,0,3.84,2.57S929.06,963.28,928.59,962.23Z"/></g></g></g></g><g id="_Grupo_84" data-name="&lt;Grupo&gt;"><g id="_Grupo_85" data-name="&lt;Grupo&gt;"><path id="_Trazado_221" data-name="&lt;Trazado&gt;" class="cls-46" d="M852.7,664.69s52.89,1.75,77.52,9.05c30.79,9.13,63.95,30.81,68.22,62.76,0,0-19.71,19.36-52.2,15.15,0,0-4.13-11.73-20.56-20-18.92-9.57-69.2-4.28-81.06-45.17Z"/><g id="_Grupo_86" data-name="&lt;Grupo&gt;"><path id="_Trazado_222" data-name="&lt;Trazado&gt;" class="cls-56" d="M849.23,674l1.24-3.33a331.86,331.86,0,0,1,42,6.58c32.46,7.3,86.56,25.69,93.1,67.8q-1.53.73-3.25,1.44c-5.59-40.77-58.79-58.75-90.6-65.9A327.26,327.26,0,0,0,849.23,674Z"/><path id="_Trazado_223" data-name="&lt;Trazado&gt;" class="cls-56" d="M849.64,672.91c29.3,5.57,67.58,18.4,93.17,47.91,11,12.65,16.05,24.22,18.25,30.63-1.17.09-2.36.16-3.58.2a92.35,92.35,0,0,0-17.26-28.59c-25.12-29-63-41.49-91.79-46.9Z"/></g></g><path id="_Trazado_224" data-name="&lt;Trazado&gt;" class="cls-24" d="M852.7,664.69s52.89,1.75,77.52,9.05c30.79,9.13,63.95,30.81,68.22,62.76a29.58,29.58,0,0,1-3.17,2.73c-3.17-14.29-23.06-67.5-143.62-71.73Z"/></g><g id="_Grupo_87" data-name="&lt;Grupo&gt;"><g id="_Grupo_88" data-name="&lt;Grupo&gt;"><g id="_Grupo_89" data-name="&lt;Grupo&gt;"><path id="_Trazado_225" data-name="&lt;Trazado&gt;" class="cls-57" d="M855.81,754.85s25.07-62.32,18.8-70.87-26.05-9.13-29.29,16a322.39,322.39,0,0,1-10.49,48.62c-.62,2.28-51,48.35-51,48.35l6.58,4.27S854.33,761.2,855.81,754.85Z"/></g><path id="_Trazado_226" data-name="&lt;Trazado&gt;" class="cls-46" d="M785.66,798.13l57.85-44.75c1.39-4.36,14.27-45,16.14-59.58,1.49-11.68-.83-13.89-1.41-14.24a15,15,0,0,1,2.79-.72c1.72,2.67,2.12,7.8,1.17,15.29-2,15.63-15.78,58.6-16.36,60.42l-.12.38-57.77,44.69Z"/><path id="_Trazado_227" data-name="&lt;Trazado&gt;" class="cls-46" d="M851.6,752.52c1.19-3.71,10.72-33.42,15.38-50.89,3.16-11.87,2.22-18.83,1.22-22.17a14.32,14.32,0,0,1,3,1.41c.81,4.21,1,11.09-1.73,21.43-5,18.63-15.43,51.08-15.54,51.4l-.12.38-54.3,41.35c-5.51,3.52-9.11,5.77-9.11,5.77l-1.46-.95Z"/></g><g id="_Grupo_90" data-name="&lt;Grupo&gt;"><path id="_Trazado_228" data-name="&lt;Trazado&gt;" class="cls-38" d="M783.8,796.92s-9.94,4.47-10.88,6.85-3.22,11-1.79,12.5S782,819.62,785,818.2s.32-10.48.69-10.84,4.72-6.16,4.72-6.16Z"/><path id="_Trazado_229" data-name="&lt;Trazado&gt;" class="cls-39" d="M787.39,805.16s-6.66-2.46-8.43-5.84c0,0-5.54,2-6.33,4.18s-3.92,11.91-1.43,13.69,13.05,3.14,14.91.43-.21-9.21-.14-9.81A13.46,13.46,0,0,1,787.39,805.16Z"/></g></g></g></g></g><rect class="cls-58" x="321" y="313" width="298" height="91" rx="13.63" ry="13.63"/><path class="cls-59" d="M374.43,341.39h3v25.3h-3Z"/><path class="cls-59" d="M382.49,348.26h2.17l.36,2.1a6.91,6.91,0,0,1,5.78-2.46c4.23,0,6.9,2.17,6.9,6.72V366.7h-2.78V354.44c0-2.86-1.81-4.12-4.7-4.12s-4.92,1.45-4.92,4.3V366.7h-2.82Z"/><path class="cls-59" d="M402.27,354.8c0-4.48,2.67-6.9,6.9-6.9a6.81,6.81,0,0,1,5.78,2.53l.36-2.17h2.17v19.05c0,4.52-2.93,7-7.7,7s-7.52-2.39-7.52-6.54v0H405v.22c0,2.46,1.77,3.94,4.74,3.94s4.88-1.55,4.88-4.37v-3.43a6.88,6.88,0,0,1-5.49,2.28c-4.23,0-6.9-2.46-6.9-6.94Zm2.78,4.77c0,2.78,1.81,4.34,4.74,4.34s4.88-1.63,4.88-4.52V354.8c0-2.86-1.92-4.48-4.92-4.48s-4.7,1.52-4.7,4.3Z"/><path class="cls-59" d="M422.55,348.26h2.17l.4,2.31a7.17,7.17,0,0,1,7.37-2.42v2.53c-4.34-.8-7.12,1-7.12,3.94V366.7h-2.82Z"/><path class="cls-59" d="M450.13,361c-.22,3.87-3,6.07-7.52,6.07-4.7,0-7.66-2.46-7.66-7V354.8c0-4.55,3-6.9,7.63-6.9s7.59,2.35,7.59,6.9v3.47H437.73v2c0,2.71,1.74,4.37,4.88,4.37s4.59-1.52,4.74-3.65Zm-12.4-5h9.62v-1.41c0-2.86-1.88-4.3-4.77-4.3s-4.84,1.45-4.84,4.3Z"/><path class="cls-59" d="M463.4,359l-3.83-.76c-3.11-.61-5.06-2.24-5.06-5.06,0-3.47,2.46-5.24,7.19-5.24s7.12,1.88,7.12,5.6v.29H466v-.18c0-2.28-1.34-3.4-4.3-3.4s-4.41,1-4.41,2.86c0,1.52.94,2.39,2.93,2.78l3.87.76c3.15.61,5.1,2.24,5.1,5,0,3.61-2.82,5.42-7.52,5.42s-7.52-1.88-7.52-5.64v-.29h2.78v.22c0,2.28,1.74,3.36,4.74,3.36s4.7-1,4.7-3C466.36,360.19,465.35,359.32,463.4,359Z"/><path class="cls-59" d="M479.34,355.92a7.76,7.76,0,0,1,5.6,1.84v-3.54c0-2.67-1.7-4-4.41-4s-4.3,1-4.3,3.58h-2.82c0-4,2.57-5.89,7.12-5.89,4.37,0,7.19,2.13,7.19,6.51V366.7h-2.17l-.33-2c-1.19,1.52-3.29,2.31-5.93,2.31-4.12,0-6.8-1.77-6.8-5.57S475.19,355.92,479.34,355.92Zm.69,8.71c2.89,0,4.92-1.12,4.92-3.25s-2-3.22-4.92-3.22-4.7.94-4.7,3.22S477.14,364.64,480,364.64Z"/><path class="cls-59" d="M509.31,355.92a7.76,7.76,0,0,1,5.6,1.84v-3.54c0-2.67-1.7-4-4.41-4s-4.3,1-4.3,3.58h-2.82c0-4,2.57-5.89,7.12-5.89,4.37,0,7.19,2.13,7.19,6.51V366.7h-2.17l-.33-2c-1.19,1.52-3.29,2.31-5.93,2.31-4.12,0-6.8-1.77-6.8-5.57S505.16,355.92,509.31,355.92Zm.69,8.71c2.89,0,4.92-1.12,4.92-3.25s-2-3.22-4.92-3.22-4.7.94-4.7,3.22S507.11,364.64,510,364.64Z"/><path class="cls-59" d="M534.66,364.78a6.87,6.87,0,0,1-5.49,2.28c-4.23,0-6.9-2.46-6.9-6.94V354.8c0-4.48,2.67-6.9,6.9-6.9a6.81,6.81,0,0,1,5.78,2.53l.36-2.17h2.17v25.67h-2.82ZM525,360.3c0,2.78,1.81,4.34,4.74,4.34s4.88-1.63,4.88-4.52V354.8c0-2.86-1.92-4.48-4.92-4.48s-4.7,1.52-4.7,4.3Z"/><path class="cls-59" d="M557.69,366.7h-2.17l-.36-2.1a7,7,0,0,1-5.78,2.46c-4.23,0-6.9-2.17-6.9-6.76v-12h2.82v12.22c0,2.89,1.81,4.16,4.7,4.16s4.92-1.45,4.92-4.34v-12h2.78Z"/><path class="cls-59" d="M562.68,345.73l3.65-5.78h3L565,345.73Zm.07,2.53h2.82V366.7h-2.82Z"/></g><g id="_Grupo_91" data-name="&lt;Grupo&gt;"><g id="_Grupo_92" data-name="&lt;Grupo&gt;"><g id="_Grupo_93" data-name="&lt;Grupo&gt;"><g id="_Grupo_94" data-name="&lt;Grupo&gt;"><g id="_Grupo_95" data-name="&lt;Grupo&gt;"><path id="_Trazado_compuesto_20" data-name="&lt;Trazado compuesto&gt;" class="cls-59" d="M422.08,543.92l.9-.08a2,2,0,0,0,.3.89,1.64,1.64,0,0,0,.73.56,2.77,2.77,0,0,0,1.11.21,2.67,2.67,0,0,0,1-.16,1.35,1.35,0,0,0,.62-.45,1,1,0,0,0,.21-.62.94.94,0,0,0-.2-.6,1.46,1.46,0,0,0-.65-.43,12.88,12.88,0,0,0-1.29-.35,6.57,6.57,0,0,1-1.4-.45,2,2,0,0,1-.77-.67,1.65,1.65,0,0,1-.25-.9,1.84,1.84,0,0,1,.31-1,1.92,1.92,0,0,1,.91-.72,3.44,3.44,0,0,1,1.33-.25,3.62,3.62,0,0,1,1.42.26,2,2,0,0,1,.95.76,2.19,2.19,0,0,1,.36,1.14l-.92.07a1.48,1.48,0,0,0-.5-1,2,2,0,0,0-1.26-.35,2,2,0,0,0-1.27.32,1,1,0,0,0-.4.77.82.82,0,0,0,.28.64A3.81,3.81,0,0,0,425,542a9.58,9.58,0,0,1,1.6.46,2.2,2.2,0,0,1,.93.74,1.8,1.8,0,0,1,.3,1,2,2,0,0,1-.33,1.09,2.19,2.19,0,0,1-1,.8,3.32,3.32,0,0,1-1.4.28,4.17,4.17,0,0,1-1.65-.29,2.31,2.31,0,0,1-1-.86A2.44,2.44,0,0,1,422.08,543.92Z"/><path id="_Trazado_compuesto_21" data-name="&lt;Trazado compuesto&gt;" class="cls-59" d="M429.18,546.25V539h5.24v.85h-4.28v2.22h4v.85h-4v2.46h4.45v.85Z"/><path id="_Trazado_compuesto_22" data-name="&lt;Trazado compuesto&gt;" class="cls-59" d="M441.07,543.71l1,.24a3.22,3.22,0,0,1-1.08,1.8,3,3,0,0,1-1.91.62,3.44,3.44,0,0,1-1.9-.48,3,3,0,0,1-1.12-1.38,4.93,4.93,0,0,1-.38-1.94,4.27,4.27,0,0,1,.43-2,3,3,0,0,1,1.23-1.28,3.59,3.59,0,0,1,1.76-.44,3,3,0,0,1,1.83.55,2.88,2.88,0,0,1,1,1.56l-.94.22a2.24,2.24,0,0,0-.73-1.15,2,2,0,0,0-1.21-.36,2.33,2.33,0,0,0-1.4.4,2.11,2.11,0,0,0-.79,1.07,4.32,4.32,0,0,0-.23,1.39,4.42,4.42,0,0,0,.27,1.61,2,2,0,0,0,.84,1,2.35,2.35,0,0,0,1.23.34,2.06,2.06,0,0,0,1.36-.46A2.38,2.38,0,0,0,441.07,543.71Z"/><path id="_Trazado_compuesto_23" data-name="&lt;Trazado compuesto&gt;" class="cls-59" d="M443.22,546.25V539h3.21a4.27,4.27,0,0,1,1.47.2,1.61,1.61,0,0,1,.81.69A2.06,2.06,0,0,1,449,541a1.82,1.82,0,0,1-.5,1.3.86.86,0,1,0-1,1,4.94,4.94,0,0,1,.8,1l1.26,2H448.4l-1-1.51q-.42-.65-.69-1a2.18,2.18,0,0,0-.49-.48,1.45,1.45,0,0,0-.44-.19,2.8,2.8,0,0,0-.53,0h-1.11v3.22Zm1-4h2.06a3.06,3.06,0,0,0,1-.14,1.09,1.09,0,0,0,.56-.43A1.18,1.18,0,0,0,448,541a1.08,1.08,0,0,0-.37-.84,1.75,1.75,0,0,0-1.18-.33h-2.29Z"/><path id="_Trazado_compuesto_24" data-name="&lt;Trazado compuesto&gt;" class="cls-59" d="M450.54,546.25V539h5.24v.85h-4.28v2.22h4v.85h-4v2.46h4.45v.85Z"/><path id="_Trazado_compuesto_25" data-name="&lt;Trazado compuesto&gt;" class="cls-59" d="M459.11,546.25v-6.39h-2.39V539h5.74v.85h-2.4v6.39Z"/><path id="_Trazado_compuesto_26" data-name="&lt;Trazado compuesto&gt;" class="cls-59" d="M461.9,546.25l2.78-7.24h1l3,7.24h-1.09l-.84-2.19h-3l-.8,2.19Zm2.09-3h2.46l-.76-2q-.35-.91-.51-1.5a9.24,9.24,0,0,1-.39,1.38Z"/><path id="_Trazado_compuesto_27" data-name="&lt;Trazado compuesto&gt;" class="cls-59" d="M469.45,546.25V539h3.21a4.27,4.27,0,0,1,1.47.2,1.61,1.61,0,0,1,.81.69,2.06,2.06,0,0,1,.3,1.09,1.82,1.82,0,0,1-.5,1.3.86.86,0,1,0-1,1,4.94,4.94,0,0,1,.8,1l1.26,2h-1.21l-1-1.51q-.42-.65-.69-1a2.18,2.18,0,0,0-.49-.48,1.45,1.45,0,0,0-.44-.19,2.8,2.8,0,0,0-.53,0h-1.11v3.22Zm1-4h2.06a3.06,3.06,0,0,0,1-.14,1.09,1.09,0,0,0,.56-.43,1.18,1.18,0,0,0,.19-.65,1.08,1.08,0,0,0-.37-.84,1.75,1.75,0,0,0-1.18-.33h-2.29Z"/><path id="_Trazado_compuesto_28" data-name="&lt;Trazado compuesto&gt;" class="cls-59" d="M476.66,538.57l.66-1.38h1.17l-1.09,1.38Zm.25,7.69V539h1v7.24Z"/><path id="_Trazado_compuesto_29" data-name="&lt;Trazado compuesto&gt;" class="cls-59" d="M478.76,546.25l2.78-7.24h1l3,7.24h-1.09l-.84-2.19h-3l-.8,2.19Zm2.09-3h2.46l-.76-2q-.35-.91-.51-1.5a9.24,9.24,0,0,1-.39,1.38Z"/><path id="_Trazado_compuesto_30" data-name="&lt;Trazado compuesto&gt;" class="cls-59" d="M488.55,546.25V539H491a6,6,0,0,1,1.29.1,2.46,2.46,0,0,1,1.06.52,3,3,0,0,1,.86,1.24,4.87,4.87,0,0,1,.28,1.72,5.06,5.06,0,0,1-.19,1.46,3.56,3.56,0,0,1-.49,1.05,2.62,2.62,0,0,1-.66.66,2.68,2.68,0,0,1-.86.36,4.92,4.92,0,0,1-1.16.12Zm1-.85h1.55a3.73,3.73,0,0,0,1.12-.13,1.6,1.6,0,0,0,.65-.38,2.28,2.28,0,0,0,.53-.92,4.47,4.47,0,0,0,.19-1.4,3.36,3.36,0,0,0-.37-1.75,1.88,1.88,0,0,0-.91-.82,3.75,3.75,0,0,0-1.24-.15h-1.52Z"/><path id="_Trazado_compuesto_31" data-name="&lt;Trazado compuesto&gt;" class="cls-59" d="M495.88,546.25V539h5.24v.85h-4.28v2.22h4v.85h-4v2.46h4.45v.85Z"/><path id="_Trazado_compuesto_32" data-name="&lt;Trazado compuesto&gt;" class="cls-59" d="M505.09,543.92l.9-.08a2,2,0,0,0,.3.89,1.64,1.64,0,0,0,.73.56,2.77,2.77,0,0,0,1.11.21,2.67,2.67,0,0,0,1-.16,1.35,1.35,0,0,0,.62-.45,1,1,0,0,0,.21-.62.94.94,0,0,0-.2-.6,1.46,1.46,0,0,0-.65-.43,12.88,12.88,0,0,0-1.29-.35,6.57,6.57,0,0,1-1.4-.45,2,2,0,0,1-.77-.67,1.65,1.65,0,0,1-.25-.9,1.84,1.84,0,0,1,.31-1,1.92,1.92,0,0,1,.91-.72,3.44,3.44,0,0,1,1.33-.25,3.62,3.62,0,0,1,1.42.26,2,2,0,0,1,.95.76,2.19,2.19,0,0,1,.36,1.14l-.92.07a1.48,1.48,0,0,0-.5-1,2,2,0,0,0-1.26-.35,2,2,0,0,0-1.27.32,1,1,0,0,0-.4.77.82.82,0,0,0,.28.64A3.81,3.81,0,0,0,508,542a9.58,9.58,0,0,1,1.6.46,2.2,2.2,0,0,1,.93.74,1.8,1.8,0,0,1,.3,1,2,2,0,0,1-.33,1.09,2.19,2.19,0,0,1-1,.8,3.32,3.32,0,0,1-1.4.28,4.17,4.17,0,0,1-1.65-.29,2.31,2.31,0,0,1-1-.86A2.44,2.44,0,0,1,505.09,543.92Z"/><path id="_Trazado_compuesto_33" data-name="&lt;Trazado compuesto&gt;" class="cls-59" d="M511.37,546.25l2.78-7.24h1l3,7.24h-1.09l-.84-2.19h-3l-.8,2.19Zm2.09-3h2.46l-.76-2q-.35-.91-.51-1.5a9.24,9.24,0,0,1-.39,1.38Z"/><path id="_Trazado_compuesto_34" data-name="&lt;Trazado compuesto&gt;" class="cls-59" d="M518.87,546.25V539h1v6.39h3.57v.85Z"/><path id="_Trazado_compuesto_35" data-name="&lt;Trazado compuesto&gt;" class="cls-59" d="M529.29,539h1v4.18a5,5,0,0,1-.25,1.73,2.12,2.12,0,0,1-.89,1,3.16,3.16,0,0,1-1.69.4,3.48,3.48,0,0,1-1.66-.35,2,2,0,0,1-.92-1,4.83,4.83,0,0,1-.28-1.82V539h1v4.18a4.07,4.07,0,0,0,.18,1.39,1.33,1.33,0,0,0,.6.69,2.09,2.09,0,0,0,1,.24,2,2,0,0,0,1.51-.48,2.76,2.76,0,0,0,.45-1.84Z"/><path id="_Trazado_compuesto_36" data-name="&lt;Trazado compuesto&gt;" class="cls-59" d="M531.84,546.25V539h2.49a6,6,0,0,1,1.29.1,2.46,2.46,0,0,1,1.06.52,3,3,0,0,1,.86,1.24,4.87,4.87,0,0,1,.28,1.72,5.06,5.06,0,0,1-.19,1.46,3.56,3.56,0,0,1-.49,1.05,2.62,2.62,0,0,1-.66.66,2.68,2.68,0,0,1-.86.36,4.92,4.92,0,0,1-1.16.12Zm1-.85h1.55a3.73,3.73,0,0,0,1.12-.13,1.6,1.6,0,0,0,.65-.38,2.28,2.28,0,0,0,.53-.92,4.47,4.47,0,0,0,.19-1.4,3.36,3.36,0,0,0-.37-1.75,1.88,1.88,0,0,0-.91-.82,3.75,3.75,0,0,0-1.24-.15H532.8Z"/></g></g></g></g><g id="_Grupo_96" data-name="&lt;Grupo&gt;"><g id="_Grupo_97" data-name="&lt;Grupo&gt;"><g id="_Grupo_98" data-name="&lt;Grupo&gt;"><rect id="_Trazado_230" data-name="&lt;Trazado&gt;" class="cls-59" x="463.18" y="440.78" width="1.54" height="86.13"/><path id="_Trazado_compuesto_37" data-name="&lt;Trazado compuesto&gt;" class="cls-59" d="M489.78,480.54c1.07,0,1.71-.37,1.71-1.19v0c0-.74-.55-1.19-1.79-1.19h-2.79v2.41Zm-.64-4.42c1.07,0,1.74-.34,1.74-1.16v0c0-.72-.56-1.13-1.58-1.13h-2.38v2.32Zm-4.57-3.23a1.2,1.2,0,0,1,1.21-1.21h3.88a4,4,0,0,1,2.87,1,2.51,2.51,0,0,1,.75,1.86v0a2.55,2.55,0,0,1-1.44,2.37,2.68,2.68,0,0,1,2.05,2.69v0c0,2-1.63,3-4.1,3h-4a1.2,1.2,0,0,1-1.21-1.21Z"/><path id="_Trazado_compuesto_38" data-name="&lt;Trazado compuesto&gt;" class="cls-59" d="M506.94,475.49v0a4.38,4.38,0,0,0-4.37-4.53,4.31,4.31,0,0,0-4.32,4.49v0a4.38,4.38,0,0,0,4.36,4.53,4.31,4.31,0,0,0,4.32-4.49m-12,0v0a7.66,7.66,0,0,1,15.31,0v0a7.66,7.66,0,0,1-15.31,0"/><path id="_Trazado_231" data-name="&lt;Trazado&gt;" class="cls-59" d="M511.79,473.62v-.05a9.33,9.33,0,0,1,9.53-9.4,10.06,10.06,0,0,1,6.2,1.77,2,2,0,0,1,.83,1.61,2,2,0,0,1-2,2,2,2,0,0,1-1.22-.41,6.36,6.36,0,0,0-4-1.25,5.46,5.46,0,0,0-5.22,5.66v.05a5.45,5.45,0,0,0,5.5,5.76,6.39,6.39,0,0,0,3.76-1.09v-2.6h-2.7a1.72,1.72,0,0,1-1.74-1.71,1.74,1.74,0,0,1,1.74-1.74h4.57a2,2,0,0,1,2,2v4.41a2.71,2.71,0,0,1-1.4,2.54,12.08,12.08,0,0,1-6.36,1.82c-5.66,0-9.55-4-9.55-9.34"/><path id="_Trazado_compuesto_39" data-name="&lt;Trazado compuesto&gt;" class="cls-59" d="M548.77,471.6v-.06a6.76,6.76,0,0,0-6.74-7,6.65,6.65,0,0,0-6.67,6.92v.06a6.76,6.76,0,0,0,6.74,7,6.65,6.65,0,0,0,6.67-6.93m-18.53,0v-.06a11.83,11.83,0,0,1,23.64-.06v.06a11.83,11.83,0,0,1-23.64.06"/><path id="_Trazado_232" data-name="&lt;Trazado&gt;" class="cls-59" d="M559.72,461.43h-5.63a2.7,2.7,0,0,1,0-5.4h17.12a2.7,2.7,0,1,1,0,5.4h-5.63V480a2.93,2.93,0,0,1-5.86,0Z"/><path id="_Trazado_compuesto_40" data-name="&lt;Trazado compuesto&gt;" class="cls-59" d="M583.91,447.53a2.51,2.51,0,0,1,.45-1.21l2.46-3.85a2.92,2.92,0,0,1,2.55-1.52c1.66,0,3.8,1,3.8,2.06a2.21,2.21,0,0,1-.9,1.61l-2.77,2.6a5,5,0,0,1-3.89,1.48c-1,0-1.7-.45-1.7-1.16m6.18,22-4.34-10.34-4.34,10.34Zm-19.38,8.68,10.92-24.66a4.26,4.26,0,0,1,4-2.73h.4a4.2,4.2,0,0,1,4,2.73L601,478.23a3.4,3.4,0,0,1,.36,1.39,3.27,3.27,0,0,1-3.27,3.31,3.51,3.51,0,0,1-3.31-2.37l-2.1-4.92H578.86l-2.19,5.15a3.38,3.38,0,0,1-3.18,2.15,3.17,3.17,0,0,1-3.18-3.22,3.64,3.64,0,0,1,.4-1.48"/><path id="_Trazado_233" data-name="&lt;Trazado&gt;" class="cls-59" d="M484.54,489.63a2.53,2.53,0,0,1,2.55-2.55h.56A2.62,2.62,0,0,1,490,488.4l6.16,10,6.2-10.07a2.5,2.5,0,0,1,2.29-1.29h.56a2.53,2.53,0,0,1,2.55,2.55V508a2.53,2.53,0,1,1-5.07,0V496.49l-4.47,6.89a2.38,2.38,0,0,1-4.24,0l-4.41-6.79v11.53A2.49,2.49,0,0,1,487,510.6a2.46,2.46,0,0,1-2.48-2.48Z"/><path id="_Trazado_234" data-name="&lt;Trazado&gt;" class="cls-59" d="M513.3,507.85V489.76a2.53,2.53,0,0,1,2.55-2.55H528.7a2.29,2.29,0,0,1,2.29,2.29,2.26,2.26,0,0,1-2.29,2.25H518.37v4.7h8.84a2.29,2.29,0,0,1,2.29,2.29,2.26,2.26,0,0,1-2.29,2.25h-8.84v4.87h10.5a2.29,2.29,0,0,1,2.29,2.29,2.26,2.26,0,0,1-2.29,2.25h-13a2.53,2.53,0,0,1-2.55-2.55"/><path id="_Trazado_235" data-name="&lt;Trazado&gt;" class="cls-59" d="M534.63,508.71a2.54,2.54,0,0,1-1-2,2.42,2.42,0,0,1,2.42-2.45,2.3,2.3,0,0,1,1.52.53A4.89,4.89,0,0,0,540.7,506c2,0,3.18-1.16,3.18-3.84V489.56a2.55,2.55,0,0,1,5.1,0v12.82a8.43,8.43,0,0,1-2.19,6.2,8.29,8.29,0,0,1-6,2.15,9.81,9.81,0,0,1-6.13-2"/><path id="_Trazado_compuesto_41" data-name="&lt;Trazado compuesto&gt;" class="cls-59" d="M572.47,498.87v-.07a7,7,0,0,0-7-7.29,6.94,6.94,0,0,0-7,7.22v.07a7,7,0,0,0,7,7.29,6.93,6.93,0,0,0,7-7.22m-19.31,0v-.07a12.33,12.33,0,0,1,24.65-.07v.07a12.33,12.33,0,0,1-24.65.07"/><path id="_Trazado_compuesto_42" data-name="&lt;Trazado compuesto&gt;" class="cls-59" d="M592.61,498.47c2.48,0,3.91-1.32,3.91-3.28v-.07c0-2.19-1.53-3.31-4-3.31h-5.07v6.66Zm-10.27-8.71a2.53,2.53,0,0,1,2.55-2.55h8a9.24,9.24,0,0,1,6.76,2.35,7.27,7.27,0,0,1,2,5.3v.07A7.08,7.08,0,0,1,597,502l3.54,4.31a3,3,0,0,1,.83,2,2.37,2.37,0,0,1-2.42,2.35,3,3,0,0,1-2.52-1.32l-5-6.29h-4.07V508a2.55,2.55,0,0,1-5.1,0Z"/><path id="_Trazado_compuesto_43" data-name="&lt;Trazado compuesto&gt;" class="cls-59" d="M489.3,520.82a1.87,1.87,0,0,0,2.11-1.83v0c0-1.19-.83-1.83-2.16-1.83H487.2v3.69Zm-4.76-4.76a1.32,1.32,0,0,1,1.33-1.33h3.6c2.88,0,4.62,1.71,4.62,4.17v0c0,2.8-2.17,4.24-4.88,4.24h-2v2.4a1.33,1.33,0,0,1-2.66,0Z"/><path id="_Trazado_compuesto_44" data-name="&lt;Trazado compuesto&gt;" class="cls-59" d="M502,521.75l-1.67-4-1.67,4Zm-7.47,3.35,4.21-9.5a1.65,1.65,0,0,1,1.55-1.05h.15a1.62,1.62,0,0,1,1.53,1.05l4.21,9.5a1.32,1.32,0,0,1,.14.53,1.26,1.26,0,0,1-1.26,1.28,1.35,1.35,0,0,1-1.28-.91l-.81-1.9h-5.31l-.84,2a1.31,1.31,0,0,1-1.23.83,1.22,1.22,0,0,1-1.23-1.24,1.41,1.41,0,0,1,.15-.57"/><path id="_Trazado_compuesto_45" data-name="&lt;Trazado compuesto&gt;" class="cls-59" d="M513.76,520.6c1.3,0,2-.69,2-1.71v0c0-1.14-.79-1.73-2.09-1.73h-2.64v3.47Zm-5.35-4.54a1.32,1.32,0,0,1,1.33-1.33h4.19a4.82,4.82,0,0,1,3.52,1.22,3.79,3.79,0,0,1,1,2.76v0a3.69,3.69,0,0,1-2.42,3.67l1.85,2.24a1.55,1.55,0,0,1,.43,1,1.24,1.24,0,0,1-1.26,1.23,1.59,1.59,0,0,1-1.31-.69l-2.59-3.28h-2.12v2.64a1.33,1.33,0,0,1-2.66,0Z"/><path id="_Trazado_compuesto_46" data-name="&lt;Trazado compuesto&gt;" class="cls-59" d="M527.68,521.75l-1.67-4-1.67,4Zm-7.47,3.35,4.21-9.5a1.64,1.64,0,0,1,1.55-1.05h.16a1.62,1.62,0,0,1,1.53,1.05l4.21,9.5a1.32,1.32,0,0,1,.14.53,1.26,1.26,0,0,1-1.26,1.28,1.35,1.35,0,0,1-1.27-.91l-.81-1.9h-5.31l-.85,2a1.3,1.3,0,0,1-1.22.83,1.22,1.22,0,0,1-1.23-1.24,1.41,1.41,0,0,1,.15-.57"/><path id="_Trazado_236" data-name="&lt;Trazado&gt;" class="cls-59" d="M542.09,517.18h-2.56a1.22,1.22,0,0,1,0-2.45h7.77a1.22,1.22,0,0,1,0,2.45h-2.55v8.4a1.33,1.33,0,0,1-2.66,0Z"/><path id="_Trazado_compuesto_47" data-name="&lt;Trazado compuesto&gt;" class="cls-59" d="M559.46,520.8v0A3.67,3.67,0,0,0,555.8,517a3.61,3.61,0,0,0-3.62,3.76v0a3.67,3.67,0,0,0,3.66,3.79,3.61,3.61,0,0,0,3.62-3.76m-10.06,0v0a6.42,6.42,0,0,1,12.83,0v0a6.42,6.42,0,0,1-12.83,0"/><path id="_Trazado_compuesto_48" data-name="&lt;Trazado compuesto&gt;" class="cls-59" d="M569.31,524.41a3.44,3.44,0,0,0,3.64-3.6v0a3.47,3.47,0,0,0-3.64-3.64h-2.05v7.28Zm-4.71-8.35a1.32,1.32,0,0,1,1.33-1.33h3.38c3.79,0,6.42,2.61,6.42,6v0c0,3.4-2.62,6-6.42,6h-3.38a1.32,1.32,0,0,1-1.33-1.33Z"/><path id="_Trazado_compuesto_49" data-name="&lt;Trazado compuesto&gt;" class="cls-59" d="M587.61,520.8v0A3.67,3.67,0,0,0,584,517a3.61,3.61,0,0,0-3.62,3.76v0a3.67,3.67,0,0,0,3.66,3.79,3.61,3.61,0,0,0,3.62-3.76m-10.06,0v0a6.42,6.42,0,0,1,12.83,0v0a6.42,6.42,0,0,1-12.83,0"/><path id="_Trazado_237" data-name="&lt;Trazado&gt;" class="cls-59" d="M592.42,525.53a1.24,1.24,0,0,1-.5-1,1.22,1.22,0,0,1,1.24-1.22,1.28,1.28,0,0,1,.76.24,5.09,5.09,0,0,0,3.09,1.09c1.09,0,1.74-.43,1.74-1.14v0c0-.67-.41-1-2.43-1.53-2.43-.62-4-1.29-4-3.69v0c0-2.19,1.76-3.64,4.23-3.64a7,7,0,0,1,3.83,1.07,1.23,1.23,0,0,1-.65,2.28,1.27,1.27,0,0,1-.67-.19,5,5,0,0,0-2.54-.81c-1,0-1.55.47-1.55,1.05v0c0,.79.52,1.05,2.6,1.59,2.45.64,3.83,1.52,3.83,3.62v0c0,2.4-1.83,3.74-4.43,3.74a7.79,7.79,0,0,1-4.53-1.45"/><path id="_Trazado_compuesto_50" data-name="&lt;Trazado compuesto&gt;" class="cls-59" d="M362.94,511.5l-1-2.7-1,2.7Zm2.73,2.9h-1.61l-.63-1.67h-2.93l-.6,1.67h-1.57l2.85-7.32h1.57Z"/><polygon id="_Trazado_238" data-name="&lt;Trazado&gt;" class="cls-59" points="366.06 514.4 366.06 507.14 367.54 507.14 367.54 513.16 371.21 513.16 371.21 514.4 366.06 514.4"/><path id="_Trazado_239" data-name="&lt;Trazado&gt;" class="cls-59" d="M376.53,511.7l1.43.46a3.26,3.26,0,0,1-1.09,1.79,3.47,3.47,0,0,1-4.35-.41,3.81,3.81,0,0,1-.94-2.72,4,4,0,0,1,.94-2.83,3.25,3.25,0,0,1,2.49-1,3,3,0,0,1,2.19.8,2.94,2.94,0,0,1,.75,1.35l-1.47.35a1.49,1.49,0,0,0-.54-.9,1.54,1.54,0,0,0-1-.33,1.69,1.69,0,0,0-1.33.59,2.86,2.86,0,0,0-.51,1.89,3.06,3.06,0,0,0,.5,2,1.62,1.62,0,0,0,1.3.59,1.48,1.48,0,0,0,1-.38,2.22,2.22,0,0,0,.61-1.19"/><path id="_Trazado_compuesto_51" data-name="&lt;Trazado compuesto&gt;" class="cls-59" d="M382.67,511.5l-1-2.7-1,2.7Zm2.73,2.9h-1.61l-.64-1.67h-2.93l-.61,1.67H378l2.85-7.32h1.57Z"/><polygon id="_Trazado_240" data-name="&lt;Trazado&gt;" class="cls-59" points="385.79 514.4 385.79 507.14 387.27 507.14 387.27 513.16 390.94 513.16 390.94 514.4 385.79 514.4"/><path id="_Trazado_compuesto_52" data-name="&lt;Trazado compuesto&gt;" class="cls-59" d="M393,508.33v4.83h1.11a3.6,3.6,0,0,0,.89-.07,1.25,1.25,0,0,0,.6-.3,1.62,1.62,0,0,0,.39-.71,5.07,5.07,0,0,0,.15-1.34,4.66,4.66,0,0,0-.15-1.3,1.78,1.78,0,0,0-.42-.71,1.56,1.56,0,0,0-.68-.34,8.07,8.07,0,0,0-1.22-.06Zm-1.48-1.24h2.7a5.15,5.15,0,0,1,1.4.14,2.4,2.4,0,0,1,1.1.67,3.27,3.27,0,0,1,.7,1.18,5.58,5.58,0,0,1,.24,1.73,4.81,4.81,0,0,1-.22,1.56,3.24,3.24,0,0,1-.78,1.29,2.55,2.55,0,0,1-1,.59,4.58,4.58,0,0,1-1.31.15h-2.78Z"/><path id="_Trazado_compuesto_53" data-name="&lt;Trazado compuesto&gt;" class="cls-59" d="M398.49,507.08H400v7.32h-1.48Zm.37-.67.69-1.49h1.57l-1.37,1.49Z"/><path id="_Trazado_compuesto_54" data-name="&lt;Trazado compuesto&gt;" class="cls-59" d="M404.83,511.5l-1-2.7-1,2.7Zm2.72,2.9h-1.61l-.64-1.67h-2.93l-.61,1.67h-1.57l2.86-7.32h1.57Z"/><polygon id="_Trazado_241" data-name="&lt;Trazado&gt;" class="cls-59" points="409.91 514.4 409.91 507.08 412.12 507.08 413.45 512.08 414.76 507.08 416.98 507.08 416.98 514.4 415.61 514.4 415.61 508.64 414.15 514.4 412.73 514.4 411.28 508.64 411.28 514.4 409.91 514.4"/><path id="_Trazado_compuesto_55" data-name="&lt;Trazado compuesto&gt;" class="cls-59" d="M421.91,511.5l-1-2.7-1,2.7Zm2.72,2.9H423l-.64-1.67h-2.93l-.61,1.67h-1.57l2.85-7.32h1.58Z"/><polygon id="_Trazado_242" data-name="&lt;Trazado&gt;" class="cls-59" points="425.96 514.4 425.96 511.32 423.28 507.08 425.01 507.08 426.74 509.98 428.43 507.08 430.13 507.08 427.45 511.33 427.45 514.4 425.96 514.4"/><path id="_Trazado_compuesto_56" data-name="&lt;Trazado compuesto&gt;" class="cls-59" d="M431.66,510.74a2.74,2.74,0,0,0,.57,1.88,1.88,1.88,0,0,0,1.46.64,1.84,1.84,0,0,0,1.44-.64,2.77,2.77,0,0,0,.57-1.91,2.74,2.74,0,0,0-.55-1.88,2,2,0,0,0-2.94,0,2.76,2.76,0,0,0-.56,1.89m-1.53,0a4.85,4.85,0,0,1,.33-1.88,3.6,3.6,0,0,1,.68-1,2.88,2.88,0,0,1,1-.67,4,4,0,0,1,1.58-.29,3.45,3.45,0,0,1,2.59,1,4.52,4.52,0,0,1,0,5.56,3.41,3.41,0,0,1-2.58,1,3.46,3.46,0,0,1-2.6-1,3.79,3.79,0,0,1-1-2.74"/><path id="_Trazado_compuesto_57" data-name="&lt;Trazado compuesto&gt;" class="cls-59" d="M439.45,510.18h1.09a6,6,0,0,0,1.32-.09.79.79,0,0,0,.42-.32.92.92,0,0,0,.15-.55.85.85,0,0,0-.2-.6.83.83,0,0,0-.55-.29c-.11,0-.47,0-1.07,0h-1.16ZM438,514.4v-7.32h3.11a5.22,5.22,0,0,1,1.71.2,1.63,1.63,0,0,1,.85.7,2.11,2.11,0,0,1,.32,1.16,2,2,0,0,1-.48,1.36,2.31,2.31,0,0,1-1.44.67,3.37,3.37,0,0,1,.78.62,7.65,7.65,0,0,1,.84,1.18l.9,1.43h-1.78l-1.06-1.59a13.29,13.29,0,0,0-.78-1.08,1.32,1.32,0,0,0-.44-.3,2.81,2.81,0,0,0-.75-.08h-.3v3.05Z"/><rect id="_Trazado_243" data-name="&lt;Trazado&gt;" class="cls-59" x="429.28" y="524.86" width="1.38" height="1.38"/><polygon id="_Trazado_244" data-name="&lt;Trazado&gt;" class="cls-59" points="369.85 526.22 369.85 519.02 375.19 519.02 375.19 520.24 371.31 520.24 371.31 521.83 374.91 521.83 374.91 523.06 371.31 523.06 371.31 525 375.32 525 375.32 526.22 369.85 526.22"/><path id="_Trazado_compuesto_58" data-name="&lt;Trazado compuesto&gt;" class="cls-59" d="M380,523.08V525h1.34a6.59,6.59,0,0,0,1,0,.92.92,0,0,0,.53-.29.88.88,0,0,0,.2-.6,1,1,0,0,0-.16-.55.93.93,0,0,0-.45-.33,5,5,0,0,0-1.29-.1Zm0-2.86v1.66h1c.56,0,.91,0,1.05,0a.94.94,0,0,0,.59-.26.74.74,0,0,0,.22-.56.8.8,0,0,0-.18-.54.81.81,0,0,0-.55-.25q-.21,0-1.24,0ZM378.51,519h2.88a8.34,8.34,0,0,1,1.27.07,1.93,1.93,0,0,1,.75.29,1.83,1.83,0,0,1,.55.6,1.62,1.62,0,0,1,.22.84,1.66,1.66,0,0,1-.27.93,1.7,1.7,0,0,1-.74.63,1.92,1.92,0,0,1,1,.65,1.71,1.71,0,0,1,.36,1.09,2.11,2.11,0,0,1-.23,1,2,2,0,0,1-.62.74,2.08,2.08,0,0,1-1,.34c-.24,0-.83,0-1.75,0h-2.45Z"/><path id="_Trazado_compuesto_59" data-name="&lt;Trazado compuesto&gt;" class="cls-59" d="M386.54,522.61a2.67,2.67,0,0,0,.57,1.85,1.94,1.94,0,0,0,2.86,0,2.75,2.75,0,0,0,.55-1.87,2.67,2.67,0,0,0-.54-1.84,1.82,1.82,0,0,0-1.44-.61,1.86,1.86,0,0,0-1.45.62,2.7,2.7,0,0,0-.55,1.85m-1.5,0a4.68,4.68,0,0,1,.32-1.84,3.74,3.74,0,0,1,.68-1,2.77,2.77,0,0,1,.94-.64,3.87,3.87,0,0,1,1.54-.29,3.35,3.35,0,0,1,2.54,1,4.41,4.41,0,0,1,0,5.46,3.34,3.34,0,0,1-2.53,1,3.38,3.38,0,0,1-2.55-1,3.71,3.71,0,0,1-1-2.7"/><path id="_Trazado_245" data-name="&lt;Trazado&gt;" class="cls-59" d="M396.08,523.59v-1.22h3.13v2.86a4.13,4.13,0,0,1-1.32.78,4.8,4.8,0,0,1-1.75.34,3.85,3.85,0,0,1-2-.48,3,3,0,0,1-1.26-1.35,4.45,4.45,0,0,1-.42-1.91,4.11,4.11,0,0,1,.48-2,3.18,3.18,0,0,1,1.38-1.34,3.73,3.73,0,0,1,1.72-.36,3.48,3.48,0,0,1,2.09.56,2.55,2.55,0,0,1,1,1.56l-1.44.28a1.53,1.53,0,0,0-.57-.84,1.73,1.73,0,0,0-1-.31,2,2,0,0,0-1.51.6,2.52,2.52,0,0,0-.56,1.79,2.78,2.78,0,0,0,.57,1.91,1.89,1.89,0,0,0,1.49.64,2.5,2.5,0,0,0,.91-.18,3,3,0,0,0,.79-.43v-.9Z"/><path id="_Trazado_compuesto_60" data-name="&lt;Trazado compuesto&gt;" class="cls-59" d="M401.34,522.61a2.67,2.67,0,0,0,.56,1.85,1.84,1.84,0,0,0,1.43.63,1.87,1.87,0,0,0,1.43-.63,2.73,2.73,0,0,0,.55-1.87,2.69,2.69,0,0,0-.53-1.84,2,2,0,0,0-2.9,0,2.71,2.71,0,0,0-.55,1.85m-1.5,0a4.59,4.59,0,0,1,.33-1.84,3.47,3.47,0,0,1,.67-1,2.89,2.89,0,0,1,.93-.64,3.93,3.93,0,0,1,1.55-.29,3.39,3.39,0,0,1,2.55,1,4.42,4.42,0,0,1,0,5.46,3.79,3.79,0,0,1-5.09,0,3.72,3.72,0,0,1-.95-2.7"/><polygon id="_Trazado_246" data-name="&lt;Trazado&gt;" class="cls-59" points="409.15 526.22 409.15 520.24 407.02 520.24 407.02 519.02 412.74 519.02 412.74 520.24 410.61 520.24 410.61 526.22 409.15 526.22"/><path id="_Trazado_compuesto_61" data-name="&lt;Trazado compuesto&gt;" class="cls-59" d="M415.56,518.37l.67-1.47h1.54l-1.34,1.47Zm1.5,5-1-2.66-1,2.66Zm2.68,2.86h-1.58l-.63-1.64h-2.88l-.59,1.64h-1.54l2.8-7.2h1.55Z"/><path id="_Trazado_compuesto_62" data-name="&lt;Trazado compuesto&gt;" class="cls-59" d="M423.9,520.24V525H425a4.13,4.13,0,0,0,.88-.07,1.35,1.35,0,0,0,.59-.3,1.56,1.56,0,0,0,.38-.69,4.74,4.74,0,0,0,.14-1.32,4.28,4.28,0,0,0-.14-1.28,1.65,1.65,0,0,0-.42-.7,1.36,1.36,0,0,0-.66-.34,7,7,0,0,0-1.19-.07ZM422.45,519h2.66a5.36,5.36,0,0,1,1.37.14,2.47,2.47,0,0,1,1.08.66,3.11,3.11,0,0,1,.69,1.17,5.18,5.18,0,0,1,.23,1.69,4.71,4.71,0,0,1-.22,1.53,3.31,3.31,0,0,1-.77,1.27,2.51,2.51,0,0,1-1,.57,4.28,4.28,0,0,1-1.29.16h-2.74Z"/><path id="_Trazado_compuesto_63" data-name="&lt;Trazado compuesto&gt;" class="cls-59" d="M364,520.24V525h1.09a4.13,4.13,0,0,0,.88-.07,1.35,1.35,0,0,0,.59-.3,1.56,1.56,0,0,0,.38-.69,4.74,4.74,0,0,0,.14-1.32,4.28,4.28,0,0,0-.14-1.28,1.65,1.65,0,0,0-.42-.7,1.36,1.36,0,0,0-.66-.34,7,7,0,0,0-1.19-.07ZM362.53,519h2.66a5.36,5.36,0,0,1,1.37.14,2.47,2.47,0,0,1,1.08.66,3.11,3.11,0,0,1,.69,1.17,5.18,5.18,0,0,1,.23,1.69,4.71,4.71,0,0,1-.22,1.53,3.31,3.31,0,0,1-.77,1.27,2.51,2.51,0,0,1-1,.57,4.28,4.28,0,0,1-1.29.16h-2.74Z"/><path id="_Trazado_247" data-name="&lt;Trazado&gt;" class="cls-59" d="M436.27,523.56l1.4.45a3.24,3.24,0,0,1-1.07,1.76,3.39,3.39,0,0,1-4.27-.4,3.73,3.73,0,0,1-.93-2.68,3.91,3.91,0,0,1,.93-2.79,3.16,3.16,0,0,1,2.43-1,3,3,0,0,1,2.15.78,2.81,2.81,0,0,1,.74,1.33l-1.44.35a1.53,1.53,0,0,0-.54-.88,1.51,1.51,0,0,0-1-.33,1.63,1.63,0,0,0-1.31.58,2.8,2.8,0,0,0-.5,1.86,3,3,0,0,0,.49,1.94,1.57,1.57,0,0,0,1.27.58,1.46,1.46,0,0,0,1-.37,2.15,2.15,0,0,0,.6-1.17"/><rect id="_Trazado_248" data-name="&lt;Trazado&gt;" class="cls-59" x="438.48" y="524.88" width="1.38" height="1.38"/><path id="_Trazado_249" data-name="&lt;Trazado&gt;" class="cls-59" d="M387.18,475.05c.13.19.85-.25.79-.44s-.07-1.2.59-1.26v-.25s-1,0-1.18.63c0,0-.78-.82-1-.75s.2,1.19.2,1.19c-.66-.12-1,.76-1,.76l.12.13a.94.94,0,0,1,1.44,0"/><path id="_Trazado_250" data-name="&lt;Trazado&gt;" class="cls-59" d="M395.17,481.81a3.11,3.11,0,0,0-.72,2.21,2.54,2.54,0,0,0,2-.95,2.68,2.68,0,0,0,.72-2.14,2.93,2.93,0,0,0-2,.88"/><path id="_Trazado_251" data-name="&lt;Trazado&gt;" class="cls-59" d="M415.93,474.17s.4-1.07.2-1.19-1,.75-1,.75c-.2-.63-1.19-.63-1.19-.63v.25c.66.06.79.95.59,1.26s.66.63.79.44a1,1,0,0,1,1.44,0l.13-.13s-.32-.88-1-.76"/><path id="_Trazado_252" data-name="&lt;Trazado&gt;" class="cls-59" d="M407.35,481.81a2.93,2.93,0,0,0-2-.88,2.64,2.64,0,0,0,.73,2.14,2.51,2.51,0,0,0,2,.95,3.09,3.09,0,0,0-.72-2.21"/><path id="_Trazado_compuesto_64" data-name="&lt;Trazado compuesto&gt;" class="cls-59" d="M414.55,477.83c-.78,1.13-1.71,1.39-2.29,1s-.78-1.26,0-2.33,1.83-1.71,2.42-1.39.59,1.58-.13,2.71m-14.23-20.46a.59.59,0,0,1-.65-.56.61.61,0,0,1,.65-.63.59.59,0,0,1,.59.63.57.57,0,0,1-.59.56m-10.06,21.47c-.59.38-1.5.13-2.29-1s-.72-2.4-.13-2.71,1.7.25,2.42,1.39.59,2,0,2.33M414.75,475c-1.44-.88-3.21-.7-3.92.44s-.18,2.61,1.17,3.51c-1,.08-2.23-1.24-2.23-1.24-.55,1,.45,1.59,1.24,1.87l-.31.23c-.75-.19-1,.17-1,.17s-1.77-1.82-3-3.08l1.08-.21c-.79-1.82-2.91-2.22-4.34-3.32-1.08-.83.13-1.19.42-.92a4.32,4.32,0,0,0,5.11.7,5.4,5.4,0,0,1-2.81-2.79,6.07,6.07,0,0,0,6.93-.31c-2.61.44-4.65-2-4.65-2a7.86,7.86,0,0,0,6.87-1.76c-1.5.12-5.24-1.46-5.24-1.46,6-.19,6.48-4.42,6.55-4.42-1.64,1.08-6,.57-6,.57,6.22-2.21,5.76-7.32,5.76-7.32-1.31,2-7.33,3.85-7.33,3.85a4,4,0,0,0-2.95,3.66,1.46,1.46,0,0,1-1.43,1.26c-1.61,0-1.58-2.32-1.58-3.41,0-1.64-.06-3.53-1.24-3.53h-2.35c-.43,0-1.16,0-1.46.32-.61.71-.51,2.58-.24,2.2a2.82,2.82,0,0,1,1.51,0c.76.22.2,2.58.2,3.1a1.42,1.42,0,0,1-1.44,1.32,1.46,1.46,0,0,1-1.44-1.26,4,4,0,0,0-2.88-3.66s-6.16-1.9-7.46-3.85c0,0-.46,5.17,5.82,7.45,0,0-4.45.38-6.09-.7.06,0,.85,4.42,6.81,4.61,0,0-3.93,1.33-5.37,1.13a7.6,7.6,0,0,0,7,2.28s-2.29,2.08-4.92,1.64a6.09,6.09,0,0,0,6.95.44,5.16,5.16,0,0,1-2.75,2.65,4.4,4.4,0,0,0,5.17-.7c.35-.39,1.47.06.35.92-1.49,1.14-3.63,1.42-4.53,3.31l1.1.21c-1.24,1.26-2.9,3-3.07,3.07,0,0-.24-.34-.93-.19l-.28-.21c.79-.28,1.79-.85,1.24-1.87,0,0-1.25,1.32-2.22,1.24,1.34-.9,1.87-2.41,1.17-3.51s-2.49-1.33-3.93-.44-2,2.53-1.31,3.66,2.27,1.31,3.72.5a4.12,4.12,0,0,1-2.22,1.33s.8,1.55,2.6-.51c.1.07.19.15.29.22-.49.37-.68,1-.29,1.3,0,0-.19,1,1,.95a.91.91,0,0,0,1.24.29,14.82,14.82,0,0,1,.48,3.43l1.51.06a11.49,11.49,0,0,0-1.38-4.68.49.49,0,0,0,.11-.75,42.45,42.45,0,0,1,3.73-2.41l.21,1a4.33,4.33,0,0,1,2.27-1.51,6.29,6.29,0,0,0-1.23,5.05s.26-.82,1.57-1c0,0-1.84,2.21,1.11,6.51,2.94-4.29,1.25-6.51,1.25-6.51a1.87,1.87,0,0,1,1.63,1,6.4,6.4,0,0,0-1.31-5.09,4.21,4.21,0,0,1,2.29,1.55l.21-1c1.58,1,3.76,2.36,3.72,2.44-.25.27-.1.56.15.76a11.8,11.8,0,0,0-1.38,4.67l1.51-.06a15.47,15.47,0,0,1,.47-3.41,1,1,0,0,0,1.21-.31c1.18.06,1-.95,1-.95.38-.27.21-.89-.28-1.27L412,480c1.78,2.06,2.59.51,2.59.51a4.12,4.12,0,0,1-2.21-1.33c1.45.81,3,.58,3.72-.5s.13-2.78-1.31-3.66"/><polygon id="_Trazado_253" data-name="&lt;Trazado&gt;" class="cls-59" points="402.68 454.91 403.99 452.89 401.96 453.65 401.23 451.82 400.45 453.65 398.36 452.89 399.73 454.91 402.68 454.91"/><path id="_Trazado_254" data-name="&lt;Trazado&gt;" class="cls-59" d="M381.75,469.88c-.06-1.26-.79-2.21-1.44-2.15s-1,1.08-1,2.34.72,1.83,1.31,1.77,1.18-.76,1.12-2"/><path id="_Trazado_255" data-name="&lt;Trazado&gt;" class="cls-59" d="M422.36,486c-.52-.31-1.57.19-2.29,1.2s-.59,1.9,0,2.21,1.37.07,2.09-.95.73-2.15.2-2.46"/><path id="_Trazado_256" data-name="&lt;Trazado&gt;" class="cls-59" d="M409.29,447.53c0-.57-.66-1.2-1.9-1.27s-2.35.64-2.35,1.2,1,1.13,2.28,1.2,2-.5,2-1.13"/><path id="_Trazado_257" data-name="&lt;Trazado&gt;" class="cls-59" d="M382.77,487.19c-.72-1-1.77-1.51-2.29-1.2s-.52,1.45.19,2.46,1.58,1.26,2.1.95.66-1.2,0-2.21"/><path id="_Trazado_258" data-name="&lt;Trazado&gt;" class="cls-59" d="M398.59,493.37c-1.31-.19-2.42.13-2.56.7s.72,1.39,2,1.64,2.1-.19,2.23-.81-.39-1.26-1.64-1.52"/><path id="_Trazado_compuesto_65" data-name="&lt;Trazado compuesto&gt;" class="cls-59" d="M425.26,475.37a2.62,2.62,0,0,1-1.86.7,6.25,6.25,0,0,1-.3,3.78l-1-.82c1.56-3.13-.63-4.24-.49-6.22-2.23.48-2-1-2-1A3.66,3.66,0,0,0,422,472a2.49,2.49,0,0,1-2.52-2.32c.14-1.2,1.5-2.09,3.08-2a2.25,2.25,0,1,1-.2,4.37c.71.58,2.42.3,2.42.3-.2,1.22-1.62.87-2.34.61-.06.43,0,.86.58,2a5.38,5.38,0,0,1,.26.6,1.93,1.93,0,0,1,.66-1.1,2.53,2.53,0,0,1,2-.7,2,2,0,0,1-.65,1.71m-1,10.42a.82.82,0,0,0-1.31,0c-.07.13-.79-.31-.73-.44a.82.82,0,0,0-.52-1.21l.06-.19s.85,0,1,.57c0,0,.72-.76.92-.63s-.27,1.07-.27,1.07c.65-.13,1,.69,1,.69Zm-.66,3.41a2.62,2.62,0,0,1-3.47.44,3.73,3.73,0,0,0,2,1.27s-.75,1.28-2.25-.35c-.68,1-1.79,1.27-2.75,2a2.55,2.55,0,0,1,.87-.07,2.83,2.83,0,0,1,2,.88,2.41,2.41,0,0,1-1.9.7,3.07,3.07,0,0,1-1.74-.69,4.85,4.85,0,0,0-.75,1.82l-1.38.06a6.87,6.87,0,0,1,3.27-3.92c1.12-.56,1.48-.85,1.7-1.23-.72-.21-2.09-.75-1.5-1.8,0,0,1.18,1.14,2.08,1.1a2.4,2.4,0,0,1-1-3.25c.66-1,2.29-1.14,3.61-.31s1.83,2.34,1.17,3.34m-22.39,1.91c-3.29-2.06-6.41-2.48-10.21-2.48a6.59,6.59,0,0,1-6.7-6.69l0-31c4.13,2.21,13.19.73,17.15-1.34,4,2.08,13,3.51,17.15,1.34l0,31a7,7,0,0,1-7.18,6.69c-3.77,0-6.87.43-10.14,2.48m6.41,4.91a5.11,5.11,0,0,0-1.89-.77,2.5,2.5,0,0,1-.72,1.65,2.47,2.47,0,0,1-1.84.82,3.35,3.35,0,0,1,.72-2,2.49,2.49,0,0,1,.68-.47c-1.21.13-2.2.68-3.39.46.13,2.16-1.36,1.72-1.36,1.72a3.55,3.55,0,0,0,.49-2.25,2.47,2.47,0,0,1-2.72,2.06,2.64,2.64,0,0,1-1.7-3.15,2.59,2.59,0,0,1,2.82-2.27,2.54,2.54,0,0,1,1.68,3c.66-.58.61-2.15.61-2.15,1.23.33.68,1.62.34,2.25a3.93,3.93,0,0,0,2.08-.22,7.39,7.39,0,0,1,5.24.5Zm-12.11-1.7c-.39-.07-1.11.32-1,.95h-.19s-.33-.75.19-1.13c0,0-1-.44-1-.63s1.12-.13,1.12-.13c-.32-.57.33-1.14.33-1.14l.2.13c-.39.51.13,1.13.46,1.2s0,.82-.14.76m-8.28.88a4.93,4.93,0,0,0-.75-1.83,3.28,3.28,0,0,1-1.73.69,2.33,2.33,0,0,1-1.9-.7,2.73,2.73,0,0,1,2-.88,2.53,2.53,0,0,1,.86.06c-.94-.73-2.05-1-2.73-2-1.51,1.63-2.26.35-2.26.35a3.62,3.62,0,0,0,2.06-1.33,2.57,2.57,0,0,1-3.5-.38c-.65-1-.13-2.53,1.18-3.34s2.94-.7,3.6.31.23,2.41-1,3.24c.91.08,2.14-1.1,2.14-1.1.59,1-.78,1.59-1.49,1.8.22.39.58.67,1.69,1.23a6.85,6.85,0,0,1,3.28,3.92Zm-8.71-9.41-.13-.12s.33-.82,1-.69c0,0-.46-.94-.26-1.07s.92.63.92.63c.2-.57,1.05-.57,1.05-.57l.07.19a.86.86,0,0,0-.59,1.21c.13.12-.59.57-.65.44a.88.88,0,0,0-1.38,0M377,473.67a2.47,2.47,0,0,1,2,.7,1.68,1.68,0,0,1,.68,1.11,3.94,3.94,0,0,1,.24-.61c.53-1.12.63-1.55.57-2-.72.26-2.15.61-2.34-.61,0,0,1.71.28,2.42-.3a2.64,2.64,0,0,1-2.89-2c-.06-1.2,1.11-2.27,2.69-2.4s2.95.82,3.08,2a2.5,2.5,0,0,1-2.52,2.32,3.92,3.92,0,0,0,2.45-.11s.17,1.45-2.05,1c.19,2-2,3.08-.5,6.21l-1.05.82a6.48,6.48,0,0,1-.27-3.78,2.67,2.67,0,0,1-1.89-.7,1.84,1.84,0,0,1-.59-1.71m4.85-7.33-.06.19a.79.79,0,0,0-1.05.69c0,.19-.78.25-.84.07a.9.9,0,0,0-1.18-.63l-.06-.19s.65-.51,1.17-.13c0,0,.14-1,.33-1s.52.94.52.94c.39-.37,1.18.06,1.18.06m-1.46-17.23a2.53,2.53,0,0,1,2.69,2.34,2.7,2.7,0,0,1-2.8,2,4.15,4.15,0,0,0,2.34.25c-.19,1.23-1.63.87-2.34.61-.06.42,0,.86.57,2a6.59,6.59,0,0,1,.13,5l-1.05-.82a4.87,4.87,0,0,0,.53-1.92,2.9,2.9,0,0,1-1.83-.48,2.1,2.1,0,0,1-1-1.58,3.26,3.26,0,0,1,2.16.38,2.85,2.85,0,0,1,.59.53c-.31-1.14-1-2-.89-3.14-2.22.47-2.05-1-2.05-1a4.08,4.08,0,0,0,2.34.16,2.55,2.55,0,0,1-2.41-2.37c.13-1.2,1.51-2.08,3.08-2m-.33-1.39s.33-1,.52-1,.33,1,.33,1c.53-.38,1.18.19,1.18.19l-.06.12a.9.9,0,0,0-1.18.63c-.06.19-.86.13-.86-.06s-.45-.95-1-.69l-.06-.19s.78-.44,1.18-.06m6,.31a5.34,5.34,0,0,0,2,.36,2.69,2.69,0,0,1,.33-1.81,2.2,2.2,0,0,1,1.57-1.13,2.56,2.56,0,0,1-.26,2.08,2.11,2.11,0,0,1-.53.67c1.15-.36,2-1.11,3.14-1.16-.58-2.1.92-2,.92-2a3.53,3.53,0,0,0,.06,2.32,2.42,2.42,0,0,1,2.16-2.57,2.54,2.54,0,0,1,2.36,2.72,2.47,2.47,0,0,1-2.16,2.78,2.52,2.52,0,0,1-2.36-2.57c-.53.72-.13,2.32-.13,2.32-1.2,0-1-1.5-.82-2.18a4.66,4.66,0,0,0-1.93.73,7.32,7.32,0,0,1-5.17.58Zm12.18-.95c.33,0,1-.51.65-1.07l.2-.07s.53.69.13,1.14c0,0,1.12.19,1.12.38s-1,.38-1,.38c.39.44-.07,1.14-.07,1.14h-.19a.91.91,0,0,0-.79-1.14c-.19,0-.19-.76,0-.76m5.44,0c-.39-.44.13-1.14.13-1.14l.2.07c-.33.56.33,1.07.66,1.07s.19.76,0,.76a.91.91,0,0,0-.79,1.14h-.19s-.46-.7-.07-1.14c0,0-1.05-.19-1.05-.38s1.12-.38,1.12-.38m3.72-2.34a2.41,2.41,0,0,1,2.16,2.57,3.45,3.45,0,0,0,.06-2.32s1.51-.05.93,2c1.17,0,2,.8,3.14,1.16a2.33,2.33,0,0,1-.53-.67,2.54,2.54,0,0,1-.26-2.08,2.22,2.22,0,0,1,1.57,1.13,2.67,2.67,0,0,1,.32,1.81,5.31,5.31,0,0,0,2-.36l.79,1.08a7.33,7.33,0,0,1-5.17-.58,4.65,4.65,0,0,0-1.93-.73c.16.69.38,2.14-.82,2.18,0,0,.4-1.6-.13-2.32a2.52,2.52,0,0,1-2.35,2.57,2.46,2.46,0,0,1-2.16-2.78,2.54,2.54,0,0,1,2.35-2.72m16.9,21.72-.07.19a.89.89,0,0,0-1.17.63c0,.19-.85.12-.85-.07a.78.78,0,0,0-1-.69l-.07-.19s.79-.44,1.17-.06c0,0,.34-1,.53-.94s.33,1,.33,1c.52-.38,1.18.13,1.18.13m-1.74-17.36c1.57-.13,2.95.76,3.08,2a2.55,2.55,0,0,1-2.41,2.37,4.08,4.08,0,0,0,2.34-.16s.18,1.46-2.07,1c.09,1.18-.66,2.05-.94,3.23a2.74,2.74,0,0,1,.66-.62,3.27,3.27,0,0,1,2.16-.38,2.35,2.35,0,0,1-1,1.58,3,3,0,0,1-1.87.48,4.88,4.88,0,0,0,.56,1.92l-1.05.82a6.33,6.33,0,0,1,.13-5c.53-1.12.63-1.56.57-2-.71.26-2.14.61-2.34-.61a4.14,4.14,0,0,0,2.34-.25,2.71,2.71,0,0,1-2.81-2,2.54,2.54,0,0,1,2.69-2.34m-.53-1.33s.14-1,.34-1,.52,1,.52,1c.39-.38,1.18.06,1.18.06l-.07.19a.78.78,0,0,0-1,.69c0,.19-.85.25-.85.06a.9.9,0,0,0-1.18-.63l-.07-.12s.66-.57,1.17-.19m-20.69-7.18a27.81,27.81,0,0,1-25.73-.06v46.12a10.23,10.23,0,0,0,10.41,10.13c5.57,0,10.53.77,15.32,3.84,4.79-3,9.7-3.84,15.26-3.84A10.28,10.28,0,0,0,427,486.66V440.54a27.86,27.86,0,0,1-25.73.06"/><path id="_Trazado_259" data-name="&lt;Trazado&gt;" class="cls-59" d="M380,453.27c.59.07,1.24-.56,1.31-1.77s-.39-2.27-1-2.34-1.37.88-1.44,2.14.46,1.9,1.11,2"/><path id="_Trazado_260" data-name="&lt;Trazado&gt;" class="cls-59" d="M422.81,453.27c.58-.06,1.18-.76,1.11-2s-.78-2.21-1.44-2.14-1.11,1.07-1,2.34.72,1.83,1.38,1.77"/><path id="_Trazado_261" data-name="&lt;Trazado&gt;" class="cls-59" d="M395.41,448.66c1.24-.06,2.23-.57,2.3-1.2s-1.05-1.2-2.36-1.2-1.9.7-1.9,1.27.65,1.2,2,1.13"/><path id="_Trazado_262" data-name="&lt;Trazado&gt;" class="cls-59" d="M423.56,470.07c.07-1.26-.46-2.27-1-2.34s-1.38.88-1.45,2.15.52,1.9,1.11,2,1.32-.57,1.38-1.77"/></g></g></g></g><rect class="cls-60" x="950.19" width="9.91" height="1083.84"/></svg>