<svg id="Capa_1" data-name="Capa 1" xmlns="http://www.w3.org/2000/svg" viewBox="0 0 188 86"><defs><style>.cls-1{fill:#009fe3;}</style></defs><title>bogota</title><g id="_Grupo_" data-name="&lt;Grupo&gt;"><g id="_Grupo_2" data-name="&lt;Grupo&gt;"><g id="_Grupo_3" data-name="&lt;Grupo&gt;"><g id="_Grupo_4" data-name="&lt;Grupo&gt;"><g id="_Grupo_5" data-name="&lt;Grupo&gt;"><path id="_Trazado_compuesto_" data-name="&lt;Trazado compuesto&gt;" class="cls-1" d="M51.16,80.33l.67-.06a1.48,1.48,0,0,0,.22.66,1.21,1.21,0,0,0,.54.42,2.05,2.05,0,0,0,.82.16,2,2,0,0,0,.72-.12,1,1,0,0,0,.46-.33.77.77,0,0,0,.15-.46.7.7,0,0,0-.15-.44,1.08,1.08,0,0,0-.48-.32,9.53,9.53,0,0,0-1-.26,4.86,4.86,0,0,1-1-.33,1.45,1.45,0,0,1-.57-.5,1.22,1.22,0,0,1-.19-.67,1.36,1.36,0,0,1,.23-.76,1.42,1.42,0,0,1,.67-.54,2.54,2.54,0,0,1,1-.18,2.68,2.68,0,0,1,1.05.19,1.51,1.51,0,0,1,.7.56,1.62,1.62,0,0,1,.26.84l-.68.05a1.1,1.1,0,0,0-.37-.77,1.44,1.44,0,0,0-.93-.26,1.5,1.5,0,0,0-.94.24A.71.71,0,0,0,52,78a.61.61,0,0,0,.21.47,2.82,2.82,0,0,0,1.07.38,7.09,7.09,0,0,1,1.19.34,1.63,1.63,0,0,1,.69.55,1.33,1.33,0,0,1,.22.76,1.46,1.46,0,0,1-.24.81,1.62,1.62,0,0,1-.7.59,2.45,2.45,0,0,1-1,.21,3.08,3.08,0,0,1-1.22-.21,1.71,1.71,0,0,1-.77-.64A1.81,1.81,0,0,1,51.16,80.33Z"/><path id="_Trazado_compuesto_2" data-name="&lt;Trazado compuesto&gt;" class="cls-1" d="M56.4,82.05V76.7h3.87v.63H57.11V79h3v.63h-3v1.82H60.4v.63Z"/><path id="_Trazado_compuesto_3" data-name="&lt;Trazado compuesto&gt;" class="cls-1" d="M65.2,80.18l.71.18a2.39,2.39,0,0,1-.8,1.33,2.21,2.21,0,0,1-1.42.46,2.55,2.55,0,0,1-1.41-.35,2.2,2.2,0,0,1-.83-1,3.65,3.65,0,0,1-.28-1.44,3.16,3.16,0,0,1,.32-1.46,2.19,2.19,0,0,1,.91-.95,2.66,2.66,0,0,1,1.3-.32,2.2,2.2,0,0,1,1.35.41,2.13,2.13,0,0,1,.76,1.15l-.7.16a1.66,1.66,0,0,0-.54-.85,1.44,1.44,0,0,0-.89-.27,1.73,1.73,0,0,0-1,.3,1.56,1.56,0,0,0-.58.79,3.2,3.2,0,0,0-.17,1,3.27,3.27,0,0,0,.2,1.19,1.49,1.49,0,0,0,.62.76,1.74,1.74,0,0,0,.91.25,1.52,1.52,0,0,0,1-.34A1.76,1.76,0,0,0,65.2,80.18Z"/><path id="_Trazado_compuesto_4" data-name="&lt;Trazado compuesto&gt;" class="cls-1" d="M66.79,82.05V76.7h2.38a3.16,3.16,0,0,1,1.09.14,1.19,1.19,0,0,1,.6.51,1.52,1.52,0,0,1,.22.81,1.35,1.35,0,0,1-.37,1,1.87,1.87,0,0,1-1.14.5,1.86,1.86,0,0,1,.43.27,3.66,3.66,0,0,1,.59.71l.93,1.46h-.89l-.71-1.11q-.31-.48-.51-.74a1.61,1.61,0,0,0-.36-.36,1.07,1.07,0,0,0-.32-.14,2.07,2.07,0,0,0-.39,0H67.5v2.38Zm.71-3H69a2.26,2.26,0,0,0,.76-.1.8.8,0,0,0,.42-.32.87.87,0,0,0,.14-.48.8.8,0,0,0-.28-.63,1.29,1.29,0,0,0-.87-.24H67.5Z"/><path id="_Trazado_compuesto_5" data-name="&lt;Trazado compuesto&gt;" class="cls-1" d="M72.2,82.05V76.7h3.87v.63H72.91V79h3v.63h-3v1.82H76.2v.63Z"/><path id="_Trazado_compuesto_6" data-name="&lt;Trazado compuesto&gt;" class="cls-1" d="M78.54,82.05V77.33H76.78V76.7H81v.63H79.25v4.72Z"/><path id="_Trazado_compuesto_7" data-name="&lt;Trazado compuesto&gt;" class="cls-1" d="M80.61,82.05l2.06-5.36h.76l2.19,5.36h-.81l-.62-1.62H81.95l-.59,1.62Zm1.55-2.2H84l-.56-1.48q-.26-.68-.38-1.11a6.83,6.83,0,0,1-.29,1Z"/><path id="_Trazado_compuesto_8" data-name="&lt;Trazado compuesto&gt;" class="cls-1" d="M86.2,82.05V76.7h2.38a3.16,3.16,0,0,1,1.09.14,1.19,1.19,0,0,1,.6.51,1.52,1.52,0,0,1,.22.81,1.35,1.35,0,0,1-.37,1,1.87,1.87,0,0,1-1.14.5,1.86,1.86,0,0,1,.43.27,3.66,3.66,0,0,1,.59.71l.93,1.46H90l-.71-1.11q-.31-.48-.51-.74a1.61,1.61,0,0,0-.36-.36,1.07,1.07,0,0,0-.32-.14,2.07,2.07,0,0,0-.39,0h-.82v2.38Zm.71-3h1.52a2.26,2.26,0,0,0,.76-.1.8.8,0,0,0,.42-.32.87.87,0,0,0,.14-.48.8.8,0,0,0-.28-.63,1.29,1.29,0,0,0-.87-.24h-1.7Z"/><path id="_Trazado_compuesto_9" data-name="&lt;Trazado compuesto&gt;" class="cls-1" d="M91.53,76.37l.49-1h.86l-.8,1Zm.18,5.69V76.7h.71v5.36Z"/><path id="_Trazado_compuesto_10" data-name="&lt;Trazado compuesto&gt;" class="cls-1" d="M93.08,82.05l2.06-5.36h.76l2.19,5.36h-.81l-.62-1.62H94.42l-.59,1.62Zm1.55-2.2h1.82l-.56-1.48q-.26-.68-.38-1.11a6.83,6.83,0,0,1-.29,1Z"/><path id="_Trazado_compuesto_11" data-name="&lt;Trazado compuesto&gt;" class="cls-1" d="M100.33,82.05V76.7h1.85a4.45,4.45,0,0,1,1,.08,1.82,1.82,0,0,1,.79.38,2.18,2.18,0,0,1,.63.92,3.6,3.6,0,0,1,.21,1.27,3.74,3.74,0,0,1-.14,1.08,2.63,2.63,0,0,1-.37.78,1.94,1.94,0,0,1-.49.49,2,2,0,0,1-.64.27,3.64,3.64,0,0,1-.86.09Zm.71-.63h1.14a2.76,2.76,0,0,0,.83-.1,1.19,1.19,0,0,0,.48-.28,1.69,1.69,0,0,0,.39-.68,3.31,3.31,0,0,0,.14-1,2.49,2.49,0,0,0-.28-1.29,1.39,1.39,0,0,0-.67-.61,2.77,2.77,0,0,0-.92-.11H101Z"/><path id="_Trazado_compuesto_12" data-name="&lt;Trazado compuesto&gt;" class="cls-1" d="M105.75,82.05V76.7h3.87v.63h-3.16V79h3v.63h-3v1.82h3.29v.63Z"/><path id="_Trazado_compuesto_13" data-name="&lt;Trazado compuesto&gt;" class="cls-1" d="M112.56,80.33l.67-.06a1.48,1.48,0,0,0,.22.66,1.21,1.21,0,0,0,.54.42,2.05,2.05,0,0,0,.82.16,2,2,0,0,0,.72-.12,1,1,0,0,0,.46-.33.77.77,0,0,0,.15-.46.7.7,0,0,0-.15-.44,1.08,1.08,0,0,0-.48-.32,9.53,9.53,0,0,0-1-.26,4.86,4.86,0,0,1-1-.33,1.45,1.45,0,0,1-.57-.5,1.22,1.22,0,0,1-.19-.67,1.36,1.36,0,0,1,.23-.76,1.42,1.42,0,0,1,.67-.54,2.54,2.54,0,0,1,1-.18,2.68,2.68,0,0,1,1.05.19,1.51,1.51,0,0,1,.7.56,1.62,1.62,0,0,1,.26.84l-.68.05a1.1,1.1,0,0,0-.37-.77,1.44,1.44,0,0,0-.93-.26,1.5,1.5,0,0,0-.94.24.71.71,0,0,0-.29.57.61.61,0,0,0,.21.47,2.82,2.82,0,0,0,1.07.38,7.09,7.09,0,0,1,1.19.34,1.63,1.63,0,0,1,.69.55,1.33,1.33,0,0,1,.22.76,1.46,1.46,0,0,1-.24.81,1.62,1.62,0,0,1-.7.59,2.45,2.45,0,0,1-1,.21,3.08,3.08,0,0,1-1.22-.21,1.71,1.71,0,0,1-.77-.64A1.81,1.81,0,0,1,112.56,80.33Z"/><path id="_Trazado_compuesto_14" data-name="&lt;Trazado compuesto&gt;" class="cls-1" d="M117.2,82.05l2.06-5.36H120l2.19,5.36h-.81l-.62-1.62h-2.24L118,82.05Zm1.55-2.2h1.82L120,78.37q-.26-.68-.38-1.11a6.83,6.83,0,0,1-.29,1Z"/><path id="_Trazado_compuesto_15" data-name="&lt;Trazado compuesto&gt;" class="cls-1" d="M122.76,82.05V76.7h.71v4.72h2.64v.63Z"/><path id="_Trazado_compuesto_16" data-name="&lt;Trazado compuesto&gt;" class="cls-1" d="M130.46,76.7h.71v3.09a3.67,3.67,0,0,1-.18,1.28,1.57,1.57,0,0,1-.66.77,2.34,2.34,0,0,1-1.25.3,2.57,2.57,0,0,1-1.23-.26,1.48,1.48,0,0,1-.68-.75,3.57,3.57,0,0,1-.2-1.34V76.7h.71v3.09a3,3,0,0,0,.13,1,1,1,0,0,0,.45.51,1.55,1.55,0,0,0,.77.18,1.48,1.48,0,0,0,1.11-.35,2,2,0,0,0,.33-1.36Z"/><path id="_Trazado_compuesto_17" data-name="&lt;Trazado compuesto&gt;" class="cls-1" d="M132.35,82.05V76.7h1.85a4.45,4.45,0,0,1,1,.08,1.82,1.82,0,0,1,.79.38,2.18,2.18,0,0,1,.63.92,3.6,3.6,0,0,1,.21,1.27,3.74,3.74,0,0,1-.14,1.08,2.63,2.63,0,0,1-.37.78,1.94,1.94,0,0,1-.49.49,2,2,0,0,1-.64.27,3.64,3.64,0,0,1-.86.09Zm.71-.63h1.14a2.76,2.76,0,0,0,.83-.1,1.19,1.19,0,0,0,.48-.28,1.69,1.69,0,0,0,.39-.68,3.31,3.31,0,0,0,.14-1,2.49,2.49,0,0,0-.28-1.29,1.39,1.39,0,0,0-.67-.61,2.77,2.77,0,0,0-.92-.11h-1.13Z"/></g></g></g></g><g id="_Grupo_6" data-name="&lt;Grupo&gt;"><g id="_Grupo_7" data-name="&lt;Grupo&gt;"><g id="_Grupo_8" data-name="&lt;Grupo&gt;"><rect id="_Trazado_" data-name="&lt;Trazado&gt;" class="cls-1" x="81.56" y="4.03" width="1.14" height="63.72"/><path id="_Trazado_compuesto_18" data-name="&lt;Trazado compuesto&gt;" class="cls-1" d="M101.23,33.44c.79,0,1.26-.28,1.26-.88v0c0-.54-.41-.88-1.32-.88H99.11v1.78Zm-.48-3.27c.79,0,1.29-.26,1.29-.86v0c0-.53-.42-.83-1.17-.83H99.11v1.71Zm-3.38-2.39a.88.88,0,0,1,.89-.89h2.87a2.93,2.93,0,0,1,2.12.72,1.86,1.86,0,0,1,.56,1.38v0a1.89,1.89,0,0,1-1.07,1.75,2,2,0,0,1,1.52,2v0c0,1.48-1.21,2.22-3,2.22h-3a.89.89,0,0,1-.89-.89Z"/><path id="_Trazado_compuesto_19" data-name="&lt;Trazado compuesto&gt;" class="cls-1" d="M113.93,29.71v0a3.24,3.24,0,0,0-3.23-3.35,3.19,3.19,0,0,0-3.2,3.32v0A3.24,3.24,0,0,0,110.73,33a3.19,3.19,0,0,0,3.2-3.32m-8.88,0v0a5.67,5.67,0,0,1,11.33,0v0a5.67,5.67,0,0,1-11.33,0"/><path id="_Trazado_2" data-name="&lt;Trazado&gt;" class="cls-1" d="M117.52,28.33v0a6.9,6.9,0,0,1,7-7,7.44,7.44,0,0,1,4.59,1.31,1.48,1.48,0,0,1,.61,1.19,1.46,1.46,0,0,1-1.46,1.46,1.44,1.44,0,0,1-.9-.31,4.7,4.7,0,0,0-2.94-.92,4,4,0,0,0-3.86,4.19v0a4,4,0,0,0,4.07,4.26,4.73,4.73,0,0,0,2.78-.81V29.82h-2a1.27,1.27,0,0,1-1.29-1.27,1.29,1.29,0,0,1,1.29-1.29h3.38a1.47,1.47,0,0,1,1.48,1.48V32a2,2,0,0,1-1,1.88,8.93,8.93,0,0,1-4.7,1.34,6.73,6.73,0,0,1-7.06-6.91"/><path id="_Trazado_compuesto_20" data-name="&lt;Trazado compuesto&gt;" class="cls-1" d="M144.87,26.83v0a5,5,0,0,0-5-5.17A4.92,4.92,0,0,0,135,26.74v0a5,5,0,0,0,5,5.17,4.92,4.92,0,0,0,4.94-5.12m-13.7,0v0a8.75,8.75,0,0,1,17.49,0v0a8.75,8.75,0,0,1-17.49,0"/><path id="_Trazado_3" data-name="&lt;Trazado&gt;" class="cls-1" d="M153,19.31h-4.16a2,2,0,0,1,0-4h12.66a2,2,0,1,1,0,4h-4.16V33A2.17,2.17,0,0,1,153,33Z"/><path id="_Trazado_compuesto_21" data-name="&lt;Trazado compuesto&gt;" class="cls-1" d="M170.87,9a1.86,1.86,0,0,1,.33-.89L173,5.28a2.16,2.16,0,0,1,1.89-1.13c1.22,0,2.81.76,2.81,1.52a1.64,1.64,0,0,1-.66,1.19L175,8.79a3.7,3.7,0,0,1-2.88,1.09c-.73,0-1.26-.33-1.26-.86m4.57,16.29-3.21-7.65L169,25.31Zm-14.33,6.42,8.08-18.24a3.15,3.15,0,0,1,3-2h.3a3.11,3.11,0,0,1,2.95,2l8.08,18.24a2.52,2.52,0,0,1,.26,1,2.42,2.42,0,0,1-2.42,2.45,2.6,2.6,0,0,1-2.45-1.75l-1.56-3.64h-10.2l-1.62,3.81a2.5,2.5,0,0,1-2.35,1.59,2.34,2.34,0,0,1-2.35-2.38,2.69,2.69,0,0,1,.3-1.09"/><path id="_Trazado_4" data-name="&lt;Trazado&gt;" class="cls-1" d="M97.36,40.16a1.87,1.87,0,0,1,1.89-1.89h.42a1.94,1.94,0,0,1,1.72,1l4.56,7.43,4.58-7.45a1.85,1.85,0,0,1,1.69-1h.42a1.87,1.87,0,0,1,1.89,1.89V53.79a1.87,1.87,0,1,1-3.75,0V45.24l-3.31,5.1a1.76,1.76,0,0,1-3.14,0l-3.26-5v8.53a1.84,1.84,0,0,1-1.86,1.84,1.82,1.82,0,0,1-1.84-1.84Z"/><path id="_Trazado_5" data-name="&lt;Trazado&gt;" class="cls-1" d="M118.63,53.64V40.26a1.87,1.87,0,0,1,1.89-1.89H130a1.7,1.7,0,0,1,1.69,1.69A1.67,1.67,0,0,1,130,41.73h-7.65v3.48h6.54a1.69,1.69,0,0,1,1.69,1.69,1.67,1.67,0,0,1-1.69,1.67h-6.54v3.6h7.77a1.7,1.7,0,0,1,1.69,1.69,1.68,1.68,0,0,1-1.69,1.67h-9.63a1.87,1.87,0,0,1-1.89-1.89"/><path id="_Trazado_6" data-name="&lt;Trazado&gt;" class="cls-1" d="M134.42,54.28a1.88,1.88,0,0,1-.71-1.45A1.79,1.79,0,0,1,135.5,51a1.7,1.7,0,0,1,1.13.39,3.62,3.62,0,0,0,2.28.86c1.47,0,2.35-.86,2.35-2.84V40.11a1.89,1.89,0,0,1,3.78,0V49.6a6.23,6.23,0,0,1-1.62,4.58,6.13,6.13,0,0,1-4.46,1.59,7.26,7.26,0,0,1-4.53-1.49"/><path id="_Trazado_compuesto_22" data-name="&lt;Trazado compuesto&gt;" class="cls-1" d="M162.4,47v0a5.21,5.21,0,0,0-5.2-5.39,5.13,5.13,0,0,0-5.15,5.34v0a5.21,5.21,0,0,0,5.2,5.39A5.13,5.13,0,0,0,162.4,47m-14.29,0v0a9.12,9.12,0,0,1,18.23,0v0a9.12,9.12,0,0,1-18.23,0"/><path id="_Trazado_compuesto_23" data-name="&lt;Trazado compuesto&gt;" class="cls-1" d="M177.31,46.71c1.84,0,2.89-1,2.89-2.43v-.05c0-1.62-1.13-2.45-3-2.45h-3.75v4.92Zm-7.6-6.44a1.87,1.87,0,0,1,1.89-1.89h6a6.84,6.84,0,0,1,5,1.74A5.38,5.38,0,0,1,184,44v0a5.24,5.24,0,0,1-3.43,5.22l2.62,3.19a2.2,2.2,0,0,1,.61,1.45A1.76,1.76,0,0,1,182,55.68a2.25,2.25,0,0,1-1.86-1L176.5,50h-3v3.75a1.89,1.89,0,0,1-3.78,0Z"/><path id="_Trazado_compuesto_24" data-name="&lt;Trazado compuesto&gt;" class="cls-1" d="M100.88,63.24a1.38,1.38,0,0,0,1.56-1.35v0c0-.88-.61-1.35-1.6-1.35H99.33v2.73Zm-3.52-3.52a1,1,0,0,1,1-1H101c2.13,0,3.42,1.26,3.42,3.09v0c0,2.07-1.61,3.14-3.61,3.14H99.33v1.77a1,1,0,0,1-2,0Z"/><path id="_Trazado_compuesto_25" data-name="&lt;Trazado compuesto&gt;" class="cls-1" d="M110.28,63.93,109,61l-1.24,2.95Zm-5.53,2.48,3.11-7a1.22,1.22,0,0,1,1.15-.78h.11a1.2,1.2,0,0,1,1.14.78l3.11,7a1,1,0,0,1,.1.4.93.93,0,0,1-.93.94,1,1,0,0,1-.94-.68l-.6-1.4h-3.93l-.62,1.47a1,1,0,0,1-.91.61.9.9,0,0,1-.91-.92,1,1,0,0,1,.11-.42"/><path id="_Trazado_compuesto_26" data-name="&lt;Trazado compuesto&gt;" class="cls-1" d="M119,63.07c1,0,1.51-.51,1.51-1.26v0c0-.84-.59-1.28-1.54-1.28h-2v2.57Zm-4-3.36a1,1,0,0,1,1-1h3.1a3.56,3.56,0,0,1,2.6.91,2.8,2.8,0,0,1,.77,2v0a2.73,2.73,0,0,1-1.79,2.72l1.37,1.66a1.15,1.15,0,0,1,.32.75.91.91,0,0,1-.93.91,1.18,1.18,0,0,1-1-.51l-1.92-2.43H117v2a1,1,0,0,1-2,0Z"/><path id="_Trazado_compuesto_27" data-name="&lt;Trazado compuesto&gt;" class="cls-1" d="M129.28,63.93,128,61l-1.24,2.95Zm-5.53,2.48,3.11-7a1.21,1.21,0,0,1,1.15-.78h.12a1.2,1.2,0,0,1,1.13.78l3.12,7a1,1,0,0,1,.1.4.93.93,0,0,1-.93.94,1,1,0,0,1-.94-.68l-.6-1.4h-3.93l-.63,1.47a1,1,0,0,1-.9.61.9.9,0,0,1-.91-.92,1,1,0,0,1,.11-.42"/><path id="_Trazado_7" data-name="&lt;Trazado&gt;" class="cls-1" d="M139.93,60.55H138a.91.91,0,0,1,0-1.81h5.74a.91.91,0,0,1,0,1.81H141.9v6.22a1,1,0,0,1-2,0Z"/><path id="_Trazado_compuesto_28" data-name="&lt;Trazado compuesto&gt;" class="cls-1" d="M152.78,63.23v0a2.71,2.71,0,0,0-2.71-2.81,2.67,2.67,0,0,0-2.68,2.78v0A2.71,2.71,0,0,0,150.1,66a2.67,2.67,0,0,0,2.68-2.78m-7.44,0v0a4.75,4.75,0,0,1,9.49,0v0a4.75,4.75,0,0,1-9.49,0"/><path id="_Trazado_compuesto_29" data-name="&lt;Trazado compuesto&gt;" class="cls-1" d="M160.07,65.89a2.55,2.55,0,0,0,2.69-2.67v0a2.57,2.57,0,0,0-2.69-2.69h-1.52v5.38Zm-3.48-6.18a1,1,0,0,1,1-1h2.5a4.45,4.45,0,0,1,4.75,4.44v0a4.47,4.47,0,0,1-4.75,4.47h-2.5a1,1,0,0,1-1-1Z"/><path id="_Trazado_compuesto_30" data-name="&lt;Trazado compuesto&gt;" class="cls-1" d="M173.61,63.23v0a2.71,2.71,0,0,0-2.71-2.81,2.67,2.67,0,0,0-2.68,2.78v0a2.71,2.71,0,0,0,2.7,2.81,2.67,2.67,0,0,0,2.68-2.78m-7.44,0v0a4.75,4.75,0,0,1,9.49,0v0a4.75,4.75,0,0,1-9.49,0"/><path id="_Trazado_8" data-name="&lt;Trazado&gt;" class="cls-1" d="M177.17,66.72a.92.92,0,0,1-.37-.74.9.9,0,0,1,.92-.9.94.94,0,0,1,.56.18,3.77,3.77,0,0,0,2.28.8c.8,0,1.29-.32,1.29-.84v0c0-.5-.31-.75-1.8-1.14-1.8-.46-3-1-3-2.73v0c0-1.62,1.3-2.69,3.13-2.69a5.19,5.19,0,0,1,2.83.79.91.91,0,0,1-.48,1.69.94.94,0,0,1-.5-.14,3.73,3.73,0,0,0-1.88-.6c-.75,0-1.15.34-1.15.78v0c0,.59.38.78,1.93,1.17,1.81.47,2.83,1.12,2.83,2.68v0c0,1.77-1.35,2.77-3.28,2.77a5.76,5.76,0,0,1-3.35-1.07"/><path id="_Trazado_compuesto_31" data-name="&lt;Trazado compuesto&gt;" class="cls-1" d="M7.4,56.34l-.74-2-.73,2Zm2,2.15H8.23l-.47-1.23H5.59l-.45,1.23H4l2.11-5.42H7.25Z"/><polygon id="_Trazado_9" data-name="&lt;Trazado&gt;" class="cls-1" points="9.71 58.49 9.71 53.12 10.8 53.12 10.8 57.58 13.52 57.58 13.52 58.49 9.71 58.49"/><path id="_Trazado_10" data-name="&lt;Trazado&gt;" class="cls-1" d="M17.45,56.49l1.06.34a2.41,2.41,0,0,1-.81,1.32,2.33,2.33,0,0,1-1.44.43,2.34,2.34,0,0,1-1.78-.74,2.82,2.82,0,0,1-.69-2,3,3,0,0,1,.7-2.1A2.4,2.4,0,0,1,16.33,53a2.25,2.25,0,0,1,1.62.59,2.17,2.17,0,0,1,.55,1l-1.09.26a1.11,1.11,0,0,0-.4-.66,1.14,1.14,0,0,0-.74-.25,1.25,1.25,0,0,0-1,.43,2.12,2.12,0,0,0-.38,1.4,2.27,2.27,0,0,0,.37,1.46,1.2,1.2,0,0,0,1,.44,1.1,1.1,0,0,0,.75-.28,1.64,1.64,0,0,0,.45-.88"/><path id="_Trazado_compuesto_32" data-name="&lt;Trazado compuesto&gt;" class="cls-1" d="M22,56.34l-.75-2-.73,2Zm2,2.15H22.83l-.47-1.23H20.19l-.45,1.23H18.58l2.11-5.42h1.16Z"/><polygon id="_Trazado_11" data-name="&lt;Trazado&gt;" class="cls-1" points="24.31 58.49 24.31 53.12 25.4 53.12 25.4 57.58 28.12 57.58 28.12 58.49 24.31 58.49"/><path id="_Trazado_compuesto_33" data-name="&lt;Trazado compuesto&gt;" class="cls-1" d="M29.67,54v3.58h.82a2.67,2.67,0,0,0,.66-.06.93.93,0,0,0,.45-.22,1.2,1.2,0,0,0,.29-.52,3.75,3.75,0,0,0,.11-1,3.45,3.45,0,0,0-.11-1,1.32,1.32,0,0,0-.31-.53,1.15,1.15,0,0,0-.51-.26,6,6,0,0,0-.9,0Zm-1.09-.92h2a3.81,3.81,0,0,1,1,.1,1.77,1.77,0,0,1,.81.5,2.42,2.42,0,0,1,.52.88,4.13,4.13,0,0,1,.17,1.28A3.56,3.56,0,0,1,33,57a2.4,2.4,0,0,1-.58,1,1.89,1.89,0,0,1-.77.43,3.39,3.39,0,0,1-1,.11H28.58Z"/><path id="_Trazado_compuesto_34" data-name="&lt;Trazado compuesto&gt;" class="cls-1" d="M33.7,53.08h1.09v5.42H33.7Zm.27-.5.51-1.1h1.16l-1,1.1Z"/><path id="_Trazado_compuesto_35" data-name="&lt;Trazado compuesto&gt;" class="cls-1" d="M38.39,56.34l-.75-2-.73,2Zm2,2.15H39.21l-.47-1.23H36.57l-.45,1.23H35l2.11-5.42h1.16Z"/><polygon id="_Trazado_12" data-name="&lt;Trazado&gt;" class="cls-1" points="42.15 58.49 42.15 53.08 43.79 53.08 44.77 56.77 45.74 53.08 47.38 53.08 47.38 58.49 46.37 58.49 46.36 54.23 45.28 58.49 44.23 58.49 43.16 54.23 43.16 58.49 42.15 58.49"/><path id="_Trazado_compuesto_36" data-name="&lt;Trazado compuesto&gt;" class="cls-1" d="M51,56.34l-.75-2-.73,2Zm2,2.15H51.85l-.47-1.23H49.21l-.45,1.23H47.6l2.11-5.42h1.17Z"/><polygon id="_Trazado_13" data-name="&lt;Trazado&gt;" class="cls-1" points="54.02 58.49 54.02 56.21 52.04 53.08 53.32 53.08 54.6 55.22 55.85 53.08 57.11 53.08 55.12 56.22 55.12 58.49 54.02 58.49"/><path id="_Trazado_compuesto_37" data-name="&lt;Trazado compuesto&gt;" class="cls-1" d="M58.24,55.78a2,2,0,0,0,.42,1.39,1.39,1.39,0,0,0,1.08.47,1.36,1.36,0,0,0,1.07-.47,2,2,0,0,0,.42-1.41,2,2,0,0,0-.41-1.39,1.52,1.52,0,0,0-2.18,0,2,2,0,0,0-.41,1.4m-1.13,0a3.59,3.59,0,0,1,.24-1.39,2.66,2.66,0,0,1,.5-.74,2.13,2.13,0,0,1,.7-.49A3,3,0,0,1,59.73,53a2.55,2.55,0,0,1,1.92.74,3.34,3.34,0,0,1,0,4.12,2.52,2.52,0,0,1-1.91.74,2.56,2.56,0,0,1-1.93-.74,2.8,2.8,0,0,1-.71-2"/><path id="_Trazado_compuesto_38" data-name="&lt;Trazado compuesto&gt;" class="cls-1" d="M64,55.37h.81a4.47,4.47,0,0,0,1-.06.58.58,0,0,0,.31-.23.68.68,0,0,0,.11-.4.63.63,0,0,0-.15-.44.61.61,0,0,0-.41-.21l-.79,0H64Zm-1.1,3.12V53.08h2.3a3.86,3.86,0,0,1,1.26.15,1.21,1.21,0,0,1,.63.52,1.56,1.56,0,0,1,.24.86,1.46,1.46,0,0,1-.36,1,1.71,1.71,0,0,1-1.07.5,2.49,2.49,0,0,1,.58.46,5.66,5.66,0,0,1,.62.87l.67,1.06H66.46l-.78-1.18a9.83,9.83,0,0,0-.57-.8,1,1,0,0,0-.33-.23,2.08,2.08,0,0,0-.56-.06H64v2.26Z"/><rect id="_Trazado_14" data-name="&lt;Trazado&gt;" class="cls-1" x="56.48" y="66.23" width="1.02" height="1.02"/><polygon id="_Trazado_15" data-name="&lt;Trazado&gt;" class="cls-1" points="12.52 67.23 12.52 61.91 16.46 61.91 16.46 62.81 13.59 62.81 13.59 63.99 16.26 63.99 16.26 64.89 13.59 64.89 13.59 66.33 16.56 66.33 16.56 67.23 12.52 67.23"/><path id="_Trazado_compuesto_39" data-name="&lt;Trazado compuesto&gt;" class="cls-1" d="M20,64.91v1.42h1a4.87,4.87,0,0,0,.74,0,.68.68,0,0,0,.39-.21.65.65,0,0,0,.15-.45.7.7,0,0,0-.12-.41.69.69,0,0,0-.34-.24,3.69,3.69,0,0,0-1-.08Zm0-2.11V64h.7l.78,0a.69.69,0,0,0,.43-.19.55.55,0,0,0,.16-.41.59.59,0,0,0-.14-.4.6.6,0,0,0-.4-.18q-.16,0-.92,0Zm-1.08-.88h2.13A6.17,6.17,0,0,1,22,62a1.42,1.42,0,0,1,.55.22,1.35,1.35,0,0,1,.41.44,1.2,1.2,0,0,1,.16.62,1.23,1.23,0,0,1-.2.69,1.26,1.26,0,0,1-.54.47,1.42,1.42,0,0,1,.74.48,1.27,1.27,0,0,1,.26.81,1.56,1.56,0,0,1-.17.7,1.49,1.49,0,0,1-.46.55,1.54,1.54,0,0,1-.73.25c-.18,0-.61,0-1.3,0H18.92Z"/><path id="_Trazado_compuesto_40" data-name="&lt;Trazado compuesto&gt;" class="cls-1" d="M24.86,64.57a2,2,0,0,0,.42,1.37,1.44,1.44,0,0,0,2.12,0,2,2,0,0,0,.41-1.39,2,2,0,0,0-.4-1.36,1.35,1.35,0,0,0-1.06-.45,1.38,1.38,0,0,0-1.07.46,2,2,0,0,0-.41,1.37m-1.11,0A3.46,3.46,0,0,1,24,63.24a2.77,2.77,0,0,1,.5-.73,2.05,2.05,0,0,1,.69-.47,2.87,2.87,0,0,1,1.14-.21,2.48,2.48,0,0,1,1.88.73,3.26,3.26,0,0,1,0,4,2.47,2.47,0,0,1-1.87.73,2.5,2.5,0,0,1-1.88-.72,2.74,2.74,0,0,1-.7-2"/><path id="_Trazado_16" data-name="&lt;Trazado&gt;" class="cls-1" d="M31.92,65.29v-.9h2.32V66.5a3.06,3.06,0,0,1-1,.58,3.55,3.55,0,0,1-1.3.25A2.85,2.85,0,0,1,30.51,67a2.18,2.18,0,0,1-.94-1,3.29,3.29,0,0,1-.31-1.42,3,3,0,0,1,.35-1.48,2.35,2.35,0,0,1,1-1,2.76,2.76,0,0,1,1.27-.26,2.58,2.58,0,0,1,1.55.42,1.89,1.89,0,0,1,.72,1.15l-1.07.2a1.13,1.13,0,0,0-.42-.62,1.28,1.28,0,0,0-.78-.23,1.45,1.45,0,0,0-1.11.45,1.87,1.87,0,0,0-.42,1.32,2.06,2.06,0,0,0,.42,1.41,1.4,1.4,0,0,0,1.1.48,1.85,1.85,0,0,0,.67-.13,2.25,2.25,0,0,0,.58-.32v-.66Z"/><path id="_Trazado_compuesto_41" data-name="&lt;Trazado compuesto&gt;" class="cls-1" d="M35.81,64.57a2,2,0,0,0,.41,1.37,1.36,1.36,0,0,0,1.06.47,1.38,1.38,0,0,0,1.06-.46,2,2,0,0,0,.41-1.39,2,2,0,0,0-.39-1.36,1.49,1.49,0,0,0-2.14,0,2,2,0,0,0-.4,1.37m-1.11,0a3.4,3.4,0,0,1,.24-1.36,2.57,2.57,0,0,1,.5-.73,2.14,2.14,0,0,1,.69-.47,2.91,2.91,0,0,1,1.15-.21,2.51,2.51,0,0,1,1.88.73,3.27,3.27,0,0,1,0,4,2.8,2.8,0,0,1-3.76,0,2.75,2.75,0,0,1-.7-2"/><polygon id="_Trazado_17" data-name="&lt;Trazado&gt;" class="cls-1" points="41.59 67.23 41.59 62.81 40.01 62.81 40.01 61.91 44.24 61.91 44.24 62.81 42.67 62.81 42.67 67.23 41.59 67.23"/><path id="_Trazado_compuesto_42" data-name="&lt;Trazado compuesto&gt;" class="cls-1" d="M46.33,61.42l.5-1.09H48l-1,1.09Zm1.11,3.69-.74-2-.71,2Zm2,2.12H48.25L47.79,66H45.66l-.44,1.21H44.08l2.07-5.32h1.14Z"/><path id="_Trazado_compuesto_43" data-name="&lt;Trazado compuesto&gt;" class="cls-1" d="M52.5,62.81v3.52h.81a3.05,3.05,0,0,0,.65-.05,1,1,0,0,0,.44-.22,1.15,1.15,0,0,0,.28-.51,3.51,3.51,0,0,0,.1-1,3.17,3.17,0,0,0-.1-.94,1.22,1.22,0,0,0-.31-.52,1,1,0,0,0-.49-.25,5.16,5.16,0,0,0-.88-.05Zm-1.08-.9h2a4,4,0,0,1,1,.1,1.83,1.83,0,0,1,.8.49,2.3,2.3,0,0,1,.51.87,3.83,3.83,0,0,1,.17,1.25,3.49,3.49,0,0,1-.16,1.13,2.45,2.45,0,0,1-.57.94,1.86,1.86,0,0,1-.76.42,3.17,3.17,0,0,1-1,.12h-2Z"/><path id="_Trazado_compuesto_44" data-name="&lt;Trazado compuesto&gt;" class="cls-1" d="M8.17,62.81v3.52H9a3.05,3.05,0,0,0,.65-.05,1,1,0,0,0,.44-.22,1.15,1.15,0,0,0,.28-.51,3.51,3.51,0,0,0,.1-1,3.17,3.17,0,0,0-.1-.94,1.22,1.22,0,0,0-.31-.52,1,1,0,0,0-.49-.25,5.16,5.16,0,0,0-.88-.05Zm-1.08-.9h2a4,4,0,0,1,1,.1,1.83,1.83,0,0,1,.8.49,2.3,2.3,0,0,1,.51.87,3.83,3.83,0,0,1,.17,1.25,3.49,3.49,0,0,1-.16,1.13,2.45,2.45,0,0,1-.57.94,1.86,1.86,0,0,1-.76.42,3.17,3.17,0,0,1-1,.12h-2Z"/><path id="_Trazado_18" data-name="&lt;Trazado&gt;" class="cls-1" d="M61.65,65.27l1,.33a2.4,2.4,0,0,1-.79,1.3,2.51,2.51,0,0,1-3.16-.3,2.76,2.76,0,0,1-.69-2,2.89,2.89,0,0,1,.69-2.06,2.34,2.34,0,0,1,1.8-.74,2.23,2.23,0,0,1,1.59.58,2.08,2.08,0,0,1,.54,1l-1.06.26a1.13,1.13,0,0,0-.4-.65,1.12,1.12,0,0,0-.72-.24,1.2,1.2,0,0,0-1,.43,2.07,2.07,0,0,0-.37,1.38A2.19,2.19,0,0,0,59.53,66a1.16,1.16,0,0,0,.94.43,1.08,1.08,0,0,0,.74-.27,1.59,1.59,0,0,0,.44-.86"/><rect id="_Trazado_19" data-name="&lt;Trazado&gt;" class="cls-1" x="63.29" y="66.24" width="1.02" height="1.02"/><path id="_Trazado_20" data-name="&lt;Trazado&gt;" class="cls-1" d="M25.33,29.38c.1.14.63-.19.58-.33s-.05-.89.44-.93v-.19s-.73,0-.88.47c0,0-.58-.61-.72-.56s.15.88.15.88c-.49-.09-.72.56-.72.56l.09.09a.7.7,0,0,1,1.06,0"/><path id="_Trazado_21" data-name="&lt;Trazado&gt;" class="cls-1" d="M31.25,34.38A2.3,2.3,0,0,0,30.71,36a1.88,1.88,0,0,0,1.45-.7,2,2,0,0,0,.53-1.59,2.17,2.17,0,0,0-1.45.65"/><path id="_Trazado_22" data-name="&lt;Trazado&gt;" class="cls-1" d="M46.6,28.73s.29-.79.15-.88-.72.56-.72.56c-.15-.47-.88-.47-.88-.47v.19c.49,0,.58.7.44.93s.48.47.58.33a.7.7,0,0,1,1.07,0l.1-.09s-.24-.65-.73-.56"/><path id="_Trazado_23" data-name="&lt;Trazado&gt;" class="cls-1" d="M40.25,34.38a2.17,2.17,0,0,0-1.45-.65,2,2,0,0,0,.54,1.59,1.86,1.86,0,0,0,1.45.7,2.29,2.29,0,0,0-.53-1.63"/><path id="_Trazado_compuesto_45" data-name="&lt;Trazado compuesto&gt;" class="cls-1" d="M45.58,31.44c-.58.84-1.26,1-1.69.75s-.58-.93,0-1.73,1.36-1.26,1.79-1,.43,1.17-.1,2M35.05,16.3a.44.44,0,0,1-.48-.42.45.45,0,0,1,.48-.47.44.44,0,0,1,.44.47.42.42,0,0,1-.44.42M27.61,32.18c-.43.28-1.11.09-1.69-.75s-.53-1.78-.1-2,1.25.19,1.79,1,.44,1.49,0,1.73m18.12-2.85a2.12,2.12,0,0,0-2.9.33,2,2,0,0,0,.87,2.6c-.72.06-1.65-.91-1.65-.91-.41.75.34,1.18.92,1.38l-.23.17c-.55-.14-.75.13-.75.13s-1.31-1.35-2.21-2.28l.8-.16C40,29.25,38.42,29,37.36,28.14c-.8-.61.1-.88.31-.68a3.2,3.2,0,0,0,3.78.52,4,4,0,0,1-2.08-2.06,4.49,4.49,0,0,0,5.13-.23c-1.93.33-3.44-1.5-3.44-1.5a5.82,5.82,0,0,0,5.08-1.31,13.6,13.6,0,0,1-3.87-1.08c4.41-.14,4.8-3.27,4.85-3.27-1.21.8-4.46.42-4.46.42,4.6-1.63,4.26-5.42,4.26-5.42-1,1.45-5.42,2.85-5.42,2.85a3,3,0,0,0-2.18,2.71,1.08,1.08,0,0,1-1.06.94c-1.19,0-1.17-1.71-1.17-2.52,0-1.22,0-2.61-.92-2.61H34.43c-.32,0-.86,0-1.08.23-.45.52-.38,1.91-.18,1.63a2.08,2.08,0,0,1,1.11,0c.56.16.15,1.91.15,2.29a1,1,0,0,1-1.07,1,1.08,1.08,0,0,1-1.07-.94,3,3,0,0,0-2.13-2.71s-4.56-1.4-5.52-2.85c0,0-.34,3.83,4.31,5.51,0,0-3.29.28-4.5-.52,0,0,.63,3.27,5,3.41a14.84,14.84,0,0,1-4,.84,5.62,5.62,0,0,0,5.18,1.68,4.91,4.91,0,0,1-3.64,1.22A4.5,4.5,0,0,0,32.2,26a3.82,3.82,0,0,1-2,2A3.26,3.26,0,0,0,34,27.47c.26-.29,1.09,0,.26.68-1.1.84-2.68,1-3.35,2.45l.81.16c-.92.93-2.14,2.24-2.27,2.27s-.18-.25-.69-.14l-.21-.16c.58-.2,1.32-.63.92-1.38,0,0-.93,1-1.64.91a2,2,0,0,0,.87-2.6,2.12,2.12,0,0,0-2.9-.33,2,2,0,0,0-1,2.71,2,2,0,0,0,2.75.37,3.05,3.05,0,0,1-1.64,1s.59,1.15,1.92-.38l.21.16c-.36.28-.5.76-.21,1,0,0-.14.75.73.7a.68.68,0,0,0,.92.21,11,11,0,0,1,.36,2.54l1.12,0a8.5,8.5,0,0,0-1-3.46.36.36,0,0,0,.08-.55,31.4,31.4,0,0,1,2.76-1.78l.15.76a3.2,3.2,0,0,1,1.68-1.12,4.65,4.65,0,0,0-.91,3.74s.19-.61,1.16-.71c0,0-1.36,1.64.82,4.81,2.18-3.18.92-4.81.92-4.81a1.38,1.38,0,0,1,1.21.71,4.73,4.73,0,0,0-1-3.77,3.12,3.12,0,0,1,1.7,1.15l.15-.77c1.17.73,2.78,1.74,2.75,1.8-.18.2-.07.41.11.56a8.73,8.73,0,0,0-1,3.45l1.12,0A11.44,11.44,0,0,1,42,35.08a.7.7,0,0,0,.89-.23c.87,0,.73-.7.73-.7.28-.2.15-.66-.21-.94l.24-.19c1.32,1.53,1.92.38,1.92.38a3,3,0,0,1-1.64-1A2,2,0,0,0,46.7,32a2,2,0,0,0-1-2.71"/><polygon id="_Trazado_24" data-name="&lt;Trazado&gt;" class="cls-1" points="36.8 14.48 37.77 12.99 36.27 13.55 35.73 12.2 35.15 13.55 33.6 12.99 34.62 14.48 36.8 14.48"/><path id="_Trazado_25" data-name="&lt;Trazado&gt;" class="cls-1" d="M21.32,25.55c0-.93-.58-1.63-1.07-1.59s-.77.8-.72,1.73.53,1.36,1,1.31.87-.56.82-1.45"/><path id="_Trazado_26" data-name="&lt;Trazado&gt;" class="cls-1" d="M51.36,37.47c-.39-.23-1.16.14-1.69.89s-.43,1.4,0,1.64,1,0,1.55-.7.54-1.59.15-1.82"/><path id="_Trazado_27" data-name="&lt;Trazado&gt;" class="cls-1" d="M41.69,9c0-.42-.49-.89-1.41-.94s-1.74.47-1.74.89.77.84,1.69.89,1.5-.37,1.46-.84"/><path id="_Trazado_28" data-name="&lt;Trazado&gt;" class="cls-1" d="M22.07,38.36c-.54-.75-1.31-1.12-1.7-.89s-.39,1.07.14,1.82,1.17.93,1.55.7.48-.88,0-1.64"/><path id="_Trazado_29" data-name="&lt;Trazado&gt;" class="cls-1" d="M33.77,42.93c-1-.14-1.79.09-1.89.52s.53,1,1.46,1.21,1.55-.14,1.65-.6-.29-.93-1.21-1.13"/><path id="_Trazado_compuesto_46" data-name="&lt;Trazado compuesto&gt;" class="cls-1" d="M53.5,29.62a1.94,1.94,0,0,1-1.38.52,4.63,4.63,0,0,1-.22,2.8l-.77-.6c1.16-2.32-.47-3.14-.36-4.6-1.65.35-1.47-.73-1.47-.73a2.7,2.7,0,0,0,1.76.08,1.84,1.84,0,0,1-1.86-1.72,2.06,2.06,0,0,1,2.28-1.5,1.94,1.94,0,0,1,2,1.78,2,2,0,0,1-2.13,1.46c.52.43,1.79.22,1.79.22-.15.9-1.2.64-1.73.45,0,.31,0,.63.43,1.46a4,4,0,0,1,.19.44,1.42,1.42,0,0,1,.49-.81A1.87,1.87,0,0,1,54,28.36a1.51,1.51,0,0,1-.48,1.26m-.74,7.71a.6.6,0,0,0-1,0c0,.1-.59-.23-.54-.32a.61.61,0,0,0-.38-.89l0-.14s.63,0,.78.42c0,0,.53-.56.68-.47s-.2.79-.2.79c.48-.09.73.51.73.51Zm-.49,2.53a1.94,1.94,0,0,1-2.57.32,2.76,2.76,0,0,0,1.5.94s-.55.95-1.66-.26c-.51.73-1.32.94-2,1.48a1.89,1.89,0,0,1,.65-.05,2.09,2.09,0,0,1,1.45.65,1.78,1.78,0,0,1-1.4.52,2.27,2.27,0,0,1-1.28-.51,3.59,3.59,0,0,0-.56,1.35l-1,0a5.09,5.09,0,0,1,2.42-2.9c.83-.42,1.09-.63,1.26-.91-.53-.15-1.55-.56-1.11-1.33,0,0,.87.84,1.54.82a1.77,1.77,0,0,1-.71-2.4,2,2,0,0,1,2.67-.23,1.87,1.87,0,0,1,.87,2.47M35.71,41.27a13.1,13.1,0,0,0-7.55-1.83,4.88,4.88,0,0,1-5-5l0-22.94c3.06,1.63,9.76.54,12.69-1,3,1.54,9.59,2.6,12.69,1l0,22.94a5.19,5.19,0,0,1-5.31,5,13.06,13.06,0,0,0-7.5,1.83m4.74,3.63a3.78,3.78,0,0,0-1.4-.57,1.85,1.85,0,0,1-.53,1.22,1.83,1.83,0,0,1-1.36.61,2.48,2.48,0,0,1,.54-1.5,1.84,1.84,0,0,1,.51-.35,8.18,8.18,0,0,1-2.51.34c.1,1.6-1,1.28-1,1.28a2.63,2.63,0,0,0,.36-1.66,1.82,1.82,0,0,1-2,1.52,2,2,0,0,1-1.26-2.33,1.92,1.92,0,0,1,2.08-1.68A1.88,1.88,0,0,1,35.11,44c.49-.43.45-1.59.45-1.59.91.25.51,1.2.25,1.66a2.91,2.91,0,0,0,1.54-.16,5.47,5.47,0,0,1,3.87.37Zm-9-1.26c-.29-.05-.82.24-.72.7h-.14s-.25-.56.14-.84c0,0-.77-.33-.73-.47s.83-.09.83-.09c-.24-.42.24-.84.24-.84l.14.1c-.29.37.1.84.34.89s0,.61-.1.56m-6.13.65a3.65,3.65,0,0,0-.56-1.35,2.42,2.42,0,0,1-1.28.51,1.72,1.72,0,0,1-1.41-.52,2,2,0,0,1,1.45-.65,1.87,1.87,0,0,1,.64,0c-.69-.54-1.52-.74-2-1.47-1.11,1.21-1.67.26-1.67.26a2.68,2.68,0,0,0,1.53-1,1.9,1.9,0,0,1-2.59-.28,1.87,1.87,0,0,1,.87-2.47,2,2,0,0,1,2.67.23,1.76,1.76,0,0,1-.76,2.4c.67.06,1.58-.81,1.58-.81.44.77-.58,1.18-1.11,1.33.16.29.43.5,1.25.91a5.06,5.06,0,0,1,2.42,2.9Zm-6.44-7-.09-.09s.24-.61.73-.51c0,0-.34-.7-.19-.79s.68.47.68.47c.15-.42.78-.42.78-.42l0,.14a.64.64,0,0,0-.44.89c.09.09-.44.42-.48.32a.65.65,0,0,0-1,0m-1.14-9a1.83,1.83,0,0,1,1.45.52,1.24,1.24,0,0,1,.51.82,2.91,2.91,0,0,1,.18-.45c.39-.83.47-1.15.42-1.46-.53.19-1.59.45-1.73-.45,0,0,1.27.2,1.79-.22a2,2,0,0,1-2.13-1.46,2,2,0,0,1,2-1.78,2.05,2.05,0,0,1,2.28,1.5,1.85,1.85,0,0,1-1.86,1.72A2.9,2.9,0,0,0,22.48,27s.13,1.08-1.52.73c.14,1.46-1.48,2.28-.37,4.6l-.78.6a4.79,4.79,0,0,1-.2-2.8,2,2,0,0,1-1.4-.52,1.36,1.36,0,0,1-.44-1.26m3.58-5.42,0,.14a.58.58,0,0,0-.78.51c0,.14-.58.19-.62.05a.67.67,0,0,0-.87-.47L19,23s.48-.38.87-.09c0,0,.1-.75.25-.75s.38.7.38.7c.29-.28.87,0,.87,0M20.28,10.19a1.87,1.87,0,0,1,2,1.73,2,2,0,0,1-2.07,1.5,3.07,3.07,0,0,0,1.73.19c-.14.91-1.2.64-1.73.45,0,.31,0,.64.42,1.46a4.87,4.87,0,0,1,.1,3.69l-.78-.61a3.6,3.6,0,0,0,.39-1.42A2.15,2.15,0,0,1,19,16.83a1.55,1.55,0,0,1-.77-1.17,2.41,2.41,0,0,1,1.6.28,2.11,2.11,0,0,1,.44.4c-.23-.84-.75-1.47-.66-2.33-1.65.34-1.52-.73-1.52-.73a3,3,0,0,0,1.73.12A1.88,1.88,0,0,1,18,11.64a2,2,0,0,1,2.27-1.45m-.24-1s.24-.75.38-.7.24.75.24.75c.39-.28.87.14.87.14l0,.09a.67.67,0,0,0-.87.47c0,.14-.63.09-.63,0s-.34-.7-.77-.51l0-.14s.58-.32.87,0m4.4.23a4,4,0,0,0,1.5.27,2,2,0,0,1,.24-1.34,1.63,1.63,0,0,1,1.16-.84A1.9,1.9,0,0,1,27.16,9a1.56,1.56,0,0,1-.39.5c.85-.27,1.45-.82,2.33-.86-.43-1.55.68-1.51.68-1.51a2.61,2.61,0,0,0,0,1.71A1.79,1.79,0,0,1,31.42,7a1.88,1.88,0,0,1,1.75,2A1.82,1.82,0,0,1,31.57,11a1.87,1.87,0,0,1-1.74-1.9c-.39.54-.1,1.72-.1,1.72-.89,0-.73-1.11-.61-1.61a3.45,3.45,0,0,0-1.43.54,5.42,5.42,0,0,1-3.82.43Zm9-.7c.25,0,.72-.37.48-.79l.15,0s.39.51.1.84c0,0,.83.14.83.28s-.77.28-.77.28c.29.33-.05.84-.05.84H34a.68.68,0,0,0-.58-.84c-.14,0-.14-.56,0-.56m4,0c-.29-.33.09-.84.09-.84l.15,0c-.24.42.24.79.49.79s.14.56,0,.56a.68.68,0,0,0-.59.84h-.14s-.34-.51,0-.84c0,0-.78-.14-.78-.28s.83-.28.83-.28M40.23,7a1.78,1.78,0,0,1,1.6,1.9,2.55,2.55,0,0,0,0-1.71s1.12,0,.69,1.51c.87,0,1.48.59,2.32.86A1.72,1.72,0,0,1,44.5,9a1.88,1.88,0,0,1-.19-1.54,1.64,1.64,0,0,1,1.16.84,2,2,0,0,1,.24,1.34,3.93,3.93,0,0,0,1.5-.27l.58.8A5.42,5.42,0,0,1,44,9.77a3.44,3.44,0,0,0-1.43-.54c.12.51.28,1.58-.61,1.61,0,0,.3-1.18-.1-1.72A1.86,1.86,0,0,1,40.09,11,1.82,1.82,0,0,1,38.5,9a1.88,1.88,0,0,1,1.74-2M52.73,23l-.06.14a.66.66,0,0,0-.87.47c0,.14-.63.09-.63-.05a.58.58,0,0,0-.77-.51l0-.14s.58-.32.87,0c0,0,.25-.75.39-.7s.24.75.24.75c.39-.28.88.09.88.09M51.45,10.19a2,2,0,0,1,2.28,1.45,1.88,1.88,0,0,1-1.78,1.75,3,3,0,0,0,1.73-.12s.13,1.08-1.53.73c.07.87-.49,1.52-.7,2.39a2,2,0,0,1,.49-.46,2.42,2.42,0,0,1,1.6-.28,1.74,1.74,0,0,1-.77,1.17,2.19,2.19,0,0,1-1.38.35,3.61,3.61,0,0,0,.41,1.42l-.78.61a4.68,4.68,0,0,1,.1-3.69c.39-.83.47-1.15.42-1.46-.53.19-1.59.45-1.73-.45a3.07,3.07,0,0,0,1.73-.19,2,2,0,0,1-2.08-1.5,1.88,1.88,0,0,1,2-1.73m-.39-1s.1-.75.25-.75.39.7.39.7c.29-.28.87,0,.87,0l0,.14a.58.58,0,0,0-.78.51c0,.14-.63.19-.63,0a.67.67,0,0,0-.87-.47l-.05-.09s.49-.42.87-.14M35.75,3.9a20.57,20.57,0,0,1-19,0V38a7.57,7.57,0,0,0,7.7,7.49c4.12,0,7.79.57,11.34,2.84,3.54-2.23,7.18-2.84,11.29-2.84A7.61,7.61,0,0,0,54.78,38V3.86a20.61,20.61,0,0,1-19,0"/><path id="_Trazado_30" data-name="&lt;Trazado&gt;" class="cls-1" d="M20,13.27c.44,0,.92-.42,1-1.31s-.29-1.68-.73-1.73-1,.65-1.07,1.59.34,1.4.82,1.45"/><path id="_Trazado_31" data-name="&lt;Trazado&gt;" class="cls-1" d="M51.69,13.27c.43,0,.87-.56.82-1.45s-.58-1.63-1.07-1.59-.82.79-.77,1.73.53,1.36,1,1.31"/><path id="_Trazado_32" data-name="&lt;Trazado&gt;" class="cls-1" d="M31.42,9.86c.92,0,1.65-.42,1.7-.89s-.78-.89-1.75-.89S30,8.6,30,9s.48.89,1.45.84"/><path id="_Trazado_33" data-name="&lt;Trazado&gt;" class="cls-1" d="M52.24,25.7c.05-.93-.34-1.68-.77-1.73s-1,.65-1.07,1.59.39,1.4.82,1.45,1-.42,1-1.31"/></g></g></g></g></svg>