<svg id="Capa_1" data-name="Capa 1" xmlns="http://www.w3.org/2000/svg" viewBox="0 0 305 166"><defs><style>.cls-1{fill:#d7006c;}.cls-2{fill:#0085cc;}</style></defs><title>cuidate</title><g id="_Grupo_" data-name="&lt;Grupo&gt;"><g id="_Grupo_2" data-name="&lt;Grupo&gt;"><path id="_Trazado_compuesto_" data-name="&lt;Trazado compuesto&gt;" class="cls-1" d="M44.22,56.84a16.57,16.57,0,0,0-3.33-3.74,9.69,9.69,0,0,0-3.2-1.58A13.35,13.35,0,0,0,34.1,51,11,11,0,0,0,29,52.28a13,13,0,0,0-4.1,3.36,16.3,16.3,0,0,0-2.72,4.94,17.94,17.94,0,0,0-1,6,18.29,18.29,0,0,0,1,6,16,16,0,0,0,2.69,4.93,12.88,12.88,0,0,0,4.09,3.34,11.1,11.1,0,0,0,5.21,1.24,10.43,10.43,0,0,0,3.69-.64,12.38,12.38,0,0,0,3.11-1.7,12.82,12.82,0,0,0,2.45-2.42A11.9,11.9,0,0,0,45,74.47l10.61,3a21.08,21.08,0,0,1-3,6,20.85,20.85,0,0,1-4.76,4.76,23,23,0,0,1-6.26,3.16,23.68,23.68,0,0,1-7.5,1.15,22.65,22.65,0,0,1-6.49-.92A23.49,23.49,0,0,1,21.83,89,23.79,23.79,0,0,1,17,84.92a25.44,25.44,0,0,1-3.74-5.26,27.62,27.62,0,0,1-3.26-13.1A26.85,26.85,0,0,1,11.83,56.5,26.22,26.22,0,0,1,17,48.29a24.15,24.15,0,0,1,7.66-5.54,22.36,22.36,0,0,1,9.47-2,20.14,20.14,0,0,1,6.82,1,19.76,19.76,0,0,1,6.1,4H54.4V56.84Z"/><path id="_Trazado_compuesto_2" data-name="&lt;Trazado compuesto&gt;" class="cls-1" d="M82.81,57.47H99V82.58h4.12v9H88.6v-2.9a12.33,12.33,0,0,1-4.09,2.44,17,17,0,0,1-10.74,0,12,12,0,0,1-4.37-2.69,12.57,12.57,0,0,1-2.93-4.5,17.21,17.21,0,0,1-1.07-6.36V66.5H61v-9H76.05v20.1a6.84,6.84,0,0,0,1.75,5.12,6.25,6.25,0,0,0,4.55,1.7,5.82,5.82,0,0,0,3.59-1.22,6.84,6.84,0,0,0,2.34-3.3V66.5H82.81Z"/><path id="_Trazado_compuesto_3" data-name="&lt;Trazado compuesto&gt;" class="cls-1" d="M108.08,57.47H123.4V82.58h4.75v9H108.08v-9h5.14V66.5h-5.14Zm14.77-15H133.6v.82l-10.09,9.43h-7.75Z"/><path id="_Trazado_compuesto_4" data-name="&lt;Trazado compuesto&gt;" class="cls-1" d="M152.63,40.33h14.93V82.58h6.66v9H157.41V90.29a19.36,19.36,0,0,1-3.64,1.45,13.82,13.82,0,0,1-3.77.53,18.15,18.15,0,0,1-7.2-1.4A17,17,0,0,1,137.16,87a17.54,17.54,0,0,1-3.67-5.72,19.46,19.46,0,0,1,0-14,17.32,17.32,0,0,1,3.62-5.65,16.79,16.79,0,0,1,5.57-3.79,18,18,0,0,1,7.13-1.38A18.38,18.38,0,0,1,157.41,58V49.36h-4.78Zm-2.08,42.84a8,8,0,0,0,3.94-1.12,9.11,9.11,0,0,0,2.92-2.77V69.23a8.06,8.06,0,0,0-3-2.72,8.69,8.69,0,0,0-7.08-.35,8,8,0,0,0-2.64,1.78,8.41,8.41,0,0,0-1.8,2.77,10.43,10.43,0,0,0,0,7.3,8.2,8.2,0,0,0,1.8,2.77,7.69,7.69,0,0,0,2.64,1.73A9.66,9.66,0,0,0,150.55,83.17Z"/><path id="_Trazado_compuesto_5" data-name="&lt;Trazado compuesto&gt;" class="cls-1" d="M199.55,89.76q-1.15.73-2.11,1.24a11.58,11.58,0,0,1-3.89,1.29,15.65,15.65,0,0,1-2.24.15,16.68,16.68,0,0,1-5.49-.84,12.08,12.08,0,0,1-4.09-2.31,10,10,0,0,1-2.55-3.46,11,11,0,0,1,0-8.72,9.55,9.55,0,0,1,2.62-3.44,12.47,12.47,0,0,1,4.2-2.24,18.41,18.41,0,0,1,5.68-.81,33.74,33.74,0,0,1,4.27.25q1.93.25,3.58.61V70.42a4.72,4.72,0,0,0-.49-2.22,4.26,4.26,0,0,0-1.38-1.55,6.13,6.13,0,0,0-2.14-.89,12.59,12.59,0,0,0-2.73-.28,21.9,21.9,0,0,0-5.45.61,20.78,20.78,0,0,0-4.53,1.76l-3.16-6.39a28,28,0,0,1,7-3.53,24.57,24.57,0,0,1,7.79-1.22,23.43,23.43,0,0,1,5.91.71,12,12,0,0,1,4.66,2.31,10.81,10.81,0,0,1,3,4.17,15.85,15.85,0,0,1,1.1,6.26V82.58h4.58v9H199.55ZM192,84.65a11.45,11.45,0,0,0,4.25-.76,12.53,12.53,0,0,0,3.26-1.85V77.7h-7.91a4.85,4.85,0,0,0-1.48.23,4.39,4.39,0,0,0-1.3.66,3.26,3.26,0,0,0-.92,1.05,3,3,0,0,0-.35,1.45,3.32,3.32,0,0,0,1.1,2.54A4.78,4.78,0,0,0,192,84.65Z"/><path id="_Trazado_compuesto_6" data-name="&lt;Trazado compuesto&gt;" class="cls-1" d="M255.11,76.68l.1,1a6.8,6.8,0,0,0,1.24,2.6,8.15,8.15,0,0,0,2.06,1.88,9.15,9.15,0,0,0,2.64,1.14,11.53,11.53,0,0,0,2.93.38,20.87,20.87,0,0,0,2.82-.18,23.53,23.53,0,0,0,2.59-.49q1.25-.31,2.44-.72t2.41-.87l3.62,6.76q-1.88,1.15-3.44,2a22.11,22.11,0,0,1-3.15,1.34,18.85,18.85,0,0,1-3.36.77,30.56,30.56,0,0,1-4.15.25A20.1,20.1,0,0,1,255.93,91a16.6,16.6,0,0,1-9.41-9.84,20.46,20.46,0,0,1-1.24-7.12,19,19,0,0,1,1.3-7.05,17.1,17.1,0,0,1,9.34-9.62A18.32,18.32,0,0,1,263.25,56a18,18,0,0,1,7.13,1.33A15,15,0,0,1,275.64,61a16.5,16.5,0,0,1,3.3,5.54,21.66,21.66,0,0,1,1.25,6.84q.1.82.12,1.63t0,1.66ZM263,64.22a9.79,9.79,0,0,0-3.15.44,6.5,6.5,0,0,0-2.19,1.22,6.19,6.19,0,0,0-1.42,1.76,10,10,0,0,0-.82,2.08h14.27a10.77,10.77,0,0,0-.66-2.11,5.6,5.6,0,0,0-1.19-1.75,5.4,5.4,0,0,0-1.93-1.2A8.27,8.27,0,0,0,263,64.22Z"/><path id="_Trazado_compuesto_7" data-name="&lt;Trazado compuesto&gt;" class="cls-1" d="M289.44,82.28l10.05,3.53-9.39,17.83-6.76-2.57Z"/><path id="_Trazado_" data-name="&lt;Trazado&gt;" class="cls-1" d="M226.11,21.71s.7-4.47,2.83-5.45c0,0,3.49-2.45,6.44,1.37a5.32,5.32,0,0,1,1.16,4c0,.13-.32,1.2-.19,1.17,1.26-.34.43,1.49.12,1.82-.61.66-.61.66-1,.52a15.14,15.14,0,0,0-1.81,3c-.35,1.14.23,1.51.23,1.51a4.58,4.58,0,0,1,2.54.64c1.06.73,5.44-.55,7.54.73s11.25.64,12.07.64,6.46-4,6.46-4a48.65,48.65,0,0,0,5-3.31c.58-.61,10.16-5.11,9.44-3.38,0,0-3.32,1.68-3.68,1.78-.11,0,.64.23.6.72,0,.33-.83.46-.5.67,1.22.79,0,1,.26,1.24,1.17.95-.6,1.46-.6,1.46a9.34,9.34,0,0,1-1.65.37,9.92,9.92,0,0,0-1.37.18,7.61,7.61,0,0,1-.91.37c-.55.18-1.28.37-1.28.37s-.09,0-.55.46-2.44,2.67-3.1,3.31S260,34.76,260,34.76s-1.24.74-2,1.28c-.22.16-.21.63-2.59.29a29.38,29.38,0,0,0-3.17.13,13,13,0,0,1-9.8-.42s-1.55-.21-1.64.79-.55,2.1-.82,3.37a9.37,9.37,0,0,0,.55,3.65s-2.92,10.77-3,11.5,2.55,2.92,2.65,3.56.27,5.48.27,5.48-.82,3.83-.18,4.47c0,0,.46.27-.46,1S239,71,239,71a62.53,62.53,0,0,1-.27,7.58c-.36,1.92-1,10.4-3.1,10.86a2.72,2.72,0,0,1-2.74-1.28s-1.19-.91-1.09-1.55l.09-.64s-1.1-2.1-.73-3.1L231,80a3.29,3.29,0,0,1-.82-.82,7.19,7.19,0,0,1-.37-1.1s-1.19,4.75-1,5.66a13.43,13.43,0,0,1,0,3.1,4.21,4.21,0,0,1,0,2.59,7,7,0,0,0-.59,2.34s.91,2.46.59,3.83-1.14,7-1.14,7-.27,7.67,0,8.21,1.83,2.1,1.64,2.83.36,1.19.64,1.83a3.57,3.57,0,0,1-.18,1.92s1,1.28.55,1.46a41.42,41.42,0,0,0-4.29,1.64c-.46.37-1.83-.27-2-.82s.18-1.37,0-1.73l-.55-1.1-.54-1.37v-1.37s.89-.55.48-1.1.24-1.28.24-1.28l.44-.55s-1.95-14.15-1.86-15.42.21-4.75.67-4.75.47-3.92.38-4.75a8.22,8.22,0,0,0-.85-2.16c-.36-.91-2.71-7.8-2.15-13.36.23-2.24-.08,1.6-1.92-.61-.61-.73-1.53-.11-1.53-.11s-3.17.62-.62-2.83a8.74,8.74,0,0,0,1-3.89c0-.54.59-.41.59-.41s2.12-5.11,2.67-5.11,1.08-.91,1.08-.91l-.32-1s-1-1.28-1.64-1.92-.72-6.66-.72-6.66V41.86s.54-2.83.54-3.19a16.92,16.92,0,0,0-2.4-4.29c-.55-.37-7.21-.53-11.76-4.8l-2-.77c-.28-.11-.94-1.29-1.24-1.47a22.29,22.29,0,0,1-8.5-10.8s-.75-1.32-1-1.32a20.87,20.87,0,0,1-3.18-1.4C188,13,186.74,11.48,187.51,11c.24-.16-.27-.76,0-1.27.11-.22.25-.22.38-.42s0-.9.14-1.12c.22-.4.79-.28.8-.16l-2.16-2.65s.26-1.06,1.9.6a39.68,39.68,0,0,1,3.75,3.59,36.74,36.74,0,0,1,3.27,4.81s3.09,2.56,5.4,4.9c2.83,2.86,5,5.62,5.27,5.86.72.64,2.58.49,9.4,3.37.56.24,2.26-.83,7.58,1.73,0,0,1.44-.79,2.83-1.37.86-.36.27-1.73.27-1.73s-.29-2-.55-2.1-.55-.64-.55-.64-.41-2-.09-2.28.82.09.82.09Z"/></g><g id="_Grupo_3" data-name="&lt;Grupo&gt;"><path id="_Trazado_compuesto_8" data-name="&lt;Trazado compuesto&gt;" class="cls-2" d="M21.44,113.72a5.36,5.36,0,0,0-2.44-.48,6.57,6.57,0,0,0-1.19.1,3.42,3.42,0,0,0-1,.32,1.88,1.88,0,0,0-.66.55,1.28,1.28,0,0,0-.24.77,1.17,1.17,0,0,0,.29.72,1.89,1.89,0,0,0,1.1.55l3.78.81a10.7,10.7,0,0,1,3,1.11,7.59,7.59,0,0,1,2,1.64,6.06,6.06,0,0,1,1.14,2,6.44,6.44,0,0,1,.36,2.09,8,8,0,0,1-1,4,8.19,8.19,0,0,1-2.55,2.73,11.21,11.21,0,0,1-3.56,1.56,16.5,16.5,0,0,1-4,.5,13.11,13.11,0,0,1-5.4-.92,6.14,6.14,0,0,1-1.85-1.31H5.5L7,124.14h6.9a3.67,3.67,0,0,0,0,1.44,1.71,1.71,0,0,0,.52.81,2.56,2.56,0,0,0,1,.54,4.62,4.62,0,0,0,1.36.18,4.78,4.78,0,0,0,2.53-.58,1.75,1.75,0,0,0,.93-1.55,1.35,1.35,0,0,0-.42-1,3.5,3.5,0,0,0-1.52-.72l-3-.76a10.44,10.44,0,0,1-2.87-1.16,8.5,8.5,0,0,1-2.06-1.72A7,7,0,0,1,9,117.54a6.89,6.89,0,0,1,.44-5.73,7.44,7.44,0,0,1,2.34-2.46,11.12,11.12,0,0,1,3.39-1.48,16,16,0,0,1,4-.5,13.85,13.85,0,0,1,2.8.27,10.4,10.4,0,0,1,2.27.73,9.4,9.4,0,0,1,1,.53h4.84l-1.48,6.32H22.46A1.77,1.77,0,0,0,21.44,113.72Z"/><path id="_Trazado_compuesto_9" data-name="&lt;Trazado compuesto&gt;" class="cls-2" d="M38.14,121.84a5.87,5.87,0,0,0,.18,1.06,4,4,0,0,0,.77,1.53,3.72,3.72,0,0,0,1.42,1,5.32,5.32,0,0,0,2.12.38,7.29,7.29,0,0,0,1.7-.18,7.18,7.18,0,0,0,1.46-.52,8.64,8.64,0,0,0,1.33-.8q.63-.46,1.26-1l5.07,4.45a14.28,14.28,0,0,1-5.37,3.66,18.18,18.18,0,0,1-6.55,1.16,12.07,12.07,0,0,1-4.24-.74,10.28,10.28,0,0,1-3.46-2.11,10,10,0,0,1-2.34-3.33,10.8,10.8,0,0,1-.87-4.41,14.72,14.72,0,0,1,1.19-6,14.13,14.13,0,0,1,7.84-7.6,15,15,0,0,1,5.57-1,11,11,0,0,1,4.29.82,10.78,10.78,0,0,1,3.38,2.19,10,10,0,0,1,2.21,3.17,9.14,9.14,0,0,1,.8,3.74q0,.46,0,1t-.14,1.19q-.09.61-.23,1.21t-.3,1.11Zm1-5.54a3.18,3.18,0,0,0-.16.32H49a2.7,2.7,0,0,0-.4-1.21,3.93,3.93,0,0,0-.95-1,5,5,0,0,0-1.38-.75,5.15,5.15,0,0,0-1.76-.29,7,7,0,0,0-2.2.35,5.63,5.63,0,0,0-1.85,1A5,5,0,0,0,39.14,116.3Zm7.61-18.66h7.52v.58l-7.06,6.6H41.79Z"/><path id="_Trazado_compuesto_10" data-name="&lt;Trazado compuesto&gt;" class="cls-2" d="M72.79,111.35h6.66l1.32-5.6A17.28,17.28,0,0,1,83,100.23a14.41,14.41,0,0,1,3.51-3.84A13.75,13.75,0,0,1,91,94.16a19.28,19.28,0,0,1,5.27-.71,17.54,17.54,0,0,1,3.46.31,15.24,15.24,0,0,1,2.69.77,8.76,8.76,0,0,1,1.88,1,3.59,3.59,0,0,1,1,1l-6.06,7.64a4,4,0,0,0-1.24-.86,5,5,0,0,0-1.93-.3,4.45,4.45,0,0,0-2.77,1A5,5,0,0,0,91.57,107l-1,4.38h7.28L95.59,121H88.28L79,161H67.81l9.36-40H70.58Z"/><path id="_Trazado_compuesto_11" data-name="&lt;Trazado compuesto&gt;" class="cls-2" d="M107.29,131a8.38,8.38,0,0,0,.26,1.52,5.65,5.65,0,0,0,1.1,2.19,5.31,5.31,0,0,0,2,1.48,7.59,7.59,0,0,0,3,.54,10.41,10.41,0,0,0,2.42-.26,10.26,10.26,0,0,0,2.09-.74,12.32,12.32,0,0,0,1.89-1.14q.91-.66,1.8-1.45l7.25,6.36a20.4,20.4,0,0,1-7.68,5.22,26,26,0,0,1-9.36,1.66,17.25,17.25,0,0,1-6.06-1.05,14.69,14.69,0,0,1-4.94-3,14.27,14.27,0,0,1-3.34-4.76,15.43,15.43,0,0,1-1.24-6.29,21,21,0,0,1,1.7-8.57,20.18,20.18,0,0,1,11.2-10.86,21.35,21.35,0,0,1,8-1.5,15.75,15.75,0,0,1,6.13,1.17,15.4,15.4,0,0,1,4.83,3.13,14.29,14.29,0,0,1,3.16,4.53,13.06,13.06,0,0,1,1.14,5.34q0,.66-.07,1.48t-.2,1.7q-.13.87-.33,1.73t-.43,1.58Zm1.42-7.91a4.57,4.57,0,0,0-.23.46h14.27a3.86,3.86,0,0,0-.58-1.73,5.62,5.62,0,0,0-1.35-1.5,7.1,7.1,0,0,0-2-1.07,7.36,7.36,0,0,0-2.52-.41,10,10,0,0,0-3.15.49,8,8,0,0,0-2.64,1.43A7.07,7.07,0,0,0,108.71,123.08Z"/><path id="_Trazado_compuesto_12" data-name="&lt;Trazado compuesto&gt;" class="cls-2" d="M140.64,94.21H158.4l-9.75,42.24h6.23l-2.08,9H135.36l9.75-42.24h-6.56Z"/><path id="_Trazado_compuesto_13" data-name="&lt;Trazado compuesto&gt;" class="cls-2" d="M162.85,111.35h17.53l-5.8,25.11h6.29l-2.11,9H161.23l5.8-25.11h-6.29Zm7.48-11a5.91,5.91,0,0,1,.44-2.29A5.69,5.69,0,0,1,172,96.19a5.91,5.91,0,0,1,1.86-1.25,5.81,5.81,0,0,1,2.32-.46,5.53,5.53,0,0,1,2.24.46,5.88,5.88,0,0,1,3.1,3.11,5.92,5.92,0,0,1,0,4.58,5.88,5.88,0,0,1-3.1,3.11,5.52,5.52,0,0,1-2.24.46,5.8,5.8,0,0,1-2.32-.46,5.9,5.9,0,0,1-1.86-1.25,5.69,5.69,0,0,1-1.24-1.86A5.91,5.91,0,0,1,170.33,100.34Z"/><path id="_Trazado_compuesto_14" data-name="&lt;Trazado compuesto&gt;" class="cls-2" d="M183.7,140.08l18.91-20h-6.79l-1.19,5.14h-8.57l3.16-13.91h29.89l-1.35,5.93-19,19.38H206l1.42-6H216l-3.39,14.86H182.48Z"/></g></g></svg>