<svg id="Capa_1" data-name="Capa 1" xmlns="http://www.w3.org/2000/svg" viewBox="0 0 320 130"><defs><style>.cls-1{fill:#f7ba83;}.cls-1,.cls-10,.cls-2,.cls-3,.cls-4,.cls-5,.cls-6,.cls-7,.cls-8,.cls-9{fill-rule:evenodd;}.cls-2{fill:#d29c6d;}.cls-3{fill:#1e75ba;}.cls-4{fill:#414042;}.cls-5{fill:#58574c;}.cls-6{fill:#e5e6e7;}.cls-7{fill:#df9e64;}.cls-8{fill:#2c2d2c;}.cls-9{fill:#323333;}.cls-10{fill:#8b7684;}.cls-11{fill:#ed6b83;}.cls-12{fill:#ea5062;}.cls-13{fill:#f9c28a;}.cls-14{fill:#383838;}.cls-15{fill:#898988;}.cls-16{fill:#211d1e;}.cls-17{fill:#4ebdc6;}.cls-18{fill:#929192;}.cls-19{fill:#7a7a7a;}.cls-20{fill:#a47c59;}.cls-21{fill:#eb5d69;}.cls-22{fill:#e5253b;}.cls-23{fill:#616160;}.cls-24{fill:#1e2121;}.cls-25{fill:#6dc3c2;}.cls-26{fill:#8fcfd1;}.cls-27{fill:#2d2c2c;}.cls-28{fill:#f4b77f;}.cls-29{fill:#4d4d4f;}.cls-30{fill:#f5eaea;}.cls-31{fill:#e54559;}.cls-32{fill:#fff;opacity:0.1;}.cls-33{fill:#ef7889;}</style></defs><title>people-pie</title><g id="_Grupo_" data-name="&lt;Grupo&gt;"><path id="_Trazado_" data-name="&lt;Trazado&gt;" class="cls-1" d="M221.55,46.18a1.38,1.38,0,0,0-.64.87,1,1,0,0,0,.93,1,.8.8,0,0,0-.63.72,1.17,1.17,0,0,0,.81,1,.56.56,0,0,0-.41.69c0,.21.08.39.61.56l.23.07a11.78,11.78,0,0,0,5.59.16c1.15-.3,9.46,3.33,18.39,2.31,2.85-.32,5.09-6.43,6.52-8.68,1-1.5,3.88-6.85,4.37-7.91s3.28-4.52,3.61-5.49c2.11-6.27-3.59-12.75-9.19-2.73-2.21,3.48-6.11,15.46-7.14,18-.21.53-.58.7-1.47.69-5.65.12-7.92.57-12.05-.26-2.64-.93-4.09-2.9-4.43-3-.81-.4-1.22-.88-1.93-.8-1.18.28-1.32.86-1.26,1s-.54,0-.93,0C221.18,44.18,220.8,46.08,221.55,46.18Z"/><path id="_Trazado_2" data-name="&lt;Trazado&gt;" class="cls-1" d="M251.36,21.32c.89-.64,1.84-1.6,2-4.26.46.58.83.31,1.19-.14.44,3.88,4.11,5.45,7,8.47-4.92-1.13-5.8-1.37-9.71,4a11.48,11.48,0,0,0-1.2-3.46A7,7,0,0,0,248.09,23,28.36,28.36,0,0,0,251.36,21.32Z"/><path id="_Trazado_3" data-name="&lt;Trazado&gt;" class="cls-2" d="M253.32,17.06c.36.19.43.27,1.19-.14-.22.64-.46.63-.94.76a4.32,4.32,0,0,1-2.15,4c-.43.31-2.95,1.58-3.32,1.36a28.36,28.36,0,0,0,3.26-1.72C252.25,20.69,253.2,19.72,253.32,17.06Z"/><path id="_Trazado_4" data-name="&lt;Trazado&gt;" class="cls-1" d="M243,14.79c.31-.86-.52-1.3-.43-2.69,1.35,1.71,4,1.69,5.34,2.14a6.58,6.58,0,0,1-1.07-2c.23.36,2.34,2.81,4.2,2.87a7.57,7.57,0,0,1-1.81-2.59c.46.71,2.14,2,3.31,1.94a.87.87,0,0,0,.6-.25,3.06,3.06,0,0,1,1.46-1.69,1.36,1.36,0,0,1,1.59.44c1.06,1.3-2,5.17-2.89,4.08-.12,2.66-1.07,3.63-2,4.26a38.73,38.73,0,0,1-4.45,2.26,3.21,3.21,0,0,1-2.61-.09,1.3,1.3,0,0,1-.37-1.74c.1-.2-.35-.34-.59-.51s.54-.73.78-1c-.27,0-1.18-.12-1.31-.4a3.41,3.41,0,0,0,.22-1.2c-.32,0-1.64-.16-1.5-.66S242.72,15.66,243,14.79Z"/><path id="_Trazado_5" data-name="&lt;Trazado&gt;" class="cls-1" d="M249.54,43.37c1.23-1.29,1.17-6.2,1.85-7.14s.06-7,.57-7.93c.36-.62-.21-2.11,2.06-5,.07,0,2.06-1.75,2.13-1.76,1.14-.13,4.6,1.67,5.45,2.08h0a13.93,13.93,0,0,1,2,3.39,116.16,116.16,0,0,1,3.57,13.54c1.09,5.48,1.5,10.51,3.48,13.53s3.86,4.57,5,6.29c-.94,1.91-11.06,1.88-14.14,2.54-1,.22-2.3.38-2.84.44-.82-2.6-2.94-12.46-4-14a5.85,5.85,0,0,0-2.74-2.46c-1.1-.5-2.58-1.08-3.17-2.62Z"/><path id="_Trazado_6" data-name="&lt;Trazado&gt;" class="cls-3" d="M251.46,27.34c3.53-4.16,5.26-4.07,6.82-4.24a6.58,6.58,0,0,1,3.32.55,11.36,11.36,0,0,0-1.3-1.43,6.29,6.29,0,0,0-3.51,0,13.34,13.34,0,0,0-2.22,1.17A8.13,8.13,0,0,0,251.46,27.34Z"/><path id="_Trazado_7" data-name="&lt;Trazado&gt;" class="cls-4" d="M247.27,3.44c2.86-1.34,6.87-1.15,9,1.28,2.37,1.16,3.59,3.92,3.41,7.22-.12,2.13-2.22,6.71-4.36,7.45-.16.05-.62-.23-.83-2.47.79-1,2.43-2.56,1.42-3.8s-2.41.2-2.77,1.11a.87.87,0,0,1-.6.25,3.15,3.15,0,0,1-1.69-.53,7.36,7.36,0,0,0,1,2,5.15,5.15,0,0,1-1.53-.26,5.26,5.26,0,0,1-2-.88s.54.87.61.92-3.21-1.31-3.45-1.5,1,1.82,1,1.82a8,8,0,0,1-2.49-1.76,15.35,15.35,0,0,1-1.7-2s.34,1.82.42,2a5.91,5.91,0,0,1-1.74-3,6.45,6.45,0,0,1,1.44-5.55C243.32,4.72,245.47,3.91,247.27,3.44Z"/><path id="_Trazado_8" data-name="&lt;Trazado&gt;" class="cls-3" d="M267.32,41.19a27.64,27.64,0,0,1-5.93,3.66A46.44,46.44,0,0,1,253.63,48c-6.59-3.39-7.41-5.14-4.75-13l.16-.45c.32-.82.81-1.87,1.12-2.69.44-1.15.49-3.19,1-4.54,1-2.54,3.46-4.13,3.8-4.06s-1.41,1.88-1.41,1.89c-2.35,6.29-2,14.34,6.18,12.71,5-.91,5.21-4,5.74-8.14C266.46,30.16,266.95,35,267.32,41.19Z"/><path id="_Trazado_9" data-name="&lt;Trazado&gt;" class="cls-5" d="M261.39,44.86a27.7,27.7,0,0,0,5.93-3.66c.15.77.29,1.54.42,2.29a29.94,29.94,0,0,1-5.57,3.35,59.61,59.61,0,0,1-7.2,3,3.61,3.61,0,0,0-.3-.55,9.44,9.44,0,0,0-1-1.31h0A46.35,46.35,0,0,0,261.39,44.86Z"/><path id="_Trazado_10" data-name="&lt;Trazado&gt;" class="cls-4" d="M259.09,13.5c.64,1,.87,1,3.39,3.41,4.07,4,2.61,15.42,2.37,14.92-2.82-5.87-5.32-5.2-5-12a6.58,6.58,0,0,0-2.19-4.91Z"/><path id="_Trazado_11" data-name="&lt;Trazado&gt;" class="cls-4" d="M265.29,27.66c0,2.52-.34,4.38-.44,4.18-2.79-5.8-5.26-5.22-5-11.76.28.84.66,1.86,1,2.76a25,25,0,0,0,1.3,2.74,11.75,11.75,0,0,0,0-2.13,47,47,0,0,0-1.57-6.82,21.71,21.71,0,0,1,2,5c1.3,4.27,1.12,5,1.18,5.28a8.94,8.94,0,0,0,.05-2,37.79,37.79,0,0,0-.49-5.29,23.06,23.06,0,0,1,1,3.75,31.19,31.19,0,0,1,.43,6.45A18.61,18.61,0,0,0,265.29,27.66Z"/><path id="_Trazado_12" data-name="&lt;Trazado&gt;" class="cls-6" d="M259.31,13.82c.82,0,1.5.42,1.23,1.27s-1.49,1.94-2.08,1.32S259,14.43,259.31,13.82Z"/><path id="_Trazado_13" data-name="&lt;Trazado&gt;" class="cls-7" d="M255.65,14.12a5.29,5.29,0,0,1-1.47,2.2c-.44.23-.75-.54-.64-.95s.71-.26.69-.64-.31-.25-.23-.65A.82.82,0,0,1,255.65,14.12Z"/><path id="_Trazado_14" data-name="&lt;Trazado&gt;" class="cls-4" d="M251,13.12c.27.24,1.12.36,1.13,2.72s-.35,4.25-.12,3.31c.16-.67,2.1-6.23.5-5.88Z"/><path id="_Trazado_15" data-name="&lt;Trazado&gt;" class="cls-1" d="M279.59,87.18c.32,1.34,1.33,4.58,1.33,4.58,8.12-3.32,10.37-1.75,18,.06,1.69.4,3.89,1.27,5.68,1.58,1.68.15,3.32.28,3.59.36.76.23.87,1.3,1.25,2.47a5.62,5.62,0,0,1-.42,3.6,3.52,3.52,0,0,0-1.67.31,40.82,40.82,0,0,0-11.53-1.61c-6.12.06-11.5-.08-13.1.21-2.53.46-6.06,1.36-8.43-1-1.91-1.89-4.11-4.17-5.11-6.25A38.77,38.77,0,0,0,279.59,87.18Z"/><path id="_Trazado_16" data-name="&lt;Trazado&gt;" class="cls-8" d="M274.28,68.68a173.43,173.43,0,0,1,5.55,19.64c-1.3,1.2-3.92,3.45-9.78,4.68-.51-.49-6.12-10.47-7.52-13.14C265.33,78.26,273.19,71.26,274.28,68.68Z"/><path id="_Trazado_17" data-name="&lt;Trazado&gt;" class="cls-9" d="M254.95,69c1.54-1.77,3.48-4.53,3.38-6.91,2.37,0,11.71,0,17-2.32,6.14,7.27.9,17.18-6.47,21.22-5.33,2.93-14.45,8.83-16.79,9.76a18.07,18.07,0,0,1-8.25-8.67C245.22,80.2,252.62,71.66,254.95,69Z"/><path id="_Trazado_18" data-name="&lt;Trazado&gt;" class="cls-1" d="M228.09,119.18c4-2.52,10.09-20.76,10.12-25.14a10.72,10.72,0,0,1,1.65-6.28c.62-.85,2.86-4,4-5.7a25.29,25.29,0,0,0,8.25,8.67c-1.84,1.28-4.49,2.75-5.1,3.61-.83,1.18-1.31,2.73-1.37,7s-3.21,7.71-4.92,9.87-3.24,5.68-4,7c-.3.55-1.26,3.81-1.27,3.82a5.29,5.29,0,0,1-4.07.9,7,7,0,0,1-3.57-2.72C228,120,228,119.85,228.09,119.18Z"/><path id="_Trazado_19" data-name="&lt;Trazado&gt;" class="cls-3" d="M274.94,59.12a9,9,0,0,1,.91,1.29c-.74,1.5-14.37,2.11-17.53,2.48a4.61,4.61,0,0,1-.21-1.67C260,61.33,274.69,59.27,274.94,59.12Z"/><path id="_Trazado_20" data-name="&lt;Trazado&gt;" class="cls-1" d="M281.9,59.71c.38-.07.83-.07.76-.63a1.13,1.13,0,0,0,.89.41.82.82,0,0,0,.8-1,.83.83,0,0,0,.92.36,1,1,0,0,0,.68-.95.56.56,0,0,0,.77.23c.19-.08.35-.17.4-.72,0-.07,0-.15,0-.24a14.38,14.38,0,0,0-.61-3.08,19,19,0,0,0-1.92-2.78c-.57-1,1.15-11.78-2-20.2-1-2.69-7.48-3.37-10-4.21-1.68-.56-7.59-2.09-8.73-2.31s-5.18-2.08-6.2-2.16c-1.89-.15-4.67.47-5.69,1.88-1.4,2-1.58,4.52.85,6.15,1,.67,1.88.86,4.43,1.55.79,0,4.34.29,5.85.46,4.19.47,9,1.46,13.32,2.08.57.08.82.39,1,1.26,1.49,5.45,2.65,9.27,2.85,13.48A24.13,24.13,0,0,1,279,54.49a7.14,7.14,0,0,0-.27,2.27c.41.55.69.82,1.31.64.19-.05.74,1.7.93,2A.88.88,0,0,0,281.9,59.71Z"/><path id="_Trazado_21" data-name="&lt;Trazado&gt;" class="cls-3" d="M231.24,121.7a6.74,6.74,0,0,0,4.59-1c.4-.21.54.17.49.61a10.14,10.14,0,0,1-1.16,3.5c-.31.53.45,1.58-.23,1.77-2.9.81-22.06-3.65-19.1-7.26,2-1,9-1,12.36-2.07C229.1,117,228.75,121.12,231.24,121.7Z"/><path id="_Trazado_22" data-name="&lt;Trazado&gt;" class="cls-10" d="M235.11,125c-.14.56.45,1.46-.17,1.63-2.9.81-22.06-3.65-19.1-7.26h0a31.69,31.69,0,0,0,10.84,4.93A39.41,39.41,0,0,0,235.11,125Z"/><path id="_Trazado_23" data-name="&lt;Trazado&gt;" class="cls-6" d="M231.24,121.7a6.74,6.74,0,0,0,4.59-1c.4-.21.54.17.49.61,0,.07,0,.16,0,.24a12.46,12.46,0,0,1-3.84,1.23c-1.49,0-3.24-.33-3.93-1.85a13,13,0,0,1-1.14-3.46c.29-.07.56-.14.81-.22C229.1,117,228.75,121.12,231.24,121.7Z"/><path id="_Trazado_24" data-name="&lt;Trazado&gt;" class="cls-3" d="M309,97a5.79,5.79,0,0,0-2.23-3.37c-.29-.25,0-.48.33-.59a8.72,8.72,0,0,1,3.17-.18c.53.08,1.12-.86,1.49-.38,1.57,2.06,4.06,18.8.24,17.58-1.44-1.29-3.64-6.9-5.56-9.24C305.9,100.22,309.3,99.19,309,97Z"/><path id="_Trazado_25" data-name="&lt;Trazado&gt;" class="cls-10" d="M310.38,92.88c.49-.07,1-.82,1.36-.38,1.57,2.06,4.06,18.8.24,17.58h0a27.26,27.26,0,0,0,.52-10.24A33.91,33.91,0,0,0,310.38,92.88Z"/><path id="_Trazado_26" data-name="&lt;Trazado&gt;" class="cls-6" d="M309,97a5.8,5.8,0,0,0-2.23-3.37c-.29-.25,0-.48.33-.59l.2-.05a10.71,10.71,0,0,1,2.2,2.68c.51,1.17.76,2.7-.23,3.73a11.19,11.19,0,0,1-2.41,2c-.15-.21-.29-.4-.43-.57C305.9,100.22,309.3,99.19,309,97Z"/></g><g id="_Grupo_2" data-name="&lt;Grupo&gt;"><g id="_Grupo_3" data-name="&lt;Grupo&gt;"><g id="_Grupo_4" data-name="&lt;Grupo&gt;"><g id="_Grupo_5" data-name="&lt;Grupo&gt;"><path id="_Trazado_27" data-name="&lt;Trazado&gt;" class="cls-11" d="M60.73,48.28s7-17.38,5.24-19.77S58.71,26,57.8,33a90,90,0,0,1-2.93,13.56C54.7,47.17,40.64,60,40.64,60l1.84,1.19S60.32,50.05,60.73,48.28Z"/></g><path id="_Trazado_28" data-name="&lt;Trazado&gt;" class="cls-12" d="M41.16,60.36,57.3,47.87c.39-1.22,4-12.54,4.5-16.62.41-3.26-.23-3.87-.39-4a4.2,4.2,0,0,1,.78-.2c.48.74.59,2.18.33,4.27C62,35.7,58.11,47.69,57.94,48.2l0,.11L41.79,60.77Z"/><path id="_Trazado_29" data-name="&lt;Trazado&gt;" class="cls-12" d="M59.55,47.63c.33-1,3-9.32,4.29-14.2.88-3.31.62-5.25.34-6.19a4,4,0,0,1,.83.39,13.52,13.52,0,0,1-.48,6C63.15,38.82,60.23,47.87,60.2,48l0,.11L45,59.6l-2.54,1.61-.41-.26Z"/></g><g id="_Grupo_6" data-name="&lt;Grupo&gt;"><path id="_Trazado_30" data-name="&lt;Trazado&gt;" class="cls-13" d="M40.64,60s-2.77,1.25-3,1.91-.9,3.07-.5,3.49A6,6,0,0,0,41,66c.84-.4.09-2.92.19-3s1.32-1.72,1.32-1.72Z"/><path id="_Trazado_31" data-name="&lt;Trazado&gt;" class="cls-14" d="M41.64,62.32s-1.86-.69-2.35-1.63c0,0-1.55.57-1.77,1.17s-1.09,3.32-.4,3.82,3.64.88,4.16.12-.06-2.57,0-2.74A3.77,3.77,0,0,1,41.64,62.32Z"/></g></g><g id="_Grupo_7" data-name="&lt;Grupo&gt;"><g id="_Grupo_8" data-name="&lt;Grupo&gt;"><rect id="_Trazado_32" data-name="&lt;Trazado&gt;" class="cls-15" x="76.89" y="89.75" width="1.86" height="11.62" transform="translate(-9.95 9.05) rotate(-6.26)"/><path id="_Trazado_33" data-name="&lt;Trazado&gt;" class="cls-16" d="M82.6,88.08a1.74,1.74,0,0,0-1.95-1.49l-7.5.82a1.69,1.69,0,1,0,.37,3.36L81,90A1.74,1.74,0,0,0,82.6,88.08Z"/></g><g id="_Grupo_9" data-name="&lt;Grupo&gt;"><g id="_Grupo_10" data-name="&lt;Grupo&gt;"><g id="_Grupo_11" data-name="&lt;Grupo&gt;"><g id="_Grupo_12" data-name="&lt;Grupo&gt;"><rect id="_Trazado_34" data-name="&lt;Trazado&gt;" class="cls-17" x="42.74" y="69.49" width="46.07" height="2.45"/><polygon id="_Trazado_35" data-name="&lt;Trazado&gt;" class="cls-17" points="78.21 102.34 40.84 75.25 42.02 73.11 79.39 100.19 78.21 102.34"/></g><g id="_Grupo_13" data-name="&lt;Grupo&gt;"><polygon id="_Trazado_36" data-name="&lt;Trazado&gt;" class="cls-17" points="77.09 102.29 79.32 103.05 93.54 59.02 90.84 59.02 77.09 102.29"/><g id="_Grupo_14" data-name="&lt;Grupo&gt;"><path id="_Trazado_37" data-name="&lt;Trazado&gt;" class="cls-17" d="M99,58.89a.66.66,0,0,0,.13-.82c-.22-.58-.82-1.74-3-1.81s-5.28.26-7.5-.09a25.17,25.17,0,0,0-6.93-.24c-1.54.31-2,1.08-1.36,1.41a22.54,22.54,0,0,0,4.88.74A14.82,14.82,0,0,1,90,59.29c1.12.45,1.3.73,2.29.68s2.51-.89,3.83-1S98.89,59.05,99,58.89Z"/><path id="_Trazado_38" data-name="&lt;Trazado&gt;" class="cls-16" d="M80.38,57.33a22.54,22.54,0,0,0,4.88.74A14.82,14.82,0,0,1,90,59.29c1.12.45,1.3.73,2.29.68s2.51-.89,3.83-1,2.82.11,2.95-.05a.49.49,0,0,0,.11-.12l0,.06a.66.66,0,0,1-.13.82c-.13.16-1.63-.09-2.95.05s-2.84,1-3.83,1-1.17-.23-2.29-.68a14.81,14.81,0,0,0-4.69-1.22,22.54,22.54,0,0,1-4.88-.74c-.38-.18-.39-.5-.06-.8Z"/></g></g></g><g id="_Grupo_15" data-name="&lt;Grupo&gt;"><path id="_Trazado_39" data-name="&lt;Trazado&gt;" class="cls-17" d="M30.4,101.45,44.76,59.93H34.88a2.36,2.36,0,0,0,0,4.71h0a1.38,1.38,0,1,1,0,2.75,5.11,5.11,0,0,1,0-10.21H45.06a2.87,2.87,0,0,1,1.85.71,2,2,0,0,1,.55,2L32.81,102a1.24,1.24,0,1,1-2.41-.56Z"/><path id="_Trazado_40" data-name="&lt;Trazado&gt;" class="cls-17" d="M29.78,62.29a5.11,5.11,0,0,1,5.11-5.11h3.78v2.74H34.88a2.36,2.36,0,0,0-.31,4.69h4.09a1.39,1.39,0,0,1,0,2.77H34.55v0A5.11,5.11,0,0,1,29.78,62.29Z"/><path id="_Trazado_41" data-name="&lt;Trazado&gt;" class="cls-16" d="M38.66,59.93V57.19h6.4a2.87,2.87,0,0,1,1.85.71,2,2,0,0,1,.55,2l-2.95,8.52H41.85l2.9-8.52Z"/></g></g><g id="_Grupo_16" data-name="&lt;Grupo&gt;"><g id="_Grupo_17" data-name="&lt;Grupo&gt;"><g id="_Grupo_18" data-name="&lt;Grupo&gt;"><g id="_Grupo_19" data-name="&lt;Grupo&gt;"><g id="_Grupo_20" data-name="&lt;Grupo&gt;"><rect id="_Trazado_42" data-name="&lt;Trazado&gt;" class="cls-18" x="31.45" y="77.88" width="0.28" height="47.85"/></g><g id="_Grupo_21" data-name="&lt;Grupo&gt;"><polygon id="_Trazado_43" data-name="&lt;Trazado&gt;" class="cls-18" points="48.41 118.81 14.57 84.98 14.77 84.79 48.6 118.62 48.41 118.81"/></g><g id="_Grupo_22" data-name="&lt;Grupo&gt;"><rect id="_Trazado_44" data-name="&lt;Trazado&gt;" class="cls-18" x="7.67" y="101.66" width="47.85" height="0.28"/></g><g id="_Grupo_23" data-name="&lt;Grupo&gt;"><polygon id="_Trazado_45" data-name="&lt;Trazado&gt;" class="cls-18" points="14.77 118.81 14.57 118.62 48.41 84.79 48.6 84.98 14.77 118.81"/></g></g><g id="_Grupo_24" data-name="&lt;Grupo&gt;"><g id="_Grupo_25" data-name="&lt;Grupo&gt;"><rect id="_Trazado_46" data-name="&lt;Trazado&gt;" class="cls-18" x="7.67" y="101.66" width="47.85" height="0.28" transform="translate(-74.52 91.64) rotate(-67.29)"/></g><g id="_Grupo_26" data-name="&lt;Grupo&gt;"><rect id="_Trazado_47" data-name="&lt;Trazado&gt;" class="cls-18" x="31.45" y="77.88" width="0.28" height="47.85" transform="translate(-36.19 19.54) rotate(-22.25)"/></g><g id="_Grupo_27" data-name="&lt;Grupo&gt;"><rect id="_Trazado_48" data-name="&lt;Trazado&gt;" class="cls-18" x="31.45" y="77.88" width="0.28" height="47.85" transform="translate(-74.51 91.56) rotate(-67.25)"/></g><g id="_Grupo_28" data-name="&lt;Grupo&gt;"><rect id="_Trazado_49" data-name="&lt;Trazado&gt;" class="cls-18" x="7.67" y="101.66" width="47.85" height="0.28" transform="translate(-36.24 19.58) rotate(-22.28)"/></g></g></g><g id="_Grupo_29" data-name="&lt;Grupo&gt;"><path id="_Trazado_compuesto_" data-name="&lt;Trazado compuesto&gt;" class="cls-17" d="M31.59,125.91A24.11,24.11,0,1,1,55.7,101.8,24.14,24.14,0,0,1,31.59,125.91Zm0-44.11a20,20,0,1,0,20,20A20,20,0,0,0,31.59,81.8Z"/></g><circle id="_Trazado_50" data-name="&lt;Trazado&gt;" class="cls-16" cx="31.59" cy="101.8" r="2.59"/><g id="_Grupo_30" data-name="&lt;Grupo&gt;"><path id="_Trazado_compuesto_2" data-name="&lt;Trazado compuesto&gt;" class="cls-16" d="M31.59,127.39A25.59,25.59,0,1,1,57.18,101.8,25.62,25.62,0,0,1,31.59,127.39Zm0-49.21A23.63,23.63,0,1,0,55.21,101.8,23.65,23.65,0,0,0,31.59,78.17Z"/></g></g><g id="_Grupo_31" data-name="&lt;Grupo&gt;"><g id="_Grupo_32" data-name="&lt;Grupo&gt;"><g id="_Grupo_33" data-name="&lt;Grupo&gt;"><g id="_Grupo_34" data-name="&lt;Grupo&gt;"><g id="_Grupo_35" data-name="&lt;Grupo&gt;"><rect id="_Trazado_51" data-name="&lt;Trazado&gt;" class="cls-18" x="111.63" y="77.88" width="0.28" height="47.85"/></g><g id="_Grupo_36" data-name="&lt;Grupo&gt;"><rect id="_Trazado_52" data-name="&lt;Trazado&gt;" class="cls-18" x="111.63" y="77.88" width="0.28" height="47.85" transform="translate(-39.25 108.85) rotate(-45)"/></g><g id="_Grupo_37" data-name="&lt;Grupo&gt;"><rect id="_Trazado_53" data-name="&lt;Trazado&gt;" class="cls-18" x="87.84" y="101.66" width="47.85" height="0.28"/></g><g id="_Grupo_38" data-name="&lt;Grupo&gt;"><rect id="_Trazado_54" data-name="&lt;Trazado&gt;" class="cls-18" x="87.84" y="101.66" width="47.85" height="0.28" transform="translate(-39.25 108.75) rotate(-44.96)"/></g></g><g id="_Grupo_39" data-name="&lt;Grupo&gt;"><g id="_Grupo_40" data-name="&lt;Grupo&gt;"><rect id="_Trazado_55" data-name="&lt;Trazado&gt;" class="cls-18" x="87.84" y="101.66" width="47.85" height="0.28" transform="translate(-25.35 165.47) rotate(-67.24)"/></g><g id="_Grupo_41" data-name="&lt;Grupo&gt;"><rect id="_Trazado_56" data-name="&lt;Trazado&gt;" class="cls-18" x="111.63" y="77.88" width="0.28" height="47.85" transform="matrix(0.93, -0.38, 0.38, 0.93, -30.22, 49.9)"/></g><g id="_Grupo_42" data-name="&lt;Grupo&gt;"><rect id="_Trazado_57" data-name="&lt;Trazado&gt;" class="cls-18" x="111.63" y="77.88" width="0.28" height="47.85" transform="translate(-25.34 165.5) rotate(-67.25)"/></g><g id="_Grupo_43" data-name="&lt;Grupo&gt;"><rect id="_Trazado_58" data-name="&lt;Trazado&gt;" class="cls-18" x="87.84" y="101.66" width="47.85" height="0.28" transform="translate(-30.24 49.94) rotate(-22.26)"/></g></g></g><g id="_Grupo_44" data-name="&lt;Grupo&gt;"><path id="_Trazado_compuesto_3" data-name="&lt;Trazado compuesto&gt;" class="cls-17" d="M111.77,125.91a24.11,24.11,0,1,1,24.11-24.11A24.14,24.14,0,0,1,111.77,125.91Zm0-44.11a20,20,0,1,0,20,20A20,20,0,0,0,111.77,81.8Z"/></g><circle id="_Trazado_59" data-name="&lt;Trazado&gt;" class="cls-16" cx="111.77" cy="101.8" r="2.59"/><g id="_Grupo_45" data-name="&lt;Grupo&gt;"><path id="_Trazado_compuesto_4" data-name="&lt;Trazado compuesto&gt;" class="cls-16" d="M111.77,127.39a25.59,25.59,0,1,1,25.59-25.59A25.62,25.62,0,0,1,111.77,127.39Zm0-49.21a23.63,23.63,0,1,0,23.63,23.63A23.65,23.65,0,0,0,111.77,78.17Z"/></g></g><g id="_Grupo_46" data-name="&lt;Grupo&gt;"><polygon id="_Trazado_60" data-name="&lt;Trazado&gt;" class="cls-16" points="80.18 108.59 80.11 108.04 111.59 103.84 111.66 104.39 80.18 108.59"/><rect id="_Trazado_61" data-name="&lt;Trazado&gt;" class="cls-16" x="95.12" y="81.22" width="0.83" height="32.08" transform="translate(-17.08 174.09) rotate(-79.82)"/><g id="_Grupo_47" data-name="&lt;Grupo&gt;"><g id="_Grupo_48" data-name="&lt;Grupo&gt;"><path id="_Trazado_62" data-name="&lt;Trazado&gt;" class="cls-19" d="M71.78,99.84a8,8,0,0,0,3.89.34,7.94,7.94,0,0,0-3-2.51l.63-1.33h0l1.33-.63a7.94,7.94,0,0,0,2.51,3,7.93,7.93,0,0,0-.34-3.89l1.39-.5h0l1.39.5a7.94,7.94,0,0,0-.34,3.89,8,8,0,0,0,2.51-3l1.33.63h0l.63,1.33a8.06,8.06,0,0,0-3,2.51,8,8,0,0,0,3.89-.34l.5,1.39h0l-.5,1.39a8.06,8.06,0,0,0-3.88-.34,8.11,8.11,0,0,0,3,2.51l-.63,1.33h0l-1.33.63a8.11,8.11,0,0,0-2.51-3,8.11,8.11,0,0,0,.34,3.88l-1.39.5h0l-1.39-.5a8.11,8.11,0,0,0,.34-3.88,8.06,8.06,0,0,0-2.51,3l-1.33-.63h0l-.63-1.33a8,8,0,0,0,3-2.51,8.06,8.06,0,0,0-3.89.34l-.5-1.39h0Z"/><g id="_Grupo_49" data-name="&lt;Grupo&gt;"><path id="_Trazado_compuesto_5" data-name="&lt;Trazado compuesto&gt;" class="cls-16" d="M78.21,108.85a7.59,7.59,0,1,1,7.59-7.59A7.6,7.6,0,0,1,78.21,108.85Zm0-14.06a6.48,6.48,0,1,0,6.48,6.48A6.48,6.48,0,0,0,78.21,94.79Z"/></g></g><g id="_Grupo_50" data-name="&lt;Grupo&gt;"><g id="_Grupo_51" data-name="&lt;Grupo&gt;"><polygon id="_Trazado_63" data-name="&lt;Trazado&gt;" class="cls-15" points="81.03 110.75 82.66 109.84 78.97 100.78 77.35 101.69 81.03 110.75"/><path id="_Trazado_64" data-name="&lt;Trazado&gt;" class="cls-16" d="M77,112.55a1.74,1.74,0,0,0,2.37.61L86,109.48a1.69,1.69,0,1,0-1.65-2.95l-6.58,3.68A1.74,1.74,0,0,0,77,112.55Z"/></g><circle id="_Trazado_65" data-name="&lt;Trazado&gt;" class="cls-16" cx="78.21" cy="101.26" r="1.42"/></g></g></g><path id="_Trazado_66" data-name="&lt;Trazado&gt;" class="cls-17" d="M112.49,100.23,89.33,70.51l-1.76,1.7,22.52,28.9a1.67,1.67,0,1,0,2.4-.89Z"/></g></g></g></g><g id="_Grupo_52" data-name="&lt;Grupo&gt;"><g id="_Grupo_53" data-name="&lt;Grupo&gt;"><g id="_Grupo_54" data-name="&lt;Grupo&gt;"><path id="_Trazado_67" data-name="&lt;Trazado&gt;" class="cls-13" d="M41,19.42a6.37,6.37,0,0,0,.55,3.45s-.93,2.95-.59,3.37,1.7,0,1.7,0,0,1.06.34,1.31,1.06,0,1.06,0-.81,1-.34,1.32.64.4.72,1.43,3.33-1.53,4.44-1.06,4,1.57,4,1.57l2.26-6.07s-3.62-2.3-4.6-3.74-5-1.62-5.87-1.57S41,19.42,41,19.42Z"/><path id="_Trazado_68" data-name="&lt;Trazado&gt;" class="cls-20" d="M50.54,21c-1-1.45-5-1.62-5.87-1.57s-3.7,0-3.7,0c.38-2.47,5.19-5.53,8.81-4.68A7.89,7.89,0,0,1,54.84,19c1.4,2.17.3,5.74.3,5.74S51.52,22.44,50.54,21Z"/><path id="_Trazado_69" data-name="&lt;Trazado&gt;" class="cls-13" d="M50.22,21.55s.19-1.85,1.31-1.81,2.1,1.72.62,3.42Z"/></g><g id="_Grupo_55" data-name="&lt;Grupo&gt;"><g id="_Grupo_56" data-name="&lt;Grupo&gt;"><g id="_Grupo_57" data-name="&lt;Grupo&gt;"><g id="_Grupo_58" data-name="&lt;Grupo&gt;"><path id="_Trazado_70" data-name="&lt;Trazado&gt;" class="cls-21" d="M57.41,12.48s-3.28,4.32-7,5.84A26.88,26.88,0,0,1,38.3,20.39a8.21,8.21,0,0,1,1.08-5.1C40.91,12.52,46.4,7.85,57.41,12.48Z"/><path id="_Trazado_71" data-name="&lt;Trazado&gt;" class="cls-14" d="M56.61,13.43a1.67,1.67,0,0,1,.8,1.69c-.13,1.21,1.26,2.25.94,3.46s-1.39,1.69-3,1.54a8.53,8.53,0,0,0-2.48-3.2A27.54,27.54,0,0,0,56.61,13.43Z"/><path id="_Trazado_72" data-name="&lt;Trazado&gt;" class="cls-22" d="M54,13.17s-3.21,5.78-13.76,5.3c0,0,10.06-4.69,13.28-5.48Z"/><path id="_Trazado_73" data-name="&lt;Trazado&gt;" class="cls-22" d="M52.1,12.18s-7.33.07-12.11,5.53c0,0,7.12-4.23,13.09-5.08Z"/><path id="_Trazado_74" data-name="&lt;Trazado&gt;" class="cls-22" d="M51.07,11.17A17.27,17.27,0,0,0,44.85,13a43.55,43.55,0,0,0-5.71,4.59S40.39,10.09,51.07,11.17Z"/><path id="_Trazado_75" data-name="&lt;Trazado&gt;" class="cls-22" d="M57.41,12.48s-.45.59-1.21,1.42A8.4,8.4,0,0,0,54.76,12c-.49-.29-3.5-1.29-3.6-1.32A24.93,24.93,0,0,1,57.41,12.48Z"/></g><path id="_Trazado_76" data-name="&lt;Trazado&gt;" class="cls-23" d="M57.33,14.32a1.84,1.84,0,0,1,.08.81,4.74,4.74,0,0,0,.78,2.23,1.24,1.24,0,0,1-1.41.63C55.88,17.67,56,15.45,57.33,14.32Z"/></g><g id="_Grupo_59" data-name="&lt;Grupo&gt;"><path id="_Trazado_compuesto_6" data-name="&lt;Trazado compuesto&gt;" class="cls-14" d="M51.07,25.11c-.2,1.34-2.22,4.13-2.22,4.13l.83.34L51.9,25.4c.23-.44,3.42-5.27,3.42-5.27L54.7,18.7H49.42L48,19.19S51.27,23.77,51.07,25.11Zm-1.29-5.69,4.61.59c-.49.88-1.79,3.11-2.24,3.15S50.41,20.69,49.78,19.42Z"/></g></g><g id="_Grupo_60" data-name="&lt;Grupo&gt;"><path id="_Trazado_compuesto_7" data-name="&lt;Trazado compuesto&gt;" class="cls-24" d="M41.16,22s.62,2.2,1.88,2.9c0,0,2.38-2.33,2.89-3l4.5-1.17.28-.63s-5,.48-5.82.58A13.92,13.92,0,0,0,41.16,22Zm4.52-1a4.89,4.89,0,0,1,1-.09c.13.05-.82.62-.82.62S46,21.16,45.68,21.06Z"/><g id="_Grupo_61" data-name="&lt;Grupo&gt;"><path id="_Trazado_77" data-name="&lt;Trazado&gt;" class="cls-25" d="M45.13,21.34a19.22,19.22,0,0,0-3.35,1,3.12,3.12,0,0,0,1,1.87C43,24.29,45.84,21.42,45.13,21.34Z"/><g id="_Grupo_62" data-name="&lt;Grupo&gt;"><path id="_Trazado_78" data-name="&lt;Trazado&gt;" class="cls-26" d="M44.59,22.52l-1.09-.77.83-.22L45,22C44.88,22.16,44.74,22.34,44.59,22.52Z"/><path id="_Trazado_79" data-name="&lt;Trazado&gt;" class="cls-26" d="M42.64,22l1.48,1-.47.48-1.77-1.24A5.13,5.13,0,0,1,42.64,22Z"/><path id="_Trazado_80" data-name="&lt;Trazado&gt;" class="cls-26" d="M43,24.1c-.12.09-.22.15-.26.14s-.37-.35-.58-.73Z"/></g></g></g></g></g><g id="_Grupo_63" data-name="&lt;Grupo&gt;"><g id="_Grupo_64" data-name="&lt;Grupo&gt;"><g id="_Grupo_65" data-name="&lt;Grupo&gt;"><g id="_Grupo_66" data-name="&lt;Grupo&gt;"><path id="_Trazado_81" data-name="&lt;Trazado&gt;" class="cls-27" d="M80.36,47.56l7.72,1.09c-1.19,4.61-17,12.22-19.12,13.21-1.47-.44-6.7-2.08-9.4-4.16C62.08,54.76,80.36,47.56,80.36,47.56Z"/><g id="_Grupo_67" data-name="&lt;Grupo&gt;"><path id="_Trazado_82" data-name="&lt;Trazado&gt;" class="cls-28" d="M59.5,57.88l.14-.18c2.7,2.08,7.94,3.73,9.4,4.16l-.23.11c3.57,6.21,10.81,20.14,10.81,20.14L76,83.31s-14.86-16.59-16.16-19C58.72,62.36,57.63,60.68,59.5,57.88Z"/></g></g><g id="_Grupo_68" data-name="&lt;Grupo&gt;"><g id="_Grupo_69" data-name="&lt;Grupo&gt;"><path id="_Trazado_83" data-name="&lt;Trazado&gt;" class="cls-21" d="M79.33,81a3.5,3.5,0,0,1,1.28,1.67c.43,1.15.6,1.7.71,1.9,0,0,.07.33-1.59.79a31.51,31.51,0,0,0-5.61,2.3c-1.76.93-6.37,1.88-7.11-.29,0,0,0-.66,1-1a9.15,9.15,0,0,0,4.3-2.2c1.67-1.64,2-3,2.57-2.82s.39,1.33,2.63,1.14A2.15,2.15,0,0,0,79.33,81Z"/><path id="_Trazado_84" data-name="&lt;Trazado&gt;" class="cls-16" d="M67,87.33c.74,2.17,5.36,1.22,7.11.29a31.51,31.51,0,0,1,5.61-2.3c1.65-.46,1.59-.79,1.59-.79s.33.65.37.8-.19.95-2,1.48a41,41,0,0,0-4.23,1.12c-1.57.62-4.54,1.9-6.64,1.35C67.06,88.84,67,88,67,87.33Z"/><path id="_Trazado_85" data-name="&lt;Trazado&gt;" class="cls-29" d="M69.87,85.69h0a7.24,7.24,0,0,0,2.41-1.59c1.67-1.64,2-3,2.57-2.82.24.06.39.34.63.64h0l-.58,1c-.62.83-1.32,2.31-3,2.88S69.87,85.69,69.87,85.69Z"/><ellipse id="_Trazado_86" data-name="&lt;Trazado&gt;" class="cls-16" cx="74.71" cy="82.78" rx="0.23" ry="0.25" transform="translate(-18.77 21.99) rotate(-14.9)"/><path id="_Trazado_87" data-name="&lt;Trazado&gt;" class="cls-30" d="M74.81,82.66s-.72-.23-.89-.55c0,0-.17-.06-.16.23a1.27,1.27,0,0,0,1,.62S74.93,82.93,74.81,82.66Z"/><ellipse id="_Trazado_88" data-name="&lt;Trazado&gt;" class="cls-16" cx="73.78" cy="83.98" rx="0.23" ry="0.25" transform="translate(-19.11 21.79) rotate(-14.9)"/><path id="_Trazado_89" data-name="&lt;Trazado&gt;" class="cls-30" d="M73.88,83.86s-.72-.23-.89-.55c0,0-.17-.06-.16.23a1.28,1.28,0,0,0,1,.62S74,84.13,73.88,83.86Z"/><path id="_Trazado_90" data-name="&lt;Trazado&gt;" class="cls-16" d="M72.48,85.15a.26.26,0,0,0,.24.25.23.23,0,0,0,.22-.25.26.26,0,0,0-.24-.25A.23.23,0,0,0,72.48,85.15Z"/><path id="_Trazado_91" data-name="&lt;Trazado&gt;" class="cls-30" d="M72.83,85.06s-.66-.41-.76-.75c0,0-.16-.11-.21.18a1.35,1.35,0,0,0,.83.85S72.89,85.34,72.83,85.06Z"/></g></g></g><g id="_Grupo_70" data-name="&lt;Grupo&gt;"><g id="_Grupo_71" data-name="&lt;Grupo&gt;"><path id="_Trazado_92" data-name="&lt;Trazado&gt;" class="cls-13" d="M73.73,72.84c-.57.92-.78,1.63-.54,2C77,81.2,77,85.79,77.91,89.41S82.66,103,82.66,103L79,105S67,81.68,63.48,74.2c-.43-.92.29-2.54,1-4.36C67.21,71.77,71.4,72.55,73.73,72.84Z"/><g id="_Grupo_72" data-name="&lt;Grupo&gt;"><path id="_Trazado_93" data-name="&lt;Trazado&gt;" class="cls-14" d="M73.73,72.84c-2.32-.3-6.51-1.07-9.22-3C67.74,61.87,81.23,49,81.23,49c4.18,1,14.56-4.23,14.56-4.23,2,2.22,3.94,8-.68,11.73-1.14.91-3.69,1.78-5.85,3C82.62,63.35,75.8,69.49,73.73,72.84Z"/></g></g><g id="_Grupo_73" data-name="&lt;Grupo&gt;"><g id="_Grupo_74" data-name="&lt;Grupo&gt;"><path id="_Trazado_94" data-name="&lt;Trazado&gt;" class="cls-21" d="M82.33,102a3.8,3.8,0,0,1,1.72,1.5c.71,1.13,1,1.68,1.18,1.87,0,0,.14.33-1.52,1.19a34.21,34.21,0,0,0-5.47,3.67c-1.67,1.37-6.37,3.39-7.63,1.25,0,0-.18-.69.82-1.3a9.94,9.94,0,0,0,4.1-3.28c1.42-2.11,1.45-3.58,2.12-3.56s.71,1.33,3,.64A2.33,2.33,0,0,0,82.33,102Z"/><path id="_Trazado_95" data-name="&lt;Trazado&gt;" class="cls-16" d="M70.61,111.44c1.27,2.14,6,.12,7.63-1.25a34.21,34.21,0,0,1,5.47-3.67c1.66-.85,1.52-1.19,1.52-1.19s.49.62.57.77,0,1-1.83,2a44.72,44.72,0,0,0-4.26,2.12c-1.53,1-4.41,3-6.77,2.89C71,113,70.74,112.15,70.61,111.44Z"/><path id="_Trazado_96" data-name="&lt;Trazado&gt;" class="cls-29" d="M73.31,109.07h0a7.86,7.86,0,0,0,2.22-2.22c1.42-2.11,1.45-3.58,2.12-3.56.27,0,.49.28.81.54h0l-.4,1.18c-.48,1-.9,2.75-2.61,3.73S73.31,109.07,73.31,109.07Z"/><ellipse id="_Trazado_97" data-name="&lt;Trazado&gt;" class="cls-16" cx="77.82" cy="104.91" rx="0.25" ry="0.27" transform="translate(-38.68 45.84) rotate(-26.55)"/><path id="_Trazado_98" data-name="&lt;Trazado&gt;" class="cls-30" d="M77.89,104.76s-.82-.09-1.07-.39c0,0-.2,0-.12.28a1.38,1.38,0,0,0,1.18.45S78.08,105,77.89,104.76Z"/><ellipse id="_Trazado_99" data-name="&lt;Trazado&gt;" class="cls-16" cx="77.09" cy="106.39" rx="0.25" ry="0.27" transform="translate(-39.33 45.5) rotate(-26.46)"/><path id="_Trazado_100" data-name="&lt;Trazado&gt;" class="cls-30" d="M77.17,106.24s-.82-.09-1.07-.39c0,0-.2,0-.12.28a1.39,1.39,0,0,0,1.18.45S77.36,106.49,77.17,106.24Z"/><path id="_Trazado_101" data-name="&lt;Trazado&gt;" class="cls-16" d="M76,107.91a.28.28,0,0,0,.31.21.25.25,0,0,0,.18-.32.28.28,0,0,0-.31-.21A.25.25,0,0,0,76,107.91Z"/><path id="_Trazado_102" data-name="&lt;Trazado&gt;" class="cls-30" d="M76.31,107.74s-.79-.29-1-.63c0,0-.19-.08-.18.24a1.47,1.47,0,0,0,1.07.72S76.44,108,76.31,107.74Z"/></g></g></g></g><g id="_Grupo_75" data-name="&lt;Grupo&gt;"><g id="_Grupo_76" data-name="&lt;Grupo&gt;"><path id="_Trazado_103" data-name="&lt;Trazado&gt;" class="cls-21" d="M55.14,24.73s14.76.49,21.63,2.53c8.59,2.55,17.84,8.6,19,17.51A18.32,18.32,0,0,1,81.23,49s-1.15-3.27-5.74-5.59c-5.28-2.67-19.31-1.19-22.62-12.6Z"/><g id="_Grupo_77" data-name="&lt;Grupo&gt;"><path id="_Trazado_104" data-name="&lt;Trazado&gt;" class="cls-31" d="M54.17,27.33l.35-.93a92.58,92.58,0,0,1,11.73,1.84c9.06,2,24.15,7.17,26,18.91q-.43.2-.91.4C89.75,36.18,74.91,31.17,66,29.17A91.3,91.3,0,0,0,54.17,27.33Z"/><path id="_Trazado_105" data-name="&lt;Trazado&gt;" class="cls-31" d="M54.29,27c8.17,1.55,18.85,5.13,26,13.37a26.31,26.31,0,0,1,5.09,8.55l-1,.06a25.76,25.76,0,0,0-4.81-8c-7-8.08-17.57-11.58-25.61-13.08Z"/></g></g><path id="_Trazado_106" data-name="&lt;Trazado&gt;" class="cls-32" d="M55.14,24.73s14.76.49,21.63,2.53c8.59,2.55,17.84,8.6,19,17.51a8.25,8.25,0,0,1-.88.76c-.88-4-6.43-18.83-40.07-20Z"/></g><g id="_Grupo_78" data-name="&lt;Grupo&gt;"><g id="_Grupo_79" data-name="&lt;Grupo&gt;"><g id="_Grupo_80" data-name="&lt;Grupo&gt;"><path id="_Trazado_107" data-name="&lt;Trazado&gt;" class="cls-33" d="M56,49.89s7-17.38,5.24-19.77S54,27.57,53.08,34.57a89.94,89.94,0,0,1-2.93,13.56c-.17.64-14.24,13.49-14.24,13.49l1.84,1.19S55.59,51.66,56,49.89Z"/></g><path id="_Trazado_108" data-name="&lt;Trazado&gt;" class="cls-21" d="M36.44,62,52.58,49.48c.39-1.22,4-12.54,4.5-16.62.41-3.26-.23-3.87-.39-4a4.18,4.18,0,0,1,.78-.2c.48.74.59,2.18.33,4.27-.55,4.36-4.4,16.35-4.56,16.86l0,.11L37.07,62.37Z"/><path id="_Trazado_109" data-name="&lt;Trazado&gt;" class="cls-21" d="M54.83,49.24c.33-1,3-9.32,4.29-14.2.88-3.31.62-5.25.34-6.19a4,4,0,0,1,.83.39,13.51,13.51,0,0,1-.48,6c-1.39,5.2-4.31,14.25-4.34,14.34l0,.11L40.29,61.21l-2.54,1.61-.41-.26Z"/></g><g id="_Grupo_81" data-name="&lt;Grupo&gt;"><path id="_Trazado_110" data-name="&lt;Trazado&gt;" class="cls-13" d="M35.92,61.62s-2.77,1.25-3,1.91S32,66.6,32.38,67a6,6,0,0,0,3.86.54c.84-.4.09-2.92.19-3s1.32-1.72,1.32-1.72Z"/><path id="_Trazado_111" data-name="&lt;Trazado&gt;" class="cls-14" d="M36.92,63.92s-1.86-.69-2.35-1.63c0,0-1.55.57-1.77,1.17s-1.09,3.32-.4,3.82,3.64.88,4.16.12-.06-2.57,0-2.74A3.75,3.75,0,0,1,36.92,63.92Z"/></g></g></g></g></g></svg>