<svg id="Capa_1" data-name="Capa 1" xmlns="http://www.w3.org/2000/svg" viewBox="0 0 320 130"><defs><style>.cls-1{fill:#f7ba83;}.cls-1,.cls-10,.cls-2,.cls-3,.cls-4,.cls-5,.cls-6,.cls-7,.cls-8,.cls-9{fill-rule:evenodd;}.cls-2{fill:#d29c6d;}.cls-3{fill:#1e75ba;}.cls-4{fill:#414042;}.cls-5{fill:#58574c;}.cls-6{fill:#e5e6e7;}.cls-7{fill:#df9e64;}.cls-8{fill:#2c2d2c;}.cls-9{fill:#323333;}.cls-10{fill:#8b7684;}.cls-11{fill:#ed6b83;}.cls-12{fill:#ea5062;}.cls-13{fill:#f9c28a;}.cls-14{fill:#383838;}.cls-15{fill:#898988;}.cls-16{fill:#211d1e;}.cls-17{fill:#4ebdc6;}.cls-18{fill:#929192;}.cls-19{fill:#7a7a7a;}.cls-20{fill:#a47c59;}.cls-21{fill:#eb5d69;}.cls-22{fill:#e5253b;}.cls-23{fill:#616160;}.cls-24{fill:#1e2121;}.cls-25{fill:#6dc3c2;}.cls-26{fill:#8fcfd1;}.cls-27{fill:#2d2c2c;}.cls-28{fill:#f4b77f;}.cls-29{fill:#4d4d4f;}.cls-30{fill:#f5eaea;}.cls-31{fill:#e54559;}.cls-32{fill:#fff;opacity:0.1;}.cls-33{fill:#ef7889;}</style></defs><title>people</title><g id="_Grupo_" data-name="&lt;Grupo&gt;"><path id="_Trazado_" data-name="&lt;Trazado&gt;" class="cls-1" d="M98.45,46.18a1.38,1.38,0,0,1,.64.87,1,1,0,0,1-.93,1,.8.8,0,0,1,.63.72,1.17,1.17,0,0,1-.81,1,.56.56,0,0,1,.41.69c0,.21-.08.39-.61.56l-.23.07a11.78,11.78,0,0,1-5.59.16c-1.15-.3-9.46,3.33-18.39,2.31-2.85-.32-5.09-6.43-6.52-8.68-1-1.5-3.88-6.85-4.37-7.91s-3.28-4.52-3.61-5.49C57,25.2,62.69,18.72,68.29,28.74c2.21,3.48,6.11,15.46,7.14,18,.21.53.58.7,1.47.69,5.65.12,7.92.57,12.05-.26,2.64-.93,4.09-2.9,4.43-3,.81-.4,1.22-.88,1.93-.8,1.18.28,1.32.86,1.26,1s.54,0,.93,0C98.82,44.18,99.2,46.08,98.45,46.18Z"/><path id="_Trazado_2" data-name="&lt;Trazado&gt;" class="cls-1" d="M68.64,21.32c-.89-.64-1.84-1.6-2-4.26-.46.58-.83.31-1.19-.14-.44,3.88-4.11,5.45-7,8.47,4.92-1.13,5.8-1.37,9.71,4a11.48,11.48,0,0,1,1.2-3.46A7,7,0,0,1,71.91,23,28.36,28.36,0,0,1,68.64,21.32Z"/><path id="_Trazado_3" data-name="&lt;Trazado&gt;" class="cls-2" d="M66.68,17.06c-.36.19-.43.27-1.19-.14.22.64.46.63.94.76a4.32,4.32,0,0,0,2.15,4C69,22,71.54,23.26,71.91,23a28.36,28.36,0,0,1-3.26-1.72C67.75,20.69,66.8,19.72,66.68,17.06Z"/><path id="_Trazado_4" data-name="&lt;Trazado&gt;" class="cls-1" d="M77,14.79c-.31-.86.52-1.3.43-2.69-1.35,1.71-4,1.69-5.34,2.14a6.58,6.58,0,0,0,1.07-2c-.23.36-2.34,2.81-4.2,2.87a7.57,7.57,0,0,0,1.81-2.59c-.46.71-2.14,2-3.31,1.94a.87.87,0,0,1-.6-.25,3.06,3.06,0,0,0-1.46-1.69,1.36,1.36,0,0,0-1.59.44c-1.06,1.3,2,5.17,2.89,4.08.12,2.66,1.07,3.63,2,4.26a38.73,38.73,0,0,0,4.45,2.26,3.21,3.21,0,0,0,2.61-.09,1.3,1.3,0,0,0,.37-1.74c-.1-.2.35-.34.59-.51s-.54-.73-.78-1c.27,0,1.18-.12,1.31-.4a3.41,3.41,0,0,1-.22-1.2c.32,0,1.64-.16,1.5-.66S77.28,15.66,77,14.79Z"/><path id="_Trazado_5" data-name="&lt;Trazado&gt;" class="cls-1" d="M70.46,43.37c-1.23-1.29-1.17-6.2-1.85-7.14s-.06-7-.57-7.93c-.36-.62.21-2.11-2.06-5-.07,0-2.06-1.75-2.13-1.76-1.14-.13-4.6,1.67-5.45,2.08h0a13.93,13.93,0,0,0-2,3.39A116.16,116.16,0,0,0,52.8,40.55c-1.09,5.48-1.5,10.51-3.48,13.53s-3.86,4.57-5,6.29c.94,1.91,11.06,1.88,14.14,2.54,1,.22,2.3.38,2.84.44.82-2.6,2.94-12.46,4-14a5.85,5.85,0,0,1,2.74-2.46c1.1-.5,2.58-1.08,3.17-2.62Z"/><path id="_Trazado_6" data-name="&lt;Trazado&gt;" class="cls-3" d="M68.54,27.34c-3.53-4.16-5.26-4.07-6.82-4.24a6.58,6.58,0,0,0-3.32.55,11.36,11.36,0,0,1,1.3-1.43,6.29,6.29,0,0,1,3.51,0,13.34,13.34,0,0,1,2.22,1.17A8.13,8.13,0,0,1,68.54,27.34Z"/><path id="_Trazado_7" data-name="&lt;Trazado&gt;" class="cls-4" d="M72.73,3.44c-2.86-1.34-6.87-1.15-9,1.28-2.37,1.16-3.59,3.92-3.41,7.22.12,2.13,2.22,6.71,4.36,7.45.16.05.62-.23.83-2.47-.79-1-2.43-2.56-1.42-3.8s2.41.2,2.77,1.11a.87.87,0,0,0,.6.25A3.15,3.15,0,0,0,69.12,14a7.36,7.36,0,0,1-1,2,5.15,5.15,0,0,0,1.53-.26,5.26,5.26,0,0,0,2-.88s-.54.87-.61.92,3.21-1.31,3.45-1.5-1,1.82-1,1.82a8,8,0,0,0,2.49-1.76,15.35,15.35,0,0,0,1.7-2s-.34,1.82-.42,2a5.91,5.91,0,0,0,1.74-3,6.45,6.45,0,0,0-1.44-5.55C76.68,4.72,74.53,3.91,72.73,3.44Z"/><path id="_Trazado_8" data-name="&lt;Trazado&gt;" class="cls-3" d="M52.68,41.19a27.64,27.64,0,0,0,5.93,3.66A46.44,46.44,0,0,0,66.37,48c6.59-3.39,7.41-5.14,4.75-13L71,34.51c-.32-.82-.81-1.87-1.12-2.69-.44-1.15-.49-3.19-1-4.54-1-2.54-3.46-4.13-3.8-4.06s1.41,1.88,1.41,1.89c2.35,6.29,2,14.34-6.18,12.71-5-.91-5.21-4-5.74-8.14C53.54,30.16,53.05,35,52.68,41.19Z"/><path id="_Trazado_9" data-name="&lt;Trazado&gt;" class="cls-5" d="M58.61,44.86a27.7,27.7,0,0,1-5.93-3.66c-.15.77-.29,1.54-.42,2.29a29.94,29.94,0,0,0,5.57,3.35,59.61,59.61,0,0,0,7.2,3,3.61,3.61,0,0,1,.3-.55,9.44,9.44,0,0,1,1-1.31h0A46.35,46.35,0,0,1,58.61,44.86Z"/><path id="_Trazado_10" data-name="&lt;Trazado&gt;" class="cls-4" d="M60.91,13.5c-.64,1-.87,1-3.39,3.41-4.07,4-2.61,15.42-2.37,14.92,2.82-5.87,5.32-5.2,5-12a6.58,6.58,0,0,1,2.19-4.91Z"/><path id="_Trazado_11" data-name="&lt;Trazado&gt;" class="cls-4" d="M54.71,27.66c0,2.52.34,4.38.44,4.18,2.79-5.8,5.26-5.22,5-11.76-.28.84-.66,1.86-1,2.76a25,25,0,0,1-1.3,2.74,11.75,11.75,0,0,1,0-2.13,47,47,0,0,1,1.57-6.82,21.71,21.71,0,0,0-2,5c-1.3,4.27-1.12,5-1.18,5.28a8.94,8.94,0,0,1-.05-2,37.79,37.79,0,0,1,.49-5.29,23.06,23.06,0,0,0-1,3.75,31.19,31.19,0,0,0-.43,6.45A18.61,18.61,0,0,1,54.71,27.66Z"/><path id="_Trazado_12" data-name="&lt;Trazado&gt;" class="cls-6" d="M60.69,13.82c-.82,0-1.5.42-1.23,1.27s1.49,1.94,2.08,1.32S61,14.43,60.69,13.82Z"/><path id="_Trazado_13" data-name="&lt;Trazado&gt;" class="cls-7" d="M64.35,14.12a5.29,5.29,0,0,0,1.47,2.2c.44.23.75-.54.64-.95s-.71-.26-.69-.64.31-.25.23-.65A.82.82,0,0,0,64.35,14.12Z"/><path id="_Trazado_14" data-name="&lt;Trazado&gt;" class="cls-4" d="M69,13.12c-.27.24-1.12.36-1.13,2.72s.35,4.25.12,3.31c-.16-.67-2.1-6.23-.5-5.88Z"/><path id="_Trazado_15" data-name="&lt;Trazado&gt;" class="cls-1" d="M40.41,87.18c-.32,1.34-1.33,4.58-1.33,4.58C31,88.43,28.7,90,21.12,91.82c-1.69.4-3.89,1.27-5.68,1.58-1.68.15-3.32.28-3.59.36-.76.23-.87,1.3-1.25,2.47a5.62,5.62,0,0,0,.42,3.6,3.52,3.52,0,0,1,1.67.31,40.82,40.82,0,0,1,11.53-1.61c6.12.06,11.5-.08,13.1.21,2.53.46,6.06,1.36,8.43-1,1.91-1.89,4.11-4.17,5.11-6.25A38.77,38.77,0,0,1,40.41,87.18Z"/><path id="_Trazado_16" data-name="&lt;Trazado&gt;" class="cls-8" d="M45.72,68.68a173.43,173.43,0,0,0-5.55,19.64c1.3,1.2,3.92,3.45,9.78,4.68.51-.49,6.12-10.47,7.52-13.14C54.67,78.26,46.81,71.26,45.72,68.68Z"/><path id="_Trazado_17" data-name="&lt;Trazado&gt;" class="cls-9" d="M65.05,69c-1.54-1.77-3.48-4.53-3.38-6.91-2.37,0-11.71,0-17-2.32C38.49,67,43.73,76.92,51.1,81c5.33,2.93,14.45,8.83,16.79,9.76a18.07,18.07,0,0,0,8.25-8.67C74.78,80.2,67.38,71.66,65.05,69Z"/><path id="_Trazado_18" data-name="&lt;Trazado&gt;" class="cls-1" d="M91.91,119.18c-4-2.52-10.09-20.76-10.12-25.14a10.72,10.72,0,0,0-1.65-6.28c-.62-.85-2.86-4-4-5.7a25.29,25.29,0,0,1-8.25,8.67c1.84,1.28,4.49,2.75,5.1,3.61.83,1.18,1.31,2.73,1.37,7s3.21,7.71,4.92,9.87,3.24,5.68,4,7c.3.55,1.26,3.81,1.27,3.82a5.29,5.29,0,0,0,4.07.9,7,7,0,0,0,3.57-2.72C92,120,92,119.85,91.91,119.18Z"/><path id="_Trazado_19" data-name="&lt;Trazado&gt;" class="cls-3" d="M45.06,59.12a9,9,0,0,0-.91,1.29c.74,1.5,14.37,2.11,17.53,2.48a4.61,4.61,0,0,0,.21-1.67C60,61.33,45.31,59.27,45.06,59.12Z"/><path id="_Trazado_20" data-name="&lt;Trazado&gt;" class="cls-1" d="M38.1,59.71c-.38-.07-.83-.07-.76-.63a1.13,1.13,0,0,1-.89.41.82.82,0,0,1-.8-1,.83.83,0,0,1-.92.36,1,1,0,0,1-.68-.95.56.56,0,0,1-.77.23c-.19-.08-.35-.17-.4-.72,0-.07,0-.15,0-.24a14.38,14.38,0,0,1,.61-3.08,19,19,0,0,1,1.92-2.78c.57-1-1.15-11.78,2-20.2,1-2.69,7.48-3.37,10-4.21,1.68-.56,7.59-2.09,8.73-2.31s5.18-2.08,6.2-2.16c1.89-.15,4.67.47,5.69,1.88,1.4,2,1.58,4.52-.85,6.15-1,.67-1.88.86-4.43,1.55-.79,0-4.34.29-5.85.46-4.19.47-9,1.46-13.32,2.08-.57.08-.82.39-1,1.26-1.49,5.45-2.65,9.27-2.85,13.48A24.13,24.13,0,0,0,41,54.49a7.14,7.14,0,0,1,.27,2.27c-.41.55-.69.82-1.31.64-.19-.05-.74,1.7-.93,2A.88.88,0,0,1,38.1,59.71Z"/><path id="_Trazado_21" data-name="&lt;Trazado&gt;" class="cls-3" d="M88.76,121.7a6.74,6.74,0,0,1-4.59-1c-.4-.21-.54.17-.49.61a10.14,10.14,0,0,0,1.16,3.5c.31.53-.45,1.58.23,1.77,2.9.81,22.06-3.65,19.1-7.26-2-1-9-1-12.36-2.07C90.9,117,91.25,121.12,88.76,121.7Z"/><path id="_Trazado_22" data-name="&lt;Trazado&gt;" class="cls-10" d="M84.89,125c.14.56-.45,1.46.17,1.63,2.9.81,22.06-3.65,19.1-7.26h0a31.69,31.69,0,0,1-10.84,4.93A39.41,39.41,0,0,1,84.89,125Z"/><path id="_Trazado_23" data-name="&lt;Trazado&gt;" class="cls-6" d="M88.76,121.7a6.74,6.74,0,0,1-4.59-1c-.4-.21-.54.17-.49.61,0,.07,0,.16,0,.24a12.46,12.46,0,0,0,3.84,1.23c1.49,0,3.24-.33,3.93-1.85a13,13,0,0,0,1.14-3.46c-.29-.07-.56-.14-.81-.22C90.9,117,91.25,121.12,88.76,121.7Z"/><path id="_Trazado_24" data-name="&lt;Trazado&gt;" class="cls-3" d="M11,97a5.79,5.79,0,0,1,2.23-3.37c.29-.25,0-.48-.33-.59a8.72,8.72,0,0,0-3.17-.18C9.22,93,8.63,92,8.26,92.5,6.69,94.56,4.2,111.3,8,110.08c1.44-1.29,3.64-6.9,5.56-9.24C14.1,100.22,10.7,99.19,11,97Z"/><path id="_Trazado_25" data-name="&lt;Trazado&gt;" class="cls-10" d="M9.62,92.88c-.49-.07-1-.82-1.36-.38C6.69,94.56,4.2,111.3,8,110.08H8a27.26,27.26,0,0,1-.52-10.24A33.91,33.91,0,0,1,9.62,92.88Z"/><path id="_Trazado_26" data-name="&lt;Trazado&gt;" class="cls-6" d="M11,97a5.8,5.8,0,0,1,2.23-3.37c.29-.25,0-.48-.33-.59l-.2-.05a10.71,10.71,0,0,0-2.2,2.68c-.51,1.17-.76,2.7.23,3.73a11.19,11.19,0,0,0,2.41,2c.15-.21.29-.4.43-.57C14.1,100.22,10.7,99.19,11,97Z"/></g><g id="_Grupo_2" data-name="&lt;Grupo&gt;"><g id="_Grupo_3" data-name="&lt;Grupo&gt;"><g id="_Grupo_4" data-name="&lt;Grupo&gt;"><g id="_Grupo_5" data-name="&lt;Grupo&gt;"><path id="_Trazado_27" data-name="&lt;Trazado&gt;" class="cls-11" d="M259.27,48.28s-7-17.38-5.24-19.77S261.29,26,262.2,33a90,90,0,0,0,2.93,13.56c.17.64,14.24,13.49,14.24,13.49l-1.84,1.19S259.68,50.05,259.27,48.28Z"/></g><path id="_Trazado_28" data-name="&lt;Trazado&gt;" class="cls-12" d="M278.84,60.36,262.7,47.87c-.39-1.22-4-12.54-4.5-16.62-.41-3.26.23-3.87.39-4a4.2,4.2,0,0,0-.78-.2c-.48.74-.59,2.18-.33,4.27.55,4.36,4.4,16.35,4.56,16.86l0,.11,16.12,12.47Z"/><path id="_Trazado_29" data-name="&lt;Trazado&gt;" class="cls-12" d="M260.45,47.63c-.33-1-3-9.32-4.29-14.2-.88-3.31-.62-5.25-.34-6.19a4,4,0,0,0-.83.39,13.52,13.52,0,0,0,.48,6c1.39,5.2,4.31,14.25,4.33,14.34l0,.11L275,59.6l2.54,1.61.41-.26Z"/></g><g id="_Grupo_6" data-name="&lt;Grupo&gt;"><path id="_Trazado_30" data-name="&lt;Trazado&gt;" class="cls-13" d="M279.36,60s2.77,1.25,3,1.91.9,3.07.5,3.49A6,6,0,0,1,279,66c-.84-.4-.09-2.92-.19-3s-1.32-1.72-1.32-1.72Z"/><path id="_Trazado_31" data-name="&lt;Trazado&gt;" class="cls-14" d="M278.36,62.32s1.86-.69,2.35-1.63c0,0,1.55.57,1.77,1.17s1.09,3.32.4,3.82-3.64.88-4.16.12.06-2.57,0-2.74A3.77,3.77,0,0,0,278.36,62.32Z"/></g></g><g id="_Grupo_7" data-name="&lt;Grupo&gt;"><g id="_Grupo_8" data-name="&lt;Grupo&gt;"><rect id="_Trazado_32" data-name="&lt;Trazado&gt;" class="cls-15" x="236.37" y="94.63" width="11.62" height="1.86" transform="translate(120.8 325.88) rotate(-83.74)"/><path id="_Trazado_33" data-name="&lt;Trazado&gt;" class="cls-16" d="M237.4,88.08a1.74,1.74,0,0,1,1.95-1.49l7.5.82a1.69,1.69,0,1,1-.37,3.36L239,90A1.74,1.74,0,0,1,237.4,88.08Z"/></g><g id="_Grupo_9" data-name="&lt;Grupo&gt;"><g id="_Grupo_10" data-name="&lt;Grupo&gt;"><g id="_Grupo_11" data-name="&lt;Grupo&gt;"><g id="_Grupo_12" data-name="&lt;Grupo&gt;"><rect id="_Trazado_34" data-name="&lt;Trazado&gt;" class="cls-17" x="231.18" y="69.49" width="46.07" height="2.45"/><polygon id="_Trazado_35" data-name="&lt;Trazado&gt;" class="cls-17" points="241.79 102.34 279.16 75.25 277.98 73.11 240.61 100.19 241.79 102.34"/></g><g id="_Grupo_13" data-name="&lt;Grupo&gt;"><polygon id="_Trazado_36" data-name="&lt;Trazado&gt;" class="cls-17" points="242.91 102.29 240.68 103.05 226.46 59.02 229.16 59.02 242.91 102.29"/><g id="_Grupo_14" data-name="&lt;Grupo&gt;"><path id="_Trazado_37" data-name="&lt;Trazado&gt;" class="cls-17" d="M221,58.89a.66.66,0,0,1-.13-.82c.22-.58.82-1.74,3-1.81s5.28.26,7.5-.09a25.17,25.17,0,0,1,6.93-.24c1.54.31,2,1.08,1.36,1.41a22.54,22.54,0,0,1-4.88.74A14.82,14.82,0,0,0,230,59.29c-1.12.45-1.3.73-2.29.68s-2.51-.89-3.83-1S221.11,59.05,221,58.89Z"/><path id="_Trazado_38" data-name="&lt;Trazado&gt;" class="cls-16" d="M239.62,57.33a22.54,22.54,0,0,1-4.88.74A14.82,14.82,0,0,0,230,59.29c-1.12.45-1.3.73-2.29.68s-2.51-.89-3.83-1-2.82.11-2.95-.05a.49.49,0,0,1-.11-.12l0,.06a.66.66,0,0,0,.13.82c.13.16,1.63-.09,2.95.05s2.84,1,3.83,1,1.17-.23,2.29-.68a14.81,14.81,0,0,1,4.69-1.22,22.54,22.54,0,0,0,4.88-.74c.38-.18.39-.5.06-.8Z"/></g></g></g><g id="_Grupo_15" data-name="&lt;Grupo&gt;"><path id="_Trazado_39" data-name="&lt;Trazado&gt;" class="cls-17" d="M289.6,101.45,275.24,59.93h9.87a2.36,2.36,0,0,1,0,4.71h0a1.38,1.38,0,1,0,0,2.75,5.11,5.11,0,0,0,0-10.21H274.94a2.87,2.87,0,0,0-1.85.71,2,2,0,0,0-.55,2L287.19,102a1.24,1.24,0,1,0,2.41-.56Z"/><path id="_Trazado_40" data-name="&lt;Trazado&gt;" class="cls-17" d="M290.22,62.29a5.11,5.11,0,0,0-5.11-5.11h-3.78v2.74h3.78a2.36,2.36,0,0,1,.31,4.69h-4.09a1.39,1.39,0,0,0,0,2.77h4.11v0A5.11,5.11,0,0,0,290.22,62.29Z"/><path id="_Trazado_41" data-name="&lt;Trazado&gt;" class="cls-16" d="M281.34,59.93V57.19h-6.4a2.87,2.87,0,0,0-1.85.71,2,2,0,0,0-.55,2l2.95,8.52h2.66l-2.9-8.52Z"/></g></g><g id="_Grupo_16" data-name="&lt;Grupo&gt;"><g id="_Grupo_17" data-name="&lt;Grupo&gt;"><g id="_Grupo_18" data-name="&lt;Grupo&gt;"><g id="_Grupo_19" data-name="&lt;Grupo&gt;"><g id="_Grupo_20" data-name="&lt;Grupo&gt;"><rect id="_Trazado_42" data-name="&lt;Trazado&gt;" class="cls-18" x="288.27" y="77.88" width="0.28" height="47.85"/></g><g id="_Grupo_21" data-name="&lt;Grupo&gt;"><polygon id="_Trazado_43" data-name="&lt;Trazado&gt;" class="cls-18" points="271.59 118.81 305.43 84.98 305.23 84.79 271.4 118.62 271.59 118.81"/></g><g id="_Grupo_22" data-name="&lt;Grupo&gt;"><rect id="_Trazado_44" data-name="&lt;Trazado&gt;" class="cls-18" x="264.49" y="101.66" width="47.85" height="0.28"/></g><g id="_Grupo_23" data-name="&lt;Grupo&gt;"><polygon id="_Trazado_45" data-name="&lt;Trazado&gt;" class="cls-18" points="305.23 118.81 305.43 118.62 271.59 84.79 271.4 84.98 305.23 118.81"/></g></g><g id="_Grupo_24" data-name="&lt;Grupo&gt;"><g id="_Grupo_25" data-name="&lt;Grupo&gt;"><rect id="_Trazado_46" data-name="&lt;Trazado&gt;" class="cls-18" x="288.27" y="77.88" width="0.28" height="47.85" transform="translate(-16.94 119.23) rotate(-22.71)"/></g><g id="_Grupo_26" data-name="&lt;Grupo&gt;"><rect id="_Trazado_47" data-name="&lt;Trazado&gt;" class="cls-18" x="264.49" y="101.66" width="47.85" height="0.28" transform="translate(84.99 330.2) rotate(-67.75)"/></g><g id="_Grupo_27" data-name="&lt;Grupo&gt;"><rect id="_Trazado_48" data-name="&lt;Trazado&gt;" class="cls-18" x="264.49" y="101.66" width="47.85" height="0.28" transform="translate(-16.93 119.46) rotate(-22.75)"/></g><g id="_Grupo_28" data-name="&lt;Grupo&gt;"><rect id="_Trazado_49" data-name="&lt;Trazado&gt;" class="cls-18" x="288.27" y="77.88" width="0.28" height="47.85" transform="translate(84.85 330.07) rotate(-67.72)"/></g></g></g><g id="_Grupo_29" data-name="&lt;Grupo&gt;"><path id="_Trazado_compuesto_" data-name="&lt;Trazado compuesto&gt;" class="cls-17" d="M264.3,101.8a24.11,24.11,0,1,1,24.11,24.11A24.14,24.14,0,0,1,264.3,101.8Zm4.12,0a20,20,0,1,0,20-20A20,20,0,0,0,268.42,101.8Z"/></g><circle id="_Trazado_50" data-name="&lt;Trazado&gt;" class="cls-16" cx="288.41" cy="101.8" r="2.59"/><g id="_Grupo_30" data-name="&lt;Grupo&gt;"><path id="_Trazado_compuesto_2" data-name="&lt;Trazado compuesto&gt;" class="cls-16" d="M262.82,101.8a25.59,25.59,0,1,1,25.59,25.59A25.62,25.62,0,0,1,262.82,101.8Zm2,0a23.63,23.63,0,1,0,23.63-23.63A23.65,23.65,0,0,0,264.79,101.8Z"/></g></g><g id="_Grupo_31" data-name="&lt;Grupo&gt;"><g id="_Grupo_32" data-name="&lt;Grupo&gt;"><g id="_Grupo_33" data-name="&lt;Grupo&gt;"><g id="_Grupo_34" data-name="&lt;Grupo&gt;"><g id="_Grupo_35" data-name="&lt;Grupo&gt;"><rect id="_Trazado_51" data-name="&lt;Trazado&gt;" class="cls-18" x="208.09" y="77.88" width="0.28" height="47.85"/></g><g id="_Grupo_36" data-name="&lt;Grupo&gt;"><rect id="_Trazado_52" data-name="&lt;Trazado&gt;" class="cls-18" x="184.31" y="101.66" width="47.85" height="0.28" transform="translate(-10.99 177.06) rotate(-45)"/></g><g id="_Grupo_37" data-name="&lt;Grupo&gt;"><rect id="_Trazado_53" data-name="&lt;Trazado&gt;" class="cls-18" x="184.31" y="101.66" width="47.85" height="0.28"/></g><g id="_Grupo_38" data-name="&lt;Grupo&gt;"><rect id="_Trazado_54" data-name="&lt;Trazado&gt;" class="cls-18" x="208.09" y="77.88" width="0.28" height="47.85" transform="translate(-10.94 177.2) rotate(-45.04)"/></g></g><g id="_Grupo_39" data-name="&lt;Grupo&gt;"><g id="_Grupo_40" data-name="&lt;Grupo&gt;"><rect id="_Trazado_55" data-name="&lt;Trazado&gt;" class="cls-18" x="208.09" y="77.88" width="0.28" height="47.85" transform="matrix(0.92, -0.39, 0.39, 0.92, -23.17, 88.51)"/></g><g id="_Grupo_41" data-name="&lt;Grupo&gt;"><rect id="_Trazado_56" data-name="&lt;Trazado&gt;" class="cls-18" x="184.31" y="101.66" width="47.85" height="0.28" transform="translate(35.17 255.99) rotate(-67.75)"/></g><g id="_Grupo_42" data-name="&lt;Grupo&gt;"><rect id="_Trazado_57" data-name="&lt;Trazado&gt;" class="cls-18" x="184.31" y="101.66" width="47.85" height="0.28" transform="translate(-23.17 88.45) rotate(-22.75)"/></g><g id="_Grupo_43" data-name="&lt;Grupo&gt;"><rect id="_Trazado_58" data-name="&lt;Trazado&gt;" class="cls-18" x="208.09" y="77.88" width="0.28" height="47.85" transform="translate(35.13 255.94) rotate(-67.74)"/></g></g></g><g id="_Grupo_44" data-name="&lt;Grupo&gt;"><path id="_Trazado_compuesto_3" data-name="&lt;Trazado compuesto&gt;" class="cls-17" d="M184.12,101.8a24.11,24.11,0,1,1,24.11,24.11A24.14,24.14,0,0,1,184.12,101.8Zm4.12,0a20,20,0,1,0,20-20A20,20,0,0,0,188.24,101.8Z"/></g><circle id="_Trazado_59" data-name="&lt;Trazado&gt;" class="cls-16" cx="208.23" cy="101.8" r="2.59"/><g id="_Grupo_45" data-name="&lt;Grupo&gt;"><path id="_Trazado_compuesto_4" data-name="&lt;Trazado compuesto&gt;" class="cls-16" d="M182.65,101.8a25.59,25.59,0,1,1,25.59,25.59A25.62,25.62,0,0,1,182.65,101.8Zm2,0a23.63,23.63,0,1,0,23.63-23.63A23.65,23.65,0,0,0,184.61,101.8Z"/></g></g><g id="_Grupo_46" data-name="&lt;Grupo&gt;"><polygon id="_Trazado_60" data-name="&lt;Trazado&gt;" class="cls-16" points="239.82 108.59 239.89 108.04 208.41 103.84 208.34 104.39 239.82 108.59"/><rect id="_Trazado_61" data-name="&lt;Trazado&gt;" class="cls-16" x="208.42" y="96.84" width="32.08" height="0.83" transform="translate(-13.66 41.22) rotate(-10.18)"/><g id="_Grupo_47" data-name="&lt;Grupo&gt;"><g id="_Grupo_48" data-name="&lt;Grupo&gt;"><path id="_Trazado_62" data-name="&lt;Trazado&gt;" class="cls-19" d="M248.22,99.84a8,8,0,0,1-3.89.34,7.94,7.94,0,0,1,3-2.51l-.63-1.33h0l-1.33-.63a7.94,7.94,0,0,1-2.51,3,7.93,7.93,0,0,1,.34-3.89l-1.39-.5h0l-1.39.5a7.94,7.94,0,0,1,.34,3.89,8,8,0,0,1-2.51-3l-1.33.63h0l-.63,1.33a8.06,8.06,0,0,1,3,2.51,8,8,0,0,1-3.89-.34l-.5,1.39h0l.5,1.39a8.06,8.06,0,0,1,3.88-.34,8.11,8.11,0,0,1-3,2.51l.63,1.33h0l1.33.63a8.11,8.11,0,0,1,2.51-3,8.11,8.11,0,0,1-.34,3.88l1.39.5h0l1.39-.5a8.11,8.11,0,0,1-.34-3.88,8.06,8.06,0,0,1,2.51,3l1.33-.63h0l.63-1.33a8,8,0,0,1-3-2.51,8.06,8.06,0,0,1,3.89.34l.5-1.39h0Z"/><g id="_Grupo_49" data-name="&lt;Grupo&gt;"><path id="_Trazado_compuesto_5" data-name="&lt;Trazado compuesto&gt;" class="cls-16" d="M234.21,101.26a7.59,7.59,0,1,1,7.59,7.59A7.59,7.59,0,0,1,234.21,101.26Zm1.11,0a6.48,6.48,0,1,0,6.48-6.48A6.48,6.48,0,0,0,235.32,101.26Z"/></g></g><g id="_Grupo_50" data-name="&lt;Grupo&gt;"><g id="_Grupo_51" data-name="&lt;Grupo&gt;"><polygon id="_Trazado_63" data-name="&lt;Trazado&gt;" class="cls-15" points="238.97 110.75 237.34 109.84 241.03 100.78 242.65 101.69 238.97 110.75"/><path id="_Trazado_64" data-name="&lt;Trazado&gt;" class="cls-16" d="M243,112.55a1.74,1.74,0,0,1-2.37.61L234,109.48a1.69,1.69,0,1,1,1.65-2.95l6.58,3.68A1.74,1.74,0,0,1,243,112.55Z"/></g><circle id="_Trazado_65" data-name="&lt;Trazado&gt;" class="cls-16" cx="241.79" cy="101.26" r="1.42"/></g></g></g><path id="_Trazado_66" data-name="&lt;Trazado&gt;" class="cls-17" d="M207.51,100.23l23.16-29.72,1.76,1.7-22.52,28.9a1.67,1.67,0,1,1-2.4-.89Z"/></g></g></g></g><g id="_Grupo_52" data-name="&lt;Grupo&gt;"><g id="_Grupo_53" data-name="&lt;Grupo&gt;"><g id="_Grupo_54" data-name="&lt;Grupo&gt;"><path id="_Trazado_67" data-name="&lt;Trazado&gt;" class="cls-13" d="M279,19.42a6.37,6.37,0,0,1-.55,3.45s.93,2.95.59,3.37-1.7,0-1.7,0,0,1.06-.34,1.31-1.06,0-1.06,0,.81,1,.34,1.32-.64.4-.72,1.43-3.33-1.53-4.44-1.06-4,1.57-4,1.57l-2.26-6.07s3.62-2.3,4.6-3.74,5-1.62,5.87-1.57S279,19.42,279,19.42Z"/><path id="_Trazado_68" data-name="&lt;Trazado&gt;" class="cls-20" d="M269.46,21c1-1.45,5-1.62,5.87-1.57s3.7,0,3.7,0c-.38-2.47-5.19-5.53-8.81-4.68A7.89,7.89,0,0,0,265.16,19c-1.4,2.17-.3,5.74-.3,5.74S268.48,22.44,269.46,21Z"/><path id="_Trazado_69" data-name="&lt;Trazado&gt;" class="cls-13" d="M269.78,21.55s-.19-1.85-1.31-1.81-2.1,1.72-.62,3.42Z"/></g><g id="_Grupo_55" data-name="&lt;Grupo&gt;"><g id="_Grupo_56" data-name="&lt;Grupo&gt;"><g id="_Grupo_57" data-name="&lt;Grupo&gt;"><g id="_Grupo_58" data-name="&lt;Grupo&gt;"><path id="_Trazado_70" data-name="&lt;Trazado&gt;" class="cls-21" d="M262.59,12.48s3.28,4.32,7,5.84a26.88,26.88,0,0,0,12.09,2.07,8.21,8.21,0,0,0-1.08-5.1C279.09,12.52,273.6,7.85,262.59,12.48Z"/><path id="_Trazado_71" data-name="&lt;Trazado&gt;" class="cls-14" d="M263.39,13.43a1.67,1.67,0,0,0-.8,1.69c.13,1.21-1.26,2.25-.94,3.46s1.39,1.69,3,1.54a8.53,8.53,0,0,1,2.48-3.2A27.54,27.54,0,0,1,263.39,13.43Z"/><path id="_Trazado_72" data-name="&lt;Trazado&gt;" class="cls-22" d="M266,13.17s3.21,5.78,13.76,5.3c0,0-10.06-4.69-13.28-5.48Z"/><path id="_Trazado_73" data-name="&lt;Trazado&gt;" class="cls-22" d="M267.9,12.18s7.33.07,12.11,5.53c0,0-7.12-4.23-13.09-5.08Z"/><path id="_Trazado_74" data-name="&lt;Trazado&gt;" class="cls-22" d="M268.93,11.17A17.27,17.27,0,0,1,275.15,13a43.55,43.55,0,0,1,5.71,4.59S279.61,10.09,268.93,11.17Z"/><path id="_Trazado_75" data-name="&lt;Trazado&gt;" class="cls-22" d="M262.59,12.48s.45.59,1.21,1.42A8.4,8.4,0,0,1,265.24,12c.49-.29,3.5-1.29,3.6-1.32A24.93,24.93,0,0,0,262.59,12.48Z"/></g><path id="_Trazado_76" data-name="&lt;Trazado&gt;" class="cls-23" d="M262.67,14.32a1.84,1.84,0,0,0-.08.81,4.74,4.74,0,0,1-.78,2.23,1.24,1.24,0,0,0,1.41.63C264.12,17.67,264,15.45,262.67,14.32Z"/></g><g id="_Grupo_59" data-name="&lt;Grupo&gt;"><path id="_Trazado_compuesto_6" data-name="&lt;Trazado compuesto&gt;" class="cls-14" d="M272,19.19l-1.43-.49H265.3l-.62,1.43s3.19,4.84,3.42,5.27l2.23,4.17.83-.34s-2-2.78-2.22-4.13S272,19.19,272,19.19Zm-4.15,4c-.45,0-1.75-2.28-2.24-3.15l4.61-.59C269.59,20.69,268.27,23.2,267.85,23.16Z"/></g></g><g id="_Grupo_60" data-name="&lt;Grupo&gt;"><path id="_Trazado_compuesto_7" data-name="&lt;Trazado compuesto&gt;" class="cls-24" d="M275.11,20.74c-.78-.1-5.82-.58-5.82-.58l.28.63,4.5,1.17c.51.63,2.89,3,2.89,3,1.26-.7,1.88-2.9,1.88-2.9A13.92,13.92,0,0,0,275.11,20.74Zm-1,.86s-.95-.57-.82-.62a4.89,4.89,0,0,1,1,.09C274,21.16,274.16,21.59,274.16,21.59Z"/><g id="_Grupo_61" data-name="&lt;Grupo&gt;"><path id="_Trazado_77" data-name="&lt;Trazado&gt;" class="cls-25" d="M274.87,21.34a19.22,19.22,0,0,1,3.35,1,3.12,3.12,0,0,1-1,1.87C277,24.29,274.16,21.42,274.87,21.34Z"/><g id="_Grupo_62" data-name="&lt;Grupo&gt;"><path id="_Trazado_78" data-name="&lt;Trazado&gt;" class="cls-26" d="M275.41,22.52l1.09-.77-.83-.22L275,22C275.12,22.16,275.26,22.34,275.41,22.52Z"/><path id="_Trazado_79" data-name="&lt;Trazado&gt;" class="cls-26" d="M277.36,22l-1.48,1,.47.48,1.77-1.24A5.13,5.13,0,0,0,277.36,22Z"/><path id="_Trazado_80" data-name="&lt;Trazado&gt;" class="cls-26" d="M277,24.1c.12.09.22.15.26.14s.37-.35.58-.73Z"/></g></g></g></g></g><g id="_Grupo_63" data-name="&lt;Grupo&gt;"><g id="_Grupo_64" data-name="&lt;Grupo&gt;"><g id="_Grupo_65" data-name="&lt;Grupo&gt;"><g id="_Grupo_66" data-name="&lt;Grupo&gt;"><path id="_Trazado_81" data-name="&lt;Trazado&gt;" class="cls-27" d="M239.64,47.56l-7.72,1.09c1.19,4.61,17,12.22,19.12,13.21,1.47-.44,6.7-2.08,9.4-4.16C257.92,54.76,239.64,47.56,239.64,47.56Z"/><g id="_Grupo_67" data-name="&lt;Grupo&gt;"><path id="_Trazado_82" data-name="&lt;Trazado&gt;" class="cls-28" d="M260.5,57.88l-.14-.18c-2.7,2.08-7.94,3.73-9.4,4.16l.23.11c-3.57,6.21-10.81,20.14-10.81,20.14l3.67,1.2s14.86-16.59,16.16-19C261.28,62.36,262.37,60.68,260.5,57.88Z"/></g></g><g id="_Grupo_68" data-name="&lt;Grupo&gt;"><g id="_Grupo_69" data-name="&lt;Grupo&gt;"><path id="_Trazado_83" data-name="&lt;Trazado&gt;" class="cls-21" d="M240.67,81a3.5,3.5,0,0,0-1.28,1.67c-.43,1.15-.6,1.7-.71,1.9,0,0-.07.33,1.59.79a31.51,31.51,0,0,1,5.61,2.3c1.76.93,6.37,1.88,7.11-.29,0,0,0-.66-1-1a9.15,9.15,0,0,1-4.3-2.2c-1.67-1.64-2-3-2.57-2.82s-.39,1.33-2.63,1.14A2.15,2.15,0,0,1,240.67,81Z"/><path id="_Trazado_84" data-name="&lt;Trazado&gt;" class="cls-16" d="M253,87.33c-.74,2.17-5.36,1.22-7.11.29a31.51,31.51,0,0,0-5.61-2.3c-1.65-.46-1.59-.79-1.59-.79s-.33.65-.37.8.19.95,2,1.48a41,41,0,0,1,4.23,1.12c1.57.62,4.54,1.9,6.64,1.35C252.94,88.84,253,88,253,87.33Z"/><path id="_Trazado_85" data-name="&lt;Trazado&gt;" class="cls-29" d="M250.13,85.69h0a7.24,7.24,0,0,1-2.41-1.59c-1.67-1.64-2-3-2.57-2.82-.24.06-.39.34-.63.64h0l.58,1c.62.83,1.32,2.31,3,2.88S250.13,85.69,250.13,85.69Z"/><ellipse id="_Trazado_86" data-name="&lt;Trazado&gt;" class="cls-16" cx="245.29" cy="82.78" rx="0.25" ry="0.23" transform="translate(102.22 298.54) rotate(-75.1)"/><path id="_Trazado_87" data-name="&lt;Trazado&gt;" class="cls-30" d="M245.19,82.66s.72-.23.89-.55c0,0,.17-.06.16.23a1.27,1.27,0,0,1-1,.62S245.07,82.93,245.19,82.66Z"/><ellipse id="_Trazado_88" data-name="&lt;Trazado&gt;" class="cls-16" cx="246.22" cy="83.98" rx="0.25" ry="0.23" transform="translate(101.77 300.34) rotate(-75.1)"/><path id="_Trazado_89" data-name="&lt;Trazado&gt;" class="cls-30" d="M246.12,83.86s.72-.23.89-.55c0,0,.17-.06.16.23a1.28,1.28,0,0,1-1,.62S246,84.13,246.12,83.86Z"/><path id="_Trazado_90" data-name="&lt;Trazado&gt;" class="cls-16" d="M247.52,85.15a.26.26,0,0,1-.24.25.23.23,0,0,1-.22-.25.26.26,0,0,1,.24-.25A.23.23,0,0,1,247.52,85.15Z"/><path id="_Trazado_91" data-name="&lt;Trazado&gt;" class="cls-30" d="M247.17,85.06s.66-.41.76-.75c0,0,.16-.11.21.18a1.35,1.35,0,0,1-.83.85S247.11,85.34,247.17,85.06Z"/></g></g></g><g id="_Grupo_70" data-name="&lt;Grupo&gt;"><g id="_Grupo_71" data-name="&lt;Grupo&gt;"><path id="_Trazado_92" data-name="&lt;Trazado&gt;" class="cls-13" d="M246.27,72.84c.57.92.78,1.63.54,2C243,81.2,243,85.79,242.09,89.41S237.34,103,237.34,103L241,105s12-23.28,15.56-30.76c.43-.92-.29-2.54-1-4.36C252.79,71.77,248.6,72.55,246.27,72.84Z"/><g id="_Grupo_72" data-name="&lt;Grupo&gt;"><path id="_Trazado_93" data-name="&lt;Trazado&gt;" class="cls-14" d="M246.27,72.84c2.32-.3,6.51-1.07,9.22-3-3.24-8-16.73-20.85-16.73-20.85-4.18,1-14.56-4.23-14.56-4.23-2,2.22-3.94,8,.68,11.73,1.14.91,3.69,1.78,5.85,3C237.38,63.35,244.2,69.49,246.27,72.84Z"/></g></g><g id="_Grupo_73" data-name="&lt;Grupo&gt;"><g id="_Grupo_74" data-name="&lt;Grupo&gt;"><path id="_Trazado_94" data-name="&lt;Trazado&gt;" class="cls-21" d="M237.67,102a3.8,3.8,0,0,0-1.72,1.5c-.71,1.13-1,1.68-1.18,1.87,0,0-.14.33,1.52,1.19a34.21,34.21,0,0,1,5.47,3.67c1.67,1.37,6.37,3.39,7.63,1.25,0,0,.18-.69-.82-1.3a9.94,9.94,0,0,1-4.1-3.28c-1.42-2.11-1.45-3.58-2.12-3.56s-.71,1.33-3,.64A2.33,2.33,0,0,1,237.67,102Z"/><path id="_Trazado_95" data-name="&lt;Trazado&gt;" class="cls-16" d="M249.39,111.44c-1.27,2.14-6,.12-7.63-1.25a34.21,34.21,0,0,0-5.47-3.67c-1.66-.85-1.52-1.19-1.52-1.19s-.49.62-.57.77,0,1,1.83,2a44.72,44.72,0,0,1,4.26,2.12c1.53,1,4.41,3,6.77,2.89C249,113,249.26,112.15,249.39,111.44Z"/><path id="_Trazado_96" data-name="&lt;Trazado&gt;" class="cls-29" d="M246.69,109.07h0a7.86,7.86,0,0,1-2.22-2.22c-1.42-2.11-1.45-3.58-2.12-3.56-.27,0-.49.28-.81.54h0l.4,1.18c.48,1,.9,2.75,2.61,3.73S246.69,109.07,246.69,109.07Z"/><ellipse id="_Trazado_97" data-name="&lt;Trazado&gt;" class="cls-16" cx="242.18" cy="104.91" rx="0.27" ry="0.25" transform="translate(40.1 274.67) rotate(-63.45)"/><path id="_Trazado_98" data-name="&lt;Trazado&gt;" class="cls-30" d="M242.11,104.76s.82-.09,1.07-.39c0,0,.2,0,.12.28a1.38,1.38,0,0,1-1.18.45S241.92,105,242.11,104.76Z"/><ellipse id="_Trazado_99" data-name="&lt;Trazado&gt;" class="cls-16" cx="242.91" cy="106.39" rx="0.27" ry="0.25" transform="translate(39.42 276.43) rotate(-63.54)"/><path id="_Trazado_100" data-name="&lt;Trazado&gt;" class="cls-30" d="M242.83,106.24s.82-.09,1.07-.39c0,0,.2,0,.12.28a1.39,1.39,0,0,1-1.18.45S242.64,106.49,242.83,106.24Z"/><path id="_Trazado_101" data-name="&lt;Trazado&gt;" class="cls-16" d="M244,107.91a.28.28,0,0,1-.31.21.25.25,0,0,1-.18-.32.28.28,0,0,1,.31-.21A.25.25,0,0,1,244,107.91Z"/><path id="_Trazado_102" data-name="&lt;Trazado&gt;" class="cls-30" d="M243.69,107.74s.79-.29,1-.63c0,0,.19-.08.18.24a1.47,1.47,0,0,1-1.07.72S243.56,108,243.69,107.74Z"/></g></g></g></g><g id="_Grupo_75" data-name="&lt;Grupo&gt;"><g id="_Grupo_76" data-name="&lt;Grupo&gt;"><path id="_Trazado_103" data-name="&lt;Trazado&gt;" class="cls-21" d="M264.86,24.73s-14.76.49-21.63,2.53c-8.59,2.55-17.84,8.6-19,17.51A18.32,18.32,0,0,0,238.77,49s1.15-3.27,5.74-5.59c5.28-2.67,19.31-1.19,22.62-12.6Z"/><g id="_Grupo_77" data-name="&lt;Grupo&gt;"><path id="_Trazado_104" data-name="&lt;Trazado&gt;" class="cls-31" d="M265.83,27.33l-.35-.93a92.58,92.58,0,0,0-11.73,1.84c-9.06,2-24.15,7.17-26,18.91q.43.2.91.4c1.56-11.37,16.4-16.39,25.28-18.38A91.3,91.3,0,0,1,265.83,27.33Z"/><path id="_Trazado_105" data-name="&lt;Trazado&gt;" class="cls-31" d="M265.71,27c-8.17,1.55-18.85,5.13-26,13.37a26.31,26.31,0,0,0-5.09,8.55l1,.06a25.76,25.76,0,0,1,4.81-8c7-8.08,17.57-11.58,25.61-13.08Z"/></g></g><path id="_Trazado_106" data-name="&lt;Trazado&gt;" class="cls-32" d="M264.86,24.73s-14.76.49-21.63,2.53c-8.59,2.55-17.84,8.6-19,17.51a8.25,8.25,0,0,0,.88.76c.88-4,6.43-18.83,40.07-20Z"/></g><g id="_Grupo_78" data-name="&lt;Grupo&gt;"><g id="_Grupo_79" data-name="&lt;Grupo&gt;"><g id="_Grupo_80" data-name="&lt;Grupo&gt;"><path id="_Trazado_107" data-name="&lt;Trazado&gt;" class="cls-33" d="M264,49.89s-7-17.38-5.24-19.77,7.27-2.55,8.17,4.46a89.94,89.94,0,0,0,2.93,13.56c.17.64,14.24,13.49,14.24,13.49l-1.84,1.19S264.41,51.66,264,49.89Z"/></g><path id="_Trazado_108" data-name="&lt;Trazado&gt;" class="cls-21" d="M283.56,62,267.42,49.48c-.39-1.22-4-12.54-4.5-16.62-.41-3.26.23-3.87.39-4a4.18,4.18,0,0,0-.78-.2c-.48.74-.59,2.18-.33,4.27.55,4.36,4.4,16.35,4.56,16.86l0,.11,16.12,12.47Z"/><path id="_Trazado_109" data-name="&lt;Trazado&gt;" class="cls-21" d="M265.17,49.24c-.33-1-3-9.32-4.29-14.2-.88-3.31-.62-5.25-.34-6.19a4,4,0,0,0-.83.39,13.51,13.51,0,0,0,.48,6c1.39,5.2,4.31,14.25,4.34,14.34l0,.11,15.15,11.54,2.54,1.61.41-.26Z"/></g><g id="_Grupo_81" data-name="&lt;Grupo&gt;"><path id="_Trazado_110" data-name="&lt;Trazado&gt;" class="cls-13" d="M284.08,61.62s2.77,1.25,3,1.91.9,3.07.5,3.49a6,6,0,0,1-3.86.54c-.84-.4-.09-2.92-.19-3s-1.32-1.72-1.32-1.72Z"/><path id="_Trazado_111" data-name="&lt;Trazado&gt;" class="cls-14" d="M283.08,63.92s1.86-.69,2.35-1.63c0,0,1.55.57,1.77,1.17s1.09,3.32.4,3.82-3.64.88-4.16.12.06-2.57,0-2.74A3.75,3.75,0,0,0,283.08,63.92Z"/></g></g></g></g></g></svg>