<svg id="Capa_1" data-name="Capa 1" xmlns="http://www.w3.org/2000/svg" viewBox="0 0 150 116"><defs><style>.cls-1{fill:#7ac321;}.cls-2{fill:#2b4b8f;}.cls-3{fill:none;}.cls-4{fill:#00a7ea;}.cls-5{fill:#009add;}.cls-6{fill:#fff;}.cls-7{fill:#0070b7;}</style></defs><title>salud-urbana</title><path class="cls-1" d="M12.57,83.23S25.68,63.45,31.29,57.18c5.42-6.07,9.25-6.55,12.36-6.55,6.27,0,9.57,6.64,13.68,9.69,4.34,3.23,9.69,7.3,15.47,7.48C79,68,82.86,63.6,88.11,60.56c4.75-2.75,8.56-6.07,13.9-6.19,13.8-.3,28.15,20.15,35.85,29.12Z"/><polygon class="cls-1" points="46.64 48.25 40.33 48.25 40.33 48.82 40.71 48.82 40.71 51.33 46.26 51.33 46.26 48.82 46.64 48.82 46.64 48.25"/><polygon class="cls-1" points="44.8 46.01 44.57 46.01 43.55 44.51 43.55 43.95 43.79 43.95 43.79 43.81 43.55 43.81 43.55 43.57 43.41 43.57 43.41 43.81 43.16 43.81 43.16 43.95 43.41 43.95 43.41 44.51 42.39 46.01 42.17 46.01 42.17 46.26 42.38 46.26 42.38 49.66 44.6 49.66 44.6 46.26 44.8 46.26 44.8 46.01"/><path class="cls-1" d="M101.41,54.57a16.39,16.39,0,0,0,.19-3.8.84.84,0,0,0-.65-.87,2.08,2.08,0,0,1-1.08-.83.46.46,0,0,1-.33-.11c-.31-.24-.11-.36.11-.31a1.23,1.23,0,0,1,.41.21,4.81,4.81,0,0,0,2.25.47c0-.27-.27-1.36.57-1.35s.59,1.1.55,1.36a4.81,4.81,0,0,0,2.26-.43,1.23,1.23,0,0,1,.41-.2c.22,0,.42.08.11.32a.46.46,0,0,1-.33.11,2.08,2.08,0,0,1-1.1.81.84.84,0,0,0-.66.86,16.39,16.39,0,0,0,.13,3.81Z"/><path class="cls-1" d="M72.79,68.78c3.45.11,7-.87,8.86-3.93-2.08-2-4.44-3.56-7.5-3.56-2.57,0-5.64.34-9.68,3.88A10.84,10.84,0,0,0,72.79,68.78Z"/><path class="cls-2" d="M36.09,47.26a1.9,1.9,0,0,0,2.56-.81L42,40.08a2.29,2.29,0,0,0-.54-2.79L41.13,37l-8.76-7.53C30.85,28,27.85,27,24.38,27a13.29,13.29,0,0,0-7.18,1.83,3.24,3.24,0,0,0-.48.34l-9,7.76-.31.27A2.29,2.29,0,0,0,6.85,40l3.32,6.38A1.9,1.9,0,0,0,13.68,45l-1.37-4.84,5.58-3.78L16.76,49.75l-6.3,12.64-.15.31A3,3,0,0,0,10,64.42l2.42,18.93a2.68,2.68,0,0,0,5.34-.44l-.69-17.82,7.2-10.4.07,0,7.28,3.17L30.21,72.3a2.68,2.68,0,0,0,5.29.87L39.44,56a3.48,3.48,0,0,0-1.74-3.84l-.4-.22L31.95,49.1,30.87,36.4l5.64,3.82-1.37,4.84A1.9,1.9,0,0,0,36.09,47.26Z"/><path class="cls-2" d="M24.38,16a37.37,37.37,0,0,0-7.32.59,7.61,7.61,0,0,1,14.64,0A37.37,37.37,0,0,0,24.38,16Z"/><path class="cls-2" d="M24.38,16.73a45.09,45.09,0,0,0-6,.34A14.27,14.27,0,0,0,21.07,25a7.13,7.13,0,0,0,6.61,0,14.27,14.27,0,0,0,2.66-7.94A45.09,45.09,0,0,0,24.38,16.73Z"/><path class="cls-2" d="M31.4,17.25,31,17.17A16.46,16.46,0,0,1,29.13,24a7.14,7.14,0,0,0,2.27-6.76Z"/><path class="cls-2" d="M17.76,17.17l-.39.07A7.14,7.14,0,0,0,19.63,24,16.46,16.46,0,0,1,17.76,17.17Z"/><path class="cls-3" d="M24.38,16.73a37.66,37.66,0,0,1,7,.52,7.16,7.16,0,1,1-14,0A37.66,37.66,0,0,1,24.38,16.73Z"/><path class="cls-4" d="M24.18,85.87a1.93,1.93,0,0,1-1.93-1.93V57.4a1.93,1.93,0,0,1,3.86,0V83.94A1.93,1.93,0,0,1,24.18,85.87Z"/><path class="cls-4" d="M28.26,71.32a.94.94,0,0,1-.94-.94V57.24a2.88,2.88,0,0,0-2.88-2.88H24a2.88,2.88,0,0,0-2.88,2.88V70.38a.94.94,0,0,1-1.88,0V57.24A4.77,4.77,0,0,1,24,52.48h.47a4.77,4.77,0,0,1,4.76,4.76V70.38A.94.94,0,0,1,28.26,71.32Z"/><path class="cls-4" d="M24.2,53.79a.94.94,0,0,1-.94-.94v-7.4a.94.94,0,0,1,1.88,0v7.4A.94.94,0,0,1,24.2,53.79Z"/><path class="cls-4" d="M29.12,47.07H19.28a.77.77,0,0,1-.35-.08l-2.55-1.3H11.26a.77.77,0,1,1,0-1.54h5.31a.77.77,0,0,1,.35.08l2.55,1.3h9.47l2.55-1.3a.77.77,0,0,1,.35-.08h5.31a.77.77,0,0,1,0,1.54H32L29.47,47A.77.77,0,0,1,29.12,47.07Z"/><path class="cls-2" d="M119.41,16.17a7.14,7.14,0,1,0,14.24,0c0-.06,0-.12,0-.19H119.42C119.42,16,119.41,16.1,119.41,16.17Z"/><path class="cls-2" d="M119.08,15.17h15a.69.69,0,0,0,.69-.69v-.4a.69.69,0,0,0-.69-.69h-.35a7.49,7.49,0,0,0-3.1-5.85v.69a.77.77,0,1,1-1.54,0V6.7a7,7,0,0,0-1.82-.45v2a.77.77,0,1,1-1.54,0v-2A7,7,0,0,0,124,6.7V8.23a.77.77,0,1,1-1.54,0V7.54a7.49,7.49,0,0,0-3.1,5.85h-.25a.69.69,0,0,0-.69.69v.4A.69.69,0,0,0,119.08,15.17Z"/><path class="cls-2" d="M143.3,52.23c-.07-.73-.19-1.77-.36-3a76.54,76.54,0,0,0-1.77-9.06,45.7,45.7,0,0,0-1.55-4.83c-.3-.77-.61-1.51-.95-2.21s-.68-1.37-1-2a18.41,18.41,0,0,0-1.09-1.65l-.52-.68-.5-.56a10.59,10.59,0,0,0-.76-.77l-.22-.21-.14-.13-.09-.08,0,0c-1.58-1.34-4.43-2.24-7.7-2.24a13,13,0,0,0-7.3,1.92,3.21,3.21,0,0,0-.76.62l-.27.3c-.17.2-.44.49-.73.86s-.56.79-.87,1.29-.62,1-.9,1.63-.61,1.23-.89,1.91-.58,1.38-.86,2.12c-.55,1.47-1.09,3-1.57,4.6-1,3.13-1.75,6.29-2.27,8.67l-.35,1.64c-.1.49-.19.93-.25,1.27l-.2,1.08a2.18,2.18,0,0,0,4.26,1l.28-1.06c.09-.34.2-.72.33-1.18l.45-1.52c.68-2.23,1.68-5.2,2.83-8.07.57-1.44,1.18-2.84,1.79-4.12L115.13,82.7a2.78,2.78,0,0,0,5.51.77l5.94-31.64,5.94,31.64A2.78,2.78,0,0,0,138,82.7l-4.29-46.17c.19.35.38.71.56,1.1a40.09,40.09,0,0,1,1.7,4.13A71.54,71.54,0,0,1,138.32,50c.25,1.16.44,2.13.56,2.8l.18,1V54a2.18,2.18,0,0,0,4.32-.58Z"/><circle class="cls-2" cx="66.51" cy="13.53" r="7.16"/><path class="cls-2" d="M85.1,50.37l-.28-1.05-.33-1.21c-.11-.46-.31-1-.5-1.6l-.62-1.92-.75-2.06c-.25-.72-.53-1.45-.83-2.19L80.9,38.1,80,35.88c-.31-.74-.64-1.45-1-2.14l-.92-2L77.2,30c-.53-1.1-1-2-1.39-2.64l-.54-1-.14-.23a3.24,3.24,0,0,0-.38-.47c-1.47-2.09-4.61-3.54-8.25-3.54C62.67,22.1,59.39,23.7,58,26l-.08.1-.67,1c-.22.32-.45.71-.71,1.16l-.42.72-.42.81c-.3.56-.58,1.18-.88,1.83s-.57,1.35-.86,2.06-.56,1.46-.8,2.22-.49,1.53-.72,2.31a73.91,73.91,0,0,0-1.91,8.57c-.09.59-.18,1.12-.25,1.61s-.13.92-.17,1.25L50,50.67a2.18,2.18,0,0,0,4.31.7l.21-1c.07-.34.16-.7.26-1.15s.23-.94.36-1.48a68.89,68.89,0,0,1,2.45-7.8c.27-.69.54-1.37.83-2,.19-.45.39-.88.59-1.31-1.57,7.87-4,20.4-4.46,25.68-.11,1.17,1.84,2.41,4.83,3.22l.23,17.44a2.8,2.8,0,0,0,5.59.09L66,66.35h1L67.79,83a2.8,2.8,0,0,0,5.59-.09l.23-17.44c3-.81,4.94-2,4.83-3.22C78,57,75.57,44.53,74,36.66c.31.54.62,1.09.91,1.66l1.08,2,1,2.07c.35.68.67,1.36,1,2l.87,1.9.7,1.68c.21.53.43,1,.59,1.45l.43,1.17.37,1v0a2.18,2.18,0,0,0,4.16-1.32Z"/><rect class="cls-5" x="80.74" y="45.22" width="14.83" height="13.03" rx="5.24" ry="5.24"/><circle class="cls-2" cx="88.15" cy="40.35" r="5.35"/><path class="cls-2" d="M98.9,65.2l-.1-.72c-.06-.44-.18-1.19-.35-2-.32-1.6-.83-3.7-1.47-5.78-.33-1-.66-2.08-1-3.06-.17-.49-.39-1-.57-1.41s-.39-.88-.6-1.29a11.83,11.83,0,0,0-.65-1.13c-.12-.18-.21-.33-.33-.49l-.39-.46c-.18-.25-1.64-2-5.25-2h-.09c-3.59,0-5,1.76-5.22,2l-.38.46c-.12.16-.21.32-.33.49A11.83,11.83,0,0,0,81.5,51c-.21.41-.39.83-.6,1.29s-.39.92-.56,1.41c-.38,1-.71,2-1,3.06-.64,2.08-1.14,4.18-1.46,5.78-.16.78-.28,1.52-.34,2l-.1.72a1.3,1.3,0,0,0,2.53.53l.2-.7c.14-.45.31-1,.58-1.73.52-1.44,1.3-3.34,2.19-5.18l.25-.51L82.07,83.1a2.09,2.09,0,0,0,4.15.42l1.87-18.2,0-.17,0,.17L90,83.53a2.1,2.1,0,0,0,4.17-.42l-1.1-25.49.25.51c.89,1.84,1.68,3.74,2.2,5.18.27.74.45,1.27.59,1.73l.2.7a1.3,1.3,0,0,0,2.54-.53Z"/><path class="cls-5" d="M83.16,57.63l.16-.44c.1-.28.23-.67.37-1.14s.28-1,.41-1.62c.07-.3.12-.61.17-.92s.09-.64.14-1a17,17,0,0,0,.11-1.89c0-.3,0-.6,0-.87s0-.54-.08-.78a6.5,6.5,0,0,0-.12-.66,5.15,5.15,0,0,0-.12-.51L84,47.39l.26.39a3.17,3.17,0,0,1,.26.47,4,4,0,0,1,.26.65,7.33,7.33,0,0,1,.36,1.72,8.62,8.62,0,0,1,0,1c0,.34,0,.68-.06,1s-.09.68-.17,1a9.45,9.45,0,0,1-.25,1c-.09.31-.21.6-.31.87s-.22.52-.35.75a7.55,7.55,0,0,1-.64,1.05Z"/><path class="cls-5" d="M93.11,57.63,93,57.19c-.1-.28-.23-.67-.37-1.14s-.28-1-.41-1.62c-.07-.3-.12-.61-.17-.92s-.09-.64-.14-1a17,17,0,0,1-.11-1.89c0-.3,0-.6,0-.87s0-.54.08-.78a6.5,6.5,0,0,1,.12-.66,5.15,5.15,0,0,1,.12-.51l.12-.45-.26.39a3.17,3.17,0,0,0-.26.47,4,4,0,0,0-.26.65,7.33,7.33,0,0,0-.36,1.72,8.62,8.62,0,0,0,0,1c0,.34,0,.68.06,1s.09.68.17,1a9.45,9.45,0,0,0,.25,1c.09.31.21.6.31.87s.22.52.35.75a7.55,7.55,0,0,0,.64,1.05Z"/><rect class="cls-4" x="44.96" y="70.02" width="3.6" height="5.75" transform="translate(-8.47 6.19) rotate(-6.94)"/><path class="cls-1" d="M45.43,63.76l-4.71,5.05a.11.11,0,0,1,0,0,.14.14,0,0,0,0,0l.66,5,4.11-.54L45,69.79l2.35-.31L47.84,73,52,72.41l-.65-4.94a.13.13,0,0,0,0-.05Zm0,0"/><path class="cls-6" d="M45.59,64.87l-4.71,5.05a.11.11,0,0,1,0,0,.14.14,0,0,0,0,0l.66,5,4.11-.54-.47-3.53,2.35-.31L48,74.06l4.11-.54-.65-4.94a.13.13,0,0,0,0-.05Zm0,0"/><path class="cls-6" d="M53.34,67.27,51.1,65.86l-.49-3.75a.28.28,0,0,0-.33-.26l-1.76.23a.28.28,0,0,0-.26.33l.24,1.79L46,62.64a1.15,1.15,0,0,0-1.4.18L38.73,69.2a.27.27,0,0,0-.07.21.3.3,0,0,0,.09.21l.66.6a.32.32,0,0,0,.21.08.34.34,0,0,0,.21-.09l5.66-6.14,7.05,4.46a.28.28,0,0,0,.2,0h0a.32.32,0,0,0,.18-.13l.48-.75a.3.3,0,0,0,0-.22.27.27,0,0,0-.13-.18Zm0,0"/><circle class="cls-1" cx="14.8" cy="78.26" r="1.41" transform="translate(-18.26 5.8) rotate(-13.82)"/><rect class="cls-1" x="15.23" y="79.19" width="0.3" height="2.86" transform="translate(-18.81 6.01) rotate(-13.82)"/><circle class="cls-1" cx="135.33" cy="78.53" r="1.41" transform="translate(11.3 173.91) rotate(-67.69)"/><rect class="cls-1" x="132.97" y="80.63" width="2.86" height="0.3" transform="translate(8.64 174.45) rotate(-67.69)"/><circle class="cls-1" cx="62.77" cy="64.96" r="1.72" transform="translate(-2.35 127.56) rotate(-89.86)"/><rect class="cls-1" x="59.43" y="69.32" width="6.65" height="0.37" transform="translate(-6.91 132.09) rotate(-89.86)"/><circle class="cls-6" cx="33.1" cy="69.12" r="1.72" transform="translate(-10.6 6.17) rotate(-9.18)"/><rect class="cls-6" x="33.64" y="70.29" width="0.37" height="6.65" transform="translate(-11.31 6.34) rotate(-9.18)"/><circle class="cls-6" cx="103.52" cy="69.44" r="1.72" transform="translate(21.54 163.34) rotate(-82.73)"/><rect class="cls-6" x="101.4" y="72.21" width="3.49" height="0.37" transform="translate(18.28 165.55) rotate(-82.73)"/><path class="cls-2" d="M88.44,63.6l.09-2.37a.13.13,0,0,0,0-.06l-5.16-4.58-5.48,4.19v.06l-.09,2.36Z"/><rect class="cls-4" x="81.09" y="68.53" width="4.07" height="4.42" transform="translate(9.37 151.21) rotate(-87.89)"/><path class="cls-6" d="M76.31,62.28a.32.32,0,0,0,.19.11.34.34,0,0,0,.22-.06l6.6-5.11,6.21,5.58a.28.28,0,0,0,.19.07h0a.32.32,0,0,0,.2-.09l.6-.66a.3.3,0,0,0,.07-.22.27.27,0,0,0-.09-.2l-6.45-5.79a1.15,1.15,0,0,0-1.41-.05l-6.86,5.3a.27.27,0,0,0-.11.19.3.3,0,0,0,.06.22Z"/><path class="cls-6" d="M96,65.74a.57.57,0,0,0-.41-.19l-7.26-.27.1-2.6a.13.13,0,0,0,0-.06L83.3,58l-5.48,4.19v.06l-.1,2.6-7.26-.27a.6.6,0,0,0-.61.57l-.25,6.86a.13.13,0,0,0,0,.06l8.44.31,2.21.08,1.34,0L81.71,69l2.37.09-.13,3.56,1.34,0,2.21.08,8.44.31a.13.13,0,0,0,0-.06l.25-6.86A.57.57,0,0,0,96,65.74Z"/><rect class="cls-4" x="71.62" y="68.92" width="1.65" height="1.68" transform="translate(0.05 139.59) rotate(-87.89)"/><rect class="cls-4" x="71.71" y="66.31" width="1.65" height="1.68" transform="translate(2.76 137.16) rotate(-87.89)"/><rect class="cls-4" x="74.72" y="69.04" width="1.65" height="1.68" transform="translate(2.93 142.8) rotate(-87.89)"/><rect class="cls-4" x="74.82" y="66.42" width="1.65" height="1.68" transform="translate(5.64 140.37) rotate(-87.89)"/><rect class="cls-4" x="80.63" y="64.96" width="1.65" height="1.68" transform="translate(12.7 144.78) rotate(-87.89)"/><rect class="cls-4" x="80.73" y="62.34" width="1.65" height="1.68" transform="translate(15.41 142.36) rotate(-87.89)"/><rect class="cls-4" x="83.74" y="65.07" width="1.65" height="1.68" transform="translate(15.58 147.99) rotate(-87.89)"/><rect class="cls-4" x="83.84" y="62.46" width="1.65" height="1.68" transform="translate(18.29 145.57) rotate(-87.89)"/><rect class="cls-4" x="89.34" y="69.58" width="1.65" height="1.68" transform="translate(16.47 157.93) rotate(-87.89)"/><rect class="cls-4" x="89.43" y="66.96" width="1.65" height="1.68" transform="translate(19.18 155.5) rotate(-87.89)"/><rect class="cls-4" x="92.44" y="69.69" width="1.65" height="1.68" transform="translate(19.34 161.14) rotate(-87.89)"/><rect class="cls-4" x="92.54" y="67.07" width="1.65" height="1.68" transform="translate(22.05 158.71) rotate(-87.89)"/><polygon class="cls-6" points="123.38 70.69 124 68.1 118.14 69.45 118.75 66.86 117.44 66.55 117.93 64.5 116.62 64.19 116.13 66.24 114.82 65.93 115.83 61.7 113.21 61.07 112.2 65.3 110.89 64.99 108.51 75.04 126.85 79.39 129.24 69.34 123.38 70.69"/><rect class="cls-4" x="114.45" y="72.53" width="1.8" height="1.8" transform="translate(17.28 168.72) rotate(-76.66)"/><rect class="cls-4" x="117.51" y="73.26" width="1.8" height="1.8" transform="translate(18.93 172.25) rotate(-76.66)"/><rect class="cls-4" x="120.57" y="73.98" width="1.8" height="1.8" transform="translate(20.57 175.79) rotate(-76.66)"/><path class="cls-7" d="M137.37,82.76c-17.68-6.88-39.08-10.91-62.14-10.91h0c-23.06,0-44.46,4-62.15,10.91a.78.78,0,0,0-.5,1.17c1.83,4.49,5.3,12.91,6.94,17a1.06,1.06,0,0,0,1.45.47,178.25,178.25,0,0,1,54.25-8.11h0a178.24,178.24,0,0,1,54.25,8.11,1.06,1.06,0,0,0,1.45-.47c1.65-4,5.11-12.47,6.94-17A.78.78,0,0,0,137.37,82.76Z"/><path class="cls-6" d="M25.41,91.75a2.19,2.19,0,0,1,.56-.08,1.49,1.49,0,0,1,.58.15l.39.17.34.11a1.37,1.37,0,0,0,.35,0,2.37,2.37,0,0,0,.44,0l.31-.1a1.43,1.43,0,0,0,.38-.21,1,1,0,0,0,.28-.36.79.79,0,0,0,0-.55,1.17,1.17,0,0,0-.52-.77,3,3,0,0,0-1.2-.26A12.38,12.38,0,0,1,26,89.69a4.57,4.57,0,0,1-1.18-.36,2.84,2.84,0,0,1-.91-.67,2.53,2.53,0,0,1-.55-1.08,3.33,3.33,0,0,1-.06-1.71,3,3,0,0,1,.65-1.25A3.62,3.62,0,0,1,25,83.79a6.1,6.1,0,0,1,1.22-.48,4.87,4.87,0,0,1,1.36-.16,3.37,3.37,0,0,1,1.36.34,3,3,0,0,1,.66.46,1.38,1.38,0,0,1,.43.69,1.11,1.11,0,0,1-.14.87,1.09,1.09,0,0,1-.36.39,1.71,1.71,0,0,1-.47.2,2.08,2.08,0,0,1-.84,0l-.46-.07-.28,0h-.24l-.34.06q-.5.09-.62.34a.62.62,0,0,0-.07.43q.25.52,1.75.59a5.51,5.51,0,0,1,1.57.26,3.94,3.94,0,0,1,1.15.6,3.15,3.15,0,0,1,.77.85A4.07,4.07,0,0,1,32,91.92a3.69,3.69,0,0,1-.6,1.41,4,4,0,0,1-1.09,1,4.74,4.74,0,0,1-1.38.62,5.22,5.22,0,0,1-1.13.16,5.07,5.07,0,0,1-1.18-.09,4.06,4.06,0,0,1-1.06-.36A2.4,2.4,0,0,1,24.7,94a1.46,1.46,0,0,1-.25-.5,1.54,1.54,0,0,1,.12-1.11A1.26,1.26,0,0,1,25.41,91.75Z"/><path class="cls-6" d="M42,90.54a1.15,1.15,0,0,1,0,.6,1.7,1.7,0,0,1-.28.53,1.79,1.79,0,0,1-.47.41,1.82,1.82,0,0,1-.59.24,1.16,1.16,0,0,1-.72-.11.92.92,0,0,1-.51-.46.87.87,0,0,1-.13.24,1.85,1.85,0,0,1-.32.33,2.8,2.8,0,0,1-.52.34,2.87,2.87,0,0,1-.73.25,4.34,4.34,0,0,1-1.76,0,4.17,4.17,0,0,1-1.53-.64,4.3,4.3,0,0,1-1.18-1.21,4.83,4.83,0,0,1-.68-1.7A4.46,4.46,0,0,1,33.16,86a4.67,4.67,0,0,1,1.22-1.24A4.94,4.94,0,0,1,36.07,84a4.15,4.15,0,0,1,1.75,0,4.76,4.76,0,0,1,1.6.68,4.7,4.7,0,0,1,1.26,1.23,4.32,4.32,0,0,1,.71,1.64l0,.14.07.38q.05.3.17.87Zm-6.55-1.8a1.54,1.54,0,0,0,1.82,1.2,1.52,1.52,0,0,0,1-.65,1.45,1.45,0,0,0,.22-1.15,1.28,1.28,0,0,0-.23-.57,1.71,1.71,0,0,0-.44-.43,1.57,1.57,0,0,0-.56-.23,1.52,1.52,0,0,0-.6,0,1.48,1.48,0,0,0-1,.66A1.5,1.5,0,0,0,35.44,88.74Z"/><path class="cls-6" d="M46.17,89.9A1.39,1.39,0,0,1,45.92,91a1.51,1.51,0,0,1-1,.58,1.41,1.41,0,0,1-1.68-1.21l-1.45-8.94a1.44,1.44,0,0,1,.23-1.1,1.41,1.41,0,0,1,1-.58,1.61,1.61,0,0,1,1.12.2,1.35,1.35,0,0,1,.61,1Z"/><path class="cls-6" d="M50,86.62a5.7,5.7,0,0,0,.16.86.34.34,0,0,0,.4.24q.43,0,.46-.36a5.42,5.42,0,0,0,0-.87l-.44-3.44A1.44,1.44,0,0,1,50.79,82a1.42,1.42,0,0,1,1-.54,1.61,1.61,0,0,1,1.12.24,1.35,1.35,0,0,1,.58,1l.78,6.14a1.67,1.67,0,0,1-.18,1.08.93.93,0,0,1-.69.5,1.86,1.86,0,0,1-.67,0,1.07,1.07,0,0,1-.39-.18.65.65,0,0,1-.23-.31,1.94,1.94,0,0,1-.78.65,2.17,2.17,0,0,1-.65.18A2.81,2.81,0,0,1,48.18,90,5.21,5.21,0,0,1,47,87l-.44-3.44a1.44,1.44,0,0,1,.27-1.09,1.42,1.42,0,0,1,1-.54,1.61,1.61,0,0,1,1.12.24,1.35,1.35,0,0,1,.57,1Z"/><path class="cls-6" d="M60.37,79.23a1.39,1.39,0,0,1,.35-1.08,1.51,1.51,0,0,1,1.05-.5A1.41,1.41,0,0,1,63.34,79l.75,9.29a.94.94,0,0,1-.09.51,1.21,1.21,0,0,1-.32.39,1.62,1.62,0,0,1-.45.26,1.74,1.74,0,0,1-.49.11,1.38,1.38,0,0,1-.67-.08,1.09,1.09,0,0,1-.37-.25,1,1,0,0,1-.2-.4,3.29,3.29,0,0,1-.53.46,3.61,3.61,0,0,1-.64.33,2.85,2.85,0,0,1-.88.2,4,4,0,0,1-1.71-.23,4.4,4.4,0,0,1-1.44-.87,4.66,4.66,0,0,1-1-1.37,4.7,4.7,0,0,1,.49-5A4.14,4.14,0,0,1,57,81.29a4.25,4.25,0,0,1,1.72-.5,2.93,2.93,0,0,1,.8,0,2.69,2.69,0,0,1,.55.16,1.27,1.27,0,0,1,.42.29Zm.48,6a1.56,1.56,0,0,0-.54-1.09,1.47,1.47,0,0,0-1.12-.37,1.5,1.5,0,0,0-1.07.54,1.48,1.48,0,0,0-.36,1.12,1.54,1.54,0,0,0,1.68,1.43,1.46,1.46,0,0,0,1-.51A1.57,1.57,0,0,0,60.85,85.22Z"/><path class="cls-6" d="M73.64,85.82a1.48,1.48,0,0,0,.47-.09,1.37,1.37,0,0,0,.45-.26A1.45,1.45,0,0,0,74.9,85a1.23,1.23,0,0,0,.13-.6L75,77.34a1.53,1.53,0,0,1,.49-1.23,1.82,1.82,0,0,1,1.22-.43,1.6,1.6,0,0,1,1.2.46,1.63,1.63,0,0,1,.47,1.19l.06,7.11a4.8,4.8,0,0,1-.31,1.7,4.61,4.61,0,0,1-.92,1.52,4.9,4.9,0,0,1-1.49,1.1,5.05,5.05,0,0,1-4.05,0,4.77,4.77,0,0,1-1.49-1.08,4.71,4.71,0,0,1-.94-1.51,4.8,4.8,0,0,1-.33-1.7l-.06-7.11a1.63,1.63,0,0,1,.45-1.19,1.6,1.6,0,0,1,1.2-.48,1.82,1.82,0,0,1,1.22.41,1.53,1.53,0,0,1,.51,1.23l.06,7.11a1.32,1.32,0,0,0,.13.59,1.25,1.25,0,0,0,.34.42,1.56,1.56,0,0,0,.45.25A1.36,1.36,0,0,0,73.64,85.82Z"/><path class="cls-6" d="M82.92,83.75l-.14,3.92a1.63,1.63,0,0,1-.5,1.17,1.6,1.6,0,0,1-1.22.42,1.82,1.82,0,0,1-1.2-.47,1.53,1.53,0,0,1-.45-1.25l.25-7a1.85,1.85,0,0,1,.41-1.17A1.34,1.34,0,0,1,81.2,79a1,1,0,0,1,.5.13,1.39,1.39,0,0,1,.57.6,1.48,1.48,0,0,1,.39-.33,2.8,2.8,0,0,1,.58-.22,3.11,3.11,0,0,1,.94-.08,1.72,1.72,0,0,1,1.19.55,1.64,1.64,0,0,1,.44,1.23A1.57,1.57,0,0,1,85.3,82a1.71,1.71,0,0,1-1.25.42,1,1,0,0,0-.73.36A1.5,1.5,0,0,0,82.92,83.75Z"/><path class="cls-6" d="M90.23,80.18a1.43,1.43,0,0,1,.47-.32,3.06,3.06,0,0,1,.61-.18,3.29,3.29,0,0,1,.92,0,4.81,4.81,0,0,1,1.94.56,4.69,4.69,0,0,1,1.45,1.23A5.32,5.32,0,0,1,95,88.62a5,5,0,0,1-1.64,1,4.48,4.48,0,0,1-1.94.26,3.23,3.23,0,0,1-1-.23,4.16,4.16,0,0,1-.71-.38,3.69,3.69,0,0,1-.6-.52,1.13,1.13,0,0,1-.23.45,1.23,1.23,0,0,1-.42.29,1.56,1.56,0,0,1-.76.09,2,2,0,0,1-.55-.13,1.83,1.83,0,0,1-.51-.3,1.36,1.36,0,0,1-.36-.45,1.06,1.06,0,0,1-.1-.57l.87-10.51a1.6,1.6,0,0,1,1.79-1.51,1.71,1.71,0,0,1,1.19.57,1.58,1.58,0,0,1,.39,1.22Zm-.35,4.47a1.78,1.78,0,0,0,.44,1.25,1.65,1.65,0,0,0,1.16.59,1.74,1.74,0,0,0,1.9-1.61A1.68,1.68,0,0,0,93,83.6,1.7,1.7,0,0,0,91.77,83a1.66,1.66,0,0,0-1.27.42A1.76,1.76,0,0,0,89.88,84.64Z"/><path class="cls-6" d="M107.18,90.11a1.3,1.3,0,0,1-.26.63,1.92,1.92,0,0,1-.5.45,2,2,0,0,1-.66.26,2.06,2.06,0,0,1-.72,0,1.31,1.31,0,0,1-.73-.39,1,1,0,0,1-.36-.68,1,1,0,0,1-.23.2,2.09,2.09,0,0,1-.47.23,3.18,3.18,0,0,1-.69.16,3.26,3.26,0,0,1-.88,0,4.9,4.9,0,0,1-1.88-.65,4.72,4.72,0,0,1-1.39-1.27,4.88,4.88,0,0,1-.79-1.74,5.46,5.46,0,0,1-.08-2.07,5,5,0,0,1,2-3.36,5.28,5.28,0,0,1,1.77-.86,5.59,5.59,0,0,1,2.09-.17,4.69,4.69,0,0,1,1.87.68,5.4,5.4,0,0,1,1.45,1.33,5.33,5.33,0,0,1,.87,1.78,4.89,4.89,0,0,1,.13,2l0,.16-.07.43q-.06.33-.15,1Zm-6.3-4.41a1.74,1.74,0,0,0,1.48,2,1.72,1.72,0,0,0,1.31-.32,1.64,1.64,0,0,0,.68-1.14,1.45,1.45,0,0,0,0-.7,1.92,1.92,0,0,0-.31-.62,1.78,1.78,0,0,0-.51-.46,1.72,1.72,0,0,0-.64-.23,1.68,1.68,0,0,0-1.29.33A1.7,1.7,0,0,0,100.88,85.7Z"/><path class="cls-6" d="M113.66,87.4a6.52,6.52,0,0,0,.14-1,.39.39,0,0,0-.34-.4q-.47-.12-.62.22a6.07,6.07,0,0,0-.29.94L111.79,91a1.63,1.63,0,0,1-.68,1.08,1.6,1.6,0,0,1-1.27.22,1.82,1.82,0,0,1-1.11-.66,1.53,1.53,0,0,1-.25-1.31l1.38-6.87a1.82,1.82,0,0,1,.61-1.09,1.37,1.37,0,0,1,1.19-.24,1,1,0,0,1,.47.21,1.27,1.27,0,0,1,.27.32,2.13,2.13,0,0,1,.18.4,3.57,3.57,0,0,1,.49-.27,3.14,3.14,0,0,1,.57-.13,2.23,2.23,0,0,1,.77,0,4.53,4.53,0,0,1,1.61.61,2.43,2.43,0,0,1,.9,1.06,3.84,3.84,0,0,1,.29,1.56,10.73,10.73,0,0,1-.24,2.1l-.78,3.85a1.63,1.63,0,0,1-.68,1.08,1.6,1.6,0,0,1-1.27.22,1.82,1.82,0,0,1-1.11-.66,1.53,1.53,0,0,1-.25-1.31Z"/><path class="cls-6" d="M127,94.71a1.3,1.3,0,0,1-.33.59,1.93,1.93,0,0,1-.55.39,2,2,0,0,1-.68.18,2.06,2.06,0,0,1-.72-.06,1.31,1.31,0,0,1-.68-.48,1,1,0,0,1-.28-.72,1,1,0,0,1-.25.17,2.1,2.1,0,0,1-.5.18,3.2,3.2,0,0,1-.7.08,3.26,3.26,0,0,1-.87-.12,4.91,4.91,0,0,1-1.79-.87,4.72,4.72,0,0,1-1.23-1.42,4.87,4.87,0,0,1-.58-1.82,5.46,5.46,0,0,1,.16-2.07,5,5,0,0,1,2.35-3.1,5.28,5.28,0,0,1,1.86-.65,5.59,5.59,0,0,1,2.1.08,4.7,4.7,0,0,1,1.77.9,5.4,5.4,0,0,1,1.28,1.49,5.33,5.33,0,0,1,.66,1.88,4.89,4.89,0,0,1-.11,2l0,.15-.12.42q-.1.33-.27,1Zm-5.74-5.12a1.74,1.74,0,0,0,1.24,2.13,1.72,1.72,0,0,0,1.34-.16,1.64,1.64,0,0,0,.8-1,1.45,1.45,0,0,0,.05-.7,1.93,1.93,0,0,0-.23-.65,1.78,1.78,0,0,0-.46-.52,1.72,1.72,0,0,0-.61-.3,1.68,1.68,0,0,0-1.32.18A1.7,1.7,0,0,0,121.29,89.59Z"/><path class="cls-2" d="M28.27,107.56v1.54l-1.31.34.25-6.05,1.65-.43,3.21,5.15-1.36.36-.81-1.33Zm1.17-1.32-.66-1.1c-.18-.31-.39-.71-.56-1h0c0,.35,0,.8,0,1.15l0,1.28Z"/><path class="cls-2" d="M32.77,102.46l.26,1.11.91-.21.22.94-.91.21.35,1.48c.12.49.29.69.67.6a1.61,1.61,0,0,0,.37-.12l.23,1a2.75,2.75,0,0,1-.79.3,1.4,1.4,0,0,1-1-.13,1.74,1.74,0,0,1-.64-1.13L32,104.8l-.54.13-.22-.94.54-.13-.18-.77Z"/><path class="cls-2" d="M36.2,105.45c.15.52.73.66,1.33.54a3.46,3.46,0,0,0,1.1-.42l.35.83a4,4,0,0,1-1.43.57,2,2,0,0,1-2.64-1.63,2.11,2.11,0,0,1,1.62-2.63,1.86,1.86,0,0,1,2.26,1.67,3.09,3.09,0,0,1,.06.51Zm1.32-1.19a.76.76,0,0,0-.89-.68.86.86,0,0,0-.62,1Z"/><path class="cls-2" d="M39.46,103.57c-.09-.52-.19-.94-.27-1.31l1.12-.2.16.56h0a1.51,1.51,0,0,1,1.16-.9c.85-.15,1.58.3,1.8,1.52l.44,2.44-1.29.23-.41-2.29c-.1-.53-.35-.86-.81-.78a.72.72,0,0,0-.57.6.94.94,0,0,0,0,.33l.43,2.38-1.29.23Z"/><path class="cls-2" d="M48,104.92a3,3,0,0,1-1.12.37,2,2,0,0,1-2.53-1.78,2.19,2.19,0,0,1,2-2.57,3,3,0,0,1,1,0l-.06,1a1.79,1.79,0,0,0-.74,0,1.17,1.17,0,0,0,.38,2.31,1.84,1.84,0,0,0,.72-.25Z"/><path class="cls-2" d="M48.7,100.18a.65.65,0,1,1,.61-.74.64.64,0,0,1-.61.74Zm0,4.76-.57-4.16,1.29-.18.57,4.16Z"/><path class="cls-2" d="M52.94,104.49a2.06,2.06,0,0,1-2.41-1.9,2.1,2.1,0,0,1,2-2.47A2,2,0,0,1,54.88,102a2.1,2.1,0,0,1-1.93,2.48Zm.67-6.25-.89,1.42-.89.1.58-1.38Zm-.75,5.31c.51-.06.77-.6.68-1.35s-.38-1.22-1-1.15-.78.73-.71,1.35.44,1.21,1,1.15Z"/><path class="cls-2" d="M55.64,101.21c0-.52-.1-1-.15-1.33l1.13-.1.11.58h0A1.51,1.51,0,0,1,58,99.56c.86-.08,1.55.44,1.66,1.67l.22,2.47-1.3.12-.21-2.32c0-.54-.27-.89-.74-.85a.72.72,0,0,0-.62.55.94.94,0,0,0,0,.33l.22,2.41-1.3.12Z"/><path class="cls-2" d="M63.16,97.68l.37,5.78-1.3.08-.37-5.78Z"/><path class="cls-2" d="M64.46,100.53c0-.52-.06-1-.09-1.34l1.13,0,.09.58h0A1.51,1.51,0,0,1,66.88,99c.86,0,1.53.51,1.58,1.75l.11,2.48-1.31.06-.1-2.33c0-.54-.23-.9-.7-.88a.72.72,0,0,0-.65.52.94.94,0,0,0,0,.33l.11,2.42-1.31.06Z"/><path class="cls-2" d="M70.88,97.82l0,1.14.94,0,0,1-.94,0,0,1.52c0,.51.15.74.53.73a1.61,1.61,0,0,0,.39,0l0,1a2.76,2.76,0,0,1-.84.13,1.4,1.4,0,0,1-1-.34,1.74,1.74,0,0,1-.39-1.24l0-1.72h-.56l0-1h.56l0-.79Z"/><path class="cls-2" d="M73.62,101.44c0,.54.58.8,1.19.8a3.46,3.46,0,0,0,1.16-.18l.17.88a4,4,0,0,1-1.52.27,2,2,0,0,1-2.25-2.13,2.11,2.11,0,0,1,2.12-2.25,1.86,1.86,0,0,1,1.88,2.09,3.11,3.11,0,0,1,0,.52Zm1.54-.9a.76.76,0,0,0-.73-.85.86.86,0,0,0-.81.85Z"/><path class="cls-2" d="M81.12,102.6a2.39,2.39,0,0,1-.68,1.88,2.55,2.55,0,0,1-1.71.48,3.36,3.36,0,0,1-1.51-.35l.28-1a2.56,2.56,0,0,0,1.21.34,1,1,0,0,0,1.11-1.09v-.27h0a1.36,1.36,0,0,1-1.15.52A1.85,1.85,0,0,1,76.93,101a2,2,0,0,1,2-2.18,1.26,1.26,0,0,1,1.14.63h0L80.1,99l1.13,0c0,.27,0,.63-.06,1.25Zm-1.27-1.91a1.14,1.14,0,0,0,0-.24.72.72,0,0,0-.69-.59c-.48,0-.87.41-.88,1.18s.29,1.12.83,1.13a.71.71,0,0,0,.71-.51,1.2,1.2,0,0,0,.05-.35Z"/><path class="cls-2" d="M82.24,100.43c0-.62,0-1,0-1.38l1.12,0,0,.78h0a1.22,1.22,0,0,1,1.17-.83,1.31,1.31,0,0,1,.27,0l-.05,1.23a1.93,1.93,0,0,0-.35,0,.83.83,0,0,0-.92.62,1.47,1.47,0,0,0,0,.29l-.09,2.12-1.31-.06Z"/><path class="cls-2" d="M88.82,102.59a5.44,5.44,0,0,0,0,1l-1.17-.07-.05-.42h0a1.51,1.51,0,0,1-1.23.44,1.29,1.29,0,0,1-1.28-1.37c.07-1.09,1.08-1.54,2.56-1.45v-.05c0-.22-.09-.55-.73-.59a2.46,2.46,0,0,0-1.18.24l-.19-.85a3.45,3.45,0,0,1,1.65-.28,1.63,1.63,0,0,1,1.72,1.92Zm-1.2-1c-.69,0-1.23.09-1.26.58a.47.47,0,0,0,.48.53.72.72,0,0,0,.71-.44.93.93,0,0,0,0-.22Z"/><path class="cls-2" d="M90.25,97.59l1.3.1-.49,6.09-1.3-.1Z"/><path class="cls-2" d="M94.56,102.42c0,.54.49.86,1.1.92a3.47,3.47,0,0,0,1.17-.06l.08.9a4,4,0,0,1-1.54.1,2,2,0,0,1-2-2.37,2.11,2.11,0,0,1,2.35-2,1.86,1.86,0,0,1,1.64,2.28,3.11,3.11,0,0,1-.1.51Zm1.62-.73a.76.76,0,0,0-.64-.92.86.86,0,0,0-.9.76Z"/><path class="cls-2" d="M98.23,101.63c.07-.52.11-1,.14-1.33l1.12.15,0,.59h0a1.51,1.51,0,0,1,1.38-.5c.85.11,1.42.77,1.25,2l-.33,2.46-1.29-.17.31-2.31c.07-.54-.07-.93-.54-1a.72.72,0,0,0-.73.4.94.94,0,0,0-.09.32l-.32,2.4-1.29-.17Z"/><path class="cls-2" d="M104.39,104a3.31,3.31,0,0,0,1.37.6c.59.1.95-.09,1-.47s-.18-.6-.82-1c-.89-.5-1.43-1.13-1.29-2s1.11-1.57,2.45-1.35a3.38,3.38,0,0,1,1.41.53l-.46,1a2.71,2.71,0,0,0-1.14-.47c-.56-.09-.87.12-.92.41s.23.58.92,1c.95.54,1.32,1.14,1.19,1.95-.16,1-1,1.65-2.59,1.39a3.77,3.77,0,0,1-1.56-.63Z"/><path class="cls-2" d="M112.31,105.8a5.44,5.44,0,0,0-.13,1l-1.16-.23v-.43h0a1.51,1.51,0,0,1-1.28.28,1.29,1.29,0,0,1-1.09-1.52c.21-1.07,1.27-1.39,2.73-1.11v-.05c0-.22,0-.55-.65-.68a2.45,2.45,0,0,0-1.2.08l-.08-.86a3.45,3.45,0,0,1,1.67-.06,1.63,1.63,0,0,1,1.46,2.13Zm-1.05-1.19c-.67-.13-1.23-.07-1.32.42a.47.47,0,0,0,.41.59.72.72,0,0,0,.76-.34.94.94,0,0,0,.07-.21Z"/><path class="cls-2" d="M114.4,101l1.28.28-1.29,6-1.28-.28Z"/><path class="cls-2" d="M119.56,107.11c-.13.53-.22,1-.28,1.32l-1.1-.26.08-.59h0a1.5,1.5,0,0,1-1.44.36c-.84-.2-1.31-.86-1-2.12l.57-2.4,1.27.3-.53,2.2c-.14.59,0,1,.42,1.11a.72.72,0,0,0,.86-.55L119,104l1.27.3Z"/><path class="cls-2" d="M125.76,103.84l-1.28,4.69c-.12.46-.24.94-.3,1.22l-1.12-.31.11-.6h0a1.47,1.47,0,0,1-1.45.33,1.93,1.93,0,0,1-1.16-2.56,2,2,0,0,1,2.41-1.66,1.29,1.29,0,0,1,.95.75h0l.6-2.21Zm-2.23,3.22a1.14,1.14,0,0,0,0-.24A.78.78,0,0,0,123,106c-.58-.16-1,.28-1.19.91s0,1.2.56,1.35a.78.78,0,0,0,.9-.4,1.55,1.55,0,0,0,.1-.28Z"/></svg>